<svg width="41" height="42" viewBox="0 0 41 42" fill="none" xmlns="http://www.w3.org/2000/svg">
<path d="M20.512 1.16466C22.9309 1.16476 24.8919 3.1256 24.8919 5.54454C24.8918 7.58748 23.4929 9.30354 21.6008 9.7877V9.92442H19.4231V9.7877C17.5309 9.30367 16.1322 7.58761 16.1321 5.54454C16.1321 3.12554 18.093 1.16466 20.512 1.16466ZM20.512 5.02598C20.2259 5.02598 19.9934 5.25845 19.9934 5.54454C19.9935 5.83055 20.226 6.06212 20.512 6.06212C20.7979 6.06202 21.0295 5.83048 21.0296 5.54454C21.0296 5.25851 20.798 5.02608 20.512 5.02598Z" fill="#EBE4CE" stroke="#181651" stroke-width="2.1783"/>
<path d="M32.0759 8.3316L39.5251 40.5484H1.39524L8.84446 8.3316H32.0759Z" fill="#EBE4CE" stroke="#181651" stroke-width="2.1783"/>
<path d="M17.2215 30.7032V30.7032C18.7069 33.0304 22.1055 33.0304 23.5909 30.7032V30.7032" stroke="#181651" stroke-width="1.08915"/>
<mask id="mask0_505_1511" style="mask-type:alpha" maskUnits="userSpaceOnUse" x="19" y="14" width="11" height="16">
<path d="M24.8741 15.3494C26.0376 15.3495 27.1456 16.0205 27.9854 17.2166C28.8241 18.4111 29.3604 20.0902 29.3604 21.9705C29.3603 23.8507 28.824 25.53 27.9854 26.7244C27.1456 27.9202 26.0375 28.5916 24.8741 28.5916C23.7105 28.5916 22.6016 27.9205 21.7618 26.7244C20.9231 25.53 20.3878 23.8507 20.3877 21.9705C20.3877 20.0904 20.9232 18.4111 21.7618 17.2166C22.6016 16.0205 23.7105 15.3494 24.8741 15.3494Z" fill="#D9D9D9" stroke="black" stroke-width="1.08915"/>
</mask>
<g mask="url(#mask0_505_1511)">
<path d="M24.8741 15.3494C26.0376 15.3495 27.1456 16.0205 27.9854 17.2166C28.8241 18.4111 29.3604 20.0902 29.3604 21.9705C29.3603 23.8507 28.824 25.53 27.9854 26.7244C27.1456 27.9202 26.0375 28.5916 24.8741 28.5916C23.7105 28.5916 22.6016 27.9205 21.7618 26.7244C20.9231 25.53 20.3878 23.8507 20.3877 21.9705C20.3877 20.0904 20.9232 18.4111 21.7618 17.2166C22.6016 16.0205 23.7105 15.3494 24.8741 15.3494Z" fill="#FDFCFA" stroke="#181651" stroke-width="1.08915"/>
<mask id="path-6-inside-1_505_1511" fill="white">
<path d="M27.8677 16.1766C25.9111 16.1766 24.2528 17.9957 23.6704 20.5164L25.5044 22.3514L23.5054 23.5213C23.8456 26.5317 25.668 28.8308 27.8677 28.8309C30.3095 28.8309 32.2886 25.998 32.2886 22.5037C32.2886 19.0094 30.3095 16.1766 27.8677 16.1766Z"/>
</mask>
<path d="M27.8677 16.1766C25.9111 16.1766 24.2528 17.9957 23.6704 20.5164L25.5044 22.3514L23.5054 23.5213C23.8456 26.5317 25.668 28.8308 27.8677 28.8309C30.3095 28.8309 32.2886 25.998 32.2886 22.5037C32.2886 19.0094 30.3095 16.1766 27.8677 16.1766Z" fill="#181651"/>
<path d="M27.8677 16.1766L27.8677 15.0874H27.8677V16.1766ZM23.6704 20.5164L22.9001 21.2863L22.4734 20.8594L22.6092 20.2712L23.6704 20.5164ZM25.5044 22.3514L26.2748 21.5814L27.2718 22.579L26.0546 23.2914L25.5044 22.3514ZM23.5054 23.5213L22.4231 23.6436L22.3435 22.9393L22.9553 22.5813L23.5054 23.5213ZM27.8677 28.8309L27.8677 29.92L27.8677 29.92L27.8677 28.8309ZM32.2886 22.5037L33.3777 22.5037L33.3777 22.5037L32.2886 22.5037ZM27.8677 16.1766L27.8677 17.2657C26.6524 17.2657 25.2626 18.463 24.7316 20.7616L23.6704 20.5164L22.6092 20.2712C23.2429 17.5284 25.1698 15.0874 27.8677 15.0874L27.8677 16.1766ZM23.6704 20.5164L24.4408 19.7465L26.2748 21.5814L25.5044 22.3514L24.7341 23.1213L22.9001 21.2863L23.6704 20.5164ZM25.5044 22.3514L26.0546 23.2914L24.0555 24.4613L23.5054 23.5213L22.9553 22.5813L24.9543 21.4114L25.5044 22.3514ZM23.5054 23.5213L24.5877 23.399C24.738 24.7289 25.2115 25.8517 25.8344 26.618C26.4559 27.3826 27.1743 27.7417 27.8677 27.7417L27.8677 28.8309L27.8677 29.92C26.3614 29.92 25.0688 29.1295 24.1441 27.9919C23.2208 26.8561 22.6131 25.3241 22.4231 23.6436L23.5054 23.5213ZM27.8677 28.8309V27.7417C28.6347 27.7417 29.4412 27.2982 30.101 26.3538C30.7583 25.4131 31.1994 24.0552 31.1994 22.5037L32.2886 22.5037L33.3777 22.5037C33.3777 24.4465 32.8293 26.2522 31.8866 27.6014C30.9464 28.9471 29.5425 29.92 27.8677 29.92V28.8309ZM32.2886 22.5037H31.1994C31.1994 20.9521 30.7583 19.5943 30.101 18.6535C29.4412 17.7093 28.6348 17.2657 27.8677 17.2657V16.1766V15.0874C29.5425 15.0874 30.9464 16.0603 31.8866 17.4059C32.8294 18.7552 33.3777 20.5609 33.3777 22.5037H32.2886Z" fill="#181651" mask="url(#path-6-inside-1_505_1511)"/>
</g>
<mask id="mask1_505_1511" style="mask-type:alpha" maskUnits="userSpaceOnUse" x="10" y="14" width="11" height="16">
<path d="M15.4253 15.3494C16.5889 15.3495 17.6969 16.0205 18.5367 17.2166C19.3753 18.4111 19.9117 20.0902 19.9117 21.9705C19.9116 23.8507 19.3753 25.53 18.5367 26.7244C17.6969 27.9202 16.5887 28.5916 15.4253 28.5916C14.2618 28.5916 13.1529 27.9205 12.313 26.7244C11.4744 25.53 10.9391 23.8507 10.939 21.9705C10.939 20.0904 11.4745 18.4111 12.313 17.2166C13.1529 16.0205 14.2617 15.3494 15.4253 15.3494Z" fill="#D9D9D9" stroke="black" stroke-width="1.08915"/>
</mask>
<g mask="url(#mask1_505_1511)">
<path d="M15.4253 15.3494C16.5889 15.3495 17.6969 16.0205 18.5367 17.2166C19.3753 18.4111 19.9117 20.0902 19.9117 21.9705C19.9116 23.8507 19.3753 25.53 18.5367 26.7244C17.6969 27.9202 16.5887 28.5916 15.4253 28.5916C14.2618 28.5916 13.1529 27.9205 12.313 26.7244C11.4744 25.53 10.9391 23.8507 10.939 21.9705C10.939 20.0904 11.4745 18.4111 12.313 17.2166C13.1529 16.0205 14.2617 15.3494 15.4253 15.3494Z" fill="#FDFCFA" stroke="#181651" stroke-width="1.08915"/>
<mask id="path-10-inside-2_505_1511" fill="white">
<path d="M18.2625 16.1766C16.3054 16.1767 14.6462 17.9967 14.0643 20.5184L15.8963 22.3514L13.8992 23.5203C14.2391 26.5312 16.0626 28.8307 18.2625 28.8309C20.7043 28.8309 22.6844 25.998 22.6844 22.5037C22.6844 19.0094 20.7043 16.1766 18.2625 16.1766Z"/>
</mask>
<path d="M18.2625 16.1766C16.3054 16.1767 14.6462 17.9967 14.0643 20.5184L15.8963 22.3514L13.8992 23.5203C14.2391 26.5312 16.0626 28.8307 18.2625 28.8309C20.7043 28.8309 22.6844 25.998 22.6844 22.5037C22.6844 19.0094 20.7043 16.1766 18.2625 16.1766Z" fill="#181651"/>
<path d="M18.2625 16.1766L18.2625 15.0874H18.2625V16.1766ZM14.0643 20.5184L13.2939 21.2883L12.8673 20.8615L13.003 20.2735L14.0643 20.5184ZM15.8963 22.3514L16.6667 21.5814L17.6636 22.5789L16.4465 23.2913L15.8963 22.3514ZM13.8992 23.5203L12.817 23.6425L12.7375 22.9383L13.349 22.5803L13.8992 23.5203ZM18.2625 28.8309L18.2625 29.92L18.2625 29.92L18.2625 28.8309ZM22.6844 22.5037L23.7735 22.5037L23.7735 22.5037L22.6844 22.5037ZM18.2625 16.1766L18.2626 17.2657C17.0467 17.2658 15.6561 18.464 15.1255 20.7632L14.0643 20.5184L13.003 20.2735C13.6362 17.5294 15.5641 15.0875 18.2625 15.0874L18.2625 16.1766ZM14.0643 20.5184L14.8346 19.7484L16.6667 21.5814L15.8963 22.3514L15.126 23.1213L13.2939 21.2883L14.0643 20.5184ZM15.8963 22.3514L16.4465 23.2913L14.4494 24.4603L13.8992 23.5203L13.349 22.5803L15.3461 21.4114L15.8963 22.3514ZM13.8992 23.5203L14.9815 23.3981C15.1317 24.7281 15.6054 25.8511 16.2285 26.6176C16.8503 27.3824 17.569 27.7417 18.2626 27.7417L18.2625 28.8309L18.2625 29.92C16.7561 29.9199 15.4632 29.1294 14.5383 27.9917C13.6147 26.8556 13.0067 25.3234 12.817 23.6425L13.8992 23.5203ZM18.2625 28.8309V27.7417C19.0296 27.7417 19.8364 27.2981 20.4964 26.3537C21.1539 25.4129 21.5952 24.0551 21.5952 22.5037L22.6844 22.5037L23.7735 22.5037C23.7735 24.4466 23.2248 26.2524 22.2819 27.6016C21.3414 28.9472 19.9372 29.92 18.2625 29.92V28.8309ZM22.6844 22.5037H21.5952C21.5952 20.9523 21.1539 19.5944 20.4964 18.6537C19.8364 17.7093 19.0297 17.2657 18.2625 17.2657V16.1766V15.0874C19.9372 15.0874 21.3414 16.0602 22.2819 17.4058C23.2248 18.755 23.7735 20.5608 23.7735 22.5037H22.6844Z" fill="#181651" mask="url(#path-10-inside-2_505_1511)"/>
</g>
<path d="M16.7262 26.2603C12.0131 25.5754 9.71259 27.9466 9.1515 29.2178L18.1034 29.6417C18.5328 27.9741 21.4317 28.9421 19.3276 27.298C18.6822 26.7937 17.8325 26.4211 16.7262 26.2603Z" fill="#EBE4CE"/>
<path d="M24.867 26.3508C28.7352 25.0562 31.8419 28.0456 32.3999 29.3233H22.648C22.09 27.1331 21.4707 27.4874 24.867 26.3508Z" fill="#EBE4CE"/>
<path d="M10.2107 28.1554C11.8816 26.2714 17.4259 24.5117 19.5525 28.1556" stroke="#181651" stroke-width="1.08915"/>
<path d="M31.4454 28.1554C29.7556 26.2714 24.1483 24.5117 21.9976 28.1556" stroke="#181651" stroke-width="1.08915"/>
</svg>
