<svg width="1320" height="147" viewBox="0 0 1320 147" fill="none" xmlns="http://www.w3.org/2000/svg">
<path d="M1174.1 143.166C1175.35 127.512 1175.98 99.49 1175.98 73.5033C1175.98 46.8904 1175.35 19.0251 1174.1 3.84007C1199.93 3.21388 1220.75 2.43115 1241.26 2.43115C1286.34 2.43115 1320 8.22337 1320 58.4748C1320 107.317 1287.28 113.579 1263.8 113.579C1254.41 113.579 1243.14 112.483 1230.92 110.918C1231.24 123.755 1231.71 135.183 1232.33 143.166H1174.1ZM1230.46 77.5735C1234.84 77.73 1239.07 77.8866 1242.98 77.8866C1255.97 77.8866 1264.74 77.1038 1264.74 58.4748C1264.74 41.2547 1255.97 40.1589 1242.98 40.3154C1239.22 40.3154 1235 40.6285 1230.77 40.785C1230.61 50.6475 1230.46 62.2319 1230.46 73.5033V77.5735Z" fill="#EBE4CE"/>
<path d="M1088.31 146.61C1045.57 146.61 1013.33 122.346 1013.33 73.5032C1013.33 24.5042 1045.57 0.395996 1088.31 0.395996C1131.05 0.395996 1163.3 24.5042 1163.3 73.5032C1163.3 122.346 1131.05 146.61 1088.31 146.61ZM1067.49 73.5032C1067.49 90.2537 1073.75 100.429 1088.31 100.429C1102.87 100.429 1109.13 90.2537 1109.13 73.5032C1109.13 56.7527 1102.87 46.4207 1088.31 46.4207C1073.75 46.4207 1067.49 56.7527 1067.49 73.5032Z" fill="#EBE4CE"/>
<path d="M944.288 143.167C945.384 130.173 946.01 108.57 946.167 86.81H917.362C917.519 109.04 918.145 130.33 919.241 143.167H861.006C862.258 127.512 862.884 99.4902 862.884 73.5035C862.884 46.8906 862.258 19.0253 861.006 3.84033H919.241C918.145 16.6771 917.519 38.2806 917.362 60.1971H946.167C946.01 37.9675 945.384 16.5206 944.288 3.84033H1002.52C1001.27 19.3384 1000.65 47.3603 1000.65 73.5035C1000.65 100.116 1001.27 127.825 1002.52 143.167H944.288Z" fill="#EBE4CE"/>
<path d="M777.253 146.61C747.196 146.61 725.28 142.853 699.45 135.183L709.469 85.4007C732.794 97.4548 753.145 102.464 772.557 102.464C791.499 102.464 798.074 98.5507 798.074 93.2281C798.074 88.3751 793.534 85.4007 770.835 84.4615C737.334 83.0526 701.328 77.8865 701.328 45.0118C701.328 16.2072 727.472 0.395996 771.618 0.395996C801.675 0.395996 820.46 3.84002 839.872 9.4757L842.69 58.4748C815.607 47.9861 799.013 44.5421 778.036 44.5421C760.972 44.5421 754.398 48.7689 754.398 53.9349C754.398 58.6313 759.72 61.6057 779.602 62.3884C814.668 63.9539 851.143 67.711 851.143 101.055C851.143 126.886 832.827 146.61 777.253 146.61Z" fill="#EBE4CE"/>
<path d="M540.399 146.61C497.661 146.61 465.413 122.346 465.413 73.5032C465.413 24.5042 497.661 0.395996 540.399 0.395996C583.136 0.395996 615.384 24.5042 615.384 73.5032C615.384 122.346 583.136 146.61 540.399 146.61ZM519.578 73.5032C519.578 90.2537 525.84 100.429 540.399 100.429C554.957 100.429 561.219 90.2537 561.219 73.5032C561.219 56.7527 554.957 46.4207 540.399 46.4207C525.84 46.4207 519.578 56.7527 519.578 73.5032Z" fill="#EBE4CE"/>
<path d="M313.093 143.167C314.345 127.512 314.972 99.4902 314.972 73.5035C314.972 46.8906 314.345 19.0253 313.093 3.84033H371.328C370.076 19.3384 369.45 47.3603 369.45 73.5035C369.45 92.4457 368.667 112.171 367.415 127.356H370.389C372.268 112.327 372.424 89.6278 393.558 89.3147C411.561 89.0016 435.356 88.0624 455.394 86.6534V143.167H313.093Z" fill="#EBE4CE"/>
<path d="M156.703 39.5329V3.84033H297.751V39.5329H255.327C254.858 49.5519 254.545 61.7625 254.545 73.5035C254.545 85.4011 254.858 97.6117 255.327 107.474H297.751V143.167H156.703V107.474H199.284C199.753 97.4551 200.066 85.2445 200.066 73.5035C200.066 61.606 199.753 49.3954 199.284 39.5329H156.703Z" fill="#EBE4CE"/>
<path d="M105.669 144.419C73.2638 144.419 61.6793 127.512 60.1139 89.6278H56.5133C56.6698 110.135 57.296 131.895 58.2353 143.167H0C1.25237 127.512 1.87856 99.4902 1.87856 73.5035C1.87856 46.8906 1.25237 19.0253 0 3.84033H58.2353C57.1395 17.6164 56.5133 41.255 56.3567 64.7369H67.9412C77.9602 47.3603 84.222 27.1658 86.4137 3.84033H145.588C140.109 31.7056 128.994 58.4751 113.027 83.8356H74.0465V86.0273C74.0465 91.3498 78.8994 95.8897 97.685 95.8897C111.148 95.8897 124.768 92.6022 143.397 88.532L140.892 140.662C129.934 143.01 118.349 144.419 105.669 144.419Z" fill="#EBE4CE"/>
</svg>
