<svg width="249" height="201" viewBox="0 0 249 201" fill="none" xmlns="http://www.w3.org/2000/svg">
<mask id="path-1-inside-1_172_147" fill="white">
<path fill-rule="evenodd" clip-rule="evenodd" d="M48.4547 0L0 200.401H124.5H249L200.545 0H124.5H48.4547Z"/>
</mask>
<path fill-rule="evenodd" clip-rule="evenodd" d="M48.4547 0L0 200.401H124.5H249L200.545 0H124.5H48.4547Z" fill="#7D7D7D"/>
<path d="M0 200.401L-14.5799 196.876L-19.0591 215.401H0V200.401ZM48.4547 0V-15H36.6493L33.8748 -3.52524L48.4547 0ZM249 200.401V215.401H268.059L263.58 196.876L249 200.401ZM200.545 0L215.125 -3.52524L212.351 -15H200.545V0ZM0 200.401L14.5799 203.927L63.0345 3.52524L48.4547 0L33.8748 -3.52524L-14.5799 196.876L0 200.401ZM124.5 200.401V185.401H0V200.401V215.401H124.5V200.401ZM124.5 200.401V215.401H249V200.401V185.401H124.5V200.401ZM249 200.401L263.58 196.876L215.125 -3.52524L200.545 0L185.965 3.52524L234.42 203.927L249 200.401ZM200.545 0V-15H124.5V0V15H200.545V0ZM48.4547 0V15H124.5V0V-15H48.4547V0Z" fill="black" mask="url(#path-1-inside-1_172_147)"/>
</svg>
