<svg width="464" height="97" viewBox="0 0 464 97" fill="none" xmlns="http://www.w3.org/2000/svg">
<mask id="path-1-outside-1_876_1054" maskUnits="userSpaceOnUse" x="158" y="0" width="149" height="97" fill="black">
<rect fill="white" x="158" width="149" height="97"/>
<path d="M232.577 6C263.458 6.04145 273.594 11.895 274.375 16.8408L281.049 60.2231C281.125 60.716 281.382 61.1628 281.771 61.4759L300.097 76.2548C300.856 76.8673 301.076 77.9472 300.493 78.729C292.407 89.562 265.765 91.2845 232.508 91.291C232.508 91.291 232.508 91.2912 232.508 91.2915V91.2915C232.508 91.2918 232.508 91.292 232.507 91.292C232.476 91.292 232.444 91.291 232.412 91.291C232.381 91.291 232.349 91.292 232.317 91.292C232.317 91.292 232.316 91.2918 232.316 91.2915V91.2915C232.316 91.2912 232.315 91.291 232.315 91.291C199.059 91.2844 172.418 89.5618 164.332 78.729C163.748 77.9472 163.968 76.8673 164.727 76.2548L183.054 61.4759C183.442 61.1628 183.699 60.716 183.775 60.2231L190.449 16.8408C191.23 11.895 201.367 6.0415 232.247 6H232.577Z"/>
</mask>
<path d="M232.577 6C263.458 6.04145 273.594 11.895 274.375 16.8408L281.049 60.2231C281.125 60.716 281.382 61.1628 281.771 61.4759L300.097 76.2548C300.856 76.8673 301.076 77.9472 300.493 78.729C292.407 89.562 265.765 91.2845 232.508 91.291C232.508 91.291 232.508 91.2912 232.508 91.2915V91.2915C232.508 91.2918 232.508 91.292 232.507 91.292C232.476 91.292 232.444 91.291 232.412 91.291C232.381 91.291 232.349 91.292 232.317 91.292C232.317 91.292 232.316 91.2918 232.316 91.2915V91.2915C232.316 91.2912 232.315 91.291 232.315 91.291C199.059 91.2844 172.418 89.5618 164.332 78.729C163.748 77.9472 163.968 76.8673 164.727 76.2548L183.054 61.4759C183.442 61.1628 183.699 60.716 183.775 60.2231L190.449 16.8408C191.23 11.895 201.367 6.0415 232.247 6H232.577Z" fill="#0059F7"/>
<path d="M232.577 6L232.584 0.8H232.577V6ZM274.375 16.8408L279.515 16.0501L279.513 16.04L279.511 16.0298L274.375 16.8408ZM232.412 91.291L232.413 86.091L232.412 86.091L232.412 91.291ZM190.449 16.8408L185.313 16.0298L185.311 16.04L185.31 16.0501L190.449 16.8408ZM232.247 6L232.247 0.799995L232.24 0.800005L232.247 6ZM183.054 61.4759L179.79 57.4281L183.054 61.4759ZM183.775 60.2231L188.915 61.0138L183.775 60.2231ZM164.332 78.729L168.499 75.6186L164.332 78.729ZM164.727 76.2548L167.992 80.3026L164.727 76.2548ZM232.315 91.291L232.316 86.091L232.316 86.091L232.315 91.291ZM232.507 91.292L232.509 86.092L232.507 91.292ZM232.508 91.291L232.509 96.491L232.508 91.291ZM300.097 76.2548L303.361 72.207L300.097 76.2548ZM300.493 78.729L296.325 75.6186L300.493 78.729ZM232.317 91.292L232.315 86.092L232.317 91.292ZM281.049 60.2231L275.91 61.0138L281.049 60.2231ZM232.577 6L232.57 11.2C247.769 11.2204 257.414 12.6806 263.172 14.5318C266.049 15.4567 267.711 16.4025 268.592 17.1129C269.457 17.8109 269.301 18.0486 269.239 17.6518L274.375 16.8408L279.511 16.0298C279.058 13.1602 277.343 10.8114 275.123 9.01965C272.918 7.24024 269.969 5.79268 266.355 4.63077C259.13 2.30832 248.267 0.821057 232.584 0.800005L232.577 6ZM274.375 16.8408L269.236 17.6315L275.91 61.0138L281.049 60.2231L286.189 59.4324L279.515 16.0501L274.375 16.8408ZM281.771 61.4759L278.506 65.5237L296.833 80.3026L300.097 76.2548L303.361 72.207L285.035 57.4281L281.771 61.4759ZM300.493 78.729L296.325 75.6186C295.076 77.2922 292.838 78.9591 289.181 80.4423C285.547 81.9161 280.86 83.0682 275.163 83.9282C263.755 85.6503 249.123 86.0877 232.507 86.091L232.508 91.291L232.509 96.491C249.151 96.4877 264.468 96.0606 276.716 94.2116C282.847 93.286 288.415 91.9759 293.09 90.0798C297.742 88.1931 301.866 85.5822 304.66 81.8394L300.493 78.729ZM232.507 91.292L232.509 86.092C232.527 86.092 232.539 86.0921 232.544 86.0922C232.547 86.0922 232.549 86.0923 232.539 86.0921C232.533 86.092 232.515 86.0917 232.496 86.0915C232.475 86.0913 232.446 86.091 232.413 86.091L232.412 91.291L232.412 96.491C232.394 96.491 232.381 96.4909 232.376 96.4908C232.373 96.4908 232.371 96.4907 232.38 96.4909C232.387 96.491 232.404 96.4913 232.424 96.4915C232.444 96.4917 232.472 96.492 232.506 96.492L232.507 91.292ZM232.412 91.291L232.412 86.091C232.378 86.091 232.349 86.0913 232.329 86.0915C232.31 86.0917 232.292 86.092 232.285 86.0921C232.276 86.0923 232.277 86.0922 232.281 86.0922C232.285 86.0921 232.297 86.092 232.315 86.092L232.317 91.292L232.32 96.492C232.353 96.492 232.381 96.4917 232.401 96.4915C232.42 96.4913 232.438 96.491 232.444 96.4909C232.453 96.4908 232.452 96.4908 232.448 96.4908C232.443 96.4909 232.431 96.491 232.413 96.491L232.412 91.291ZM232.315 91.291L232.316 86.091C215.701 86.0877 201.069 85.6503 189.661 83.9281C183.964 83.0681 179.277 81.916 175.643 80.4422C171.986 78.959 169.748 77.2922 168.499 75.6186L164.332 78.729L160.165 81.8394C162.958 85.5822 167.083 88.193 171.734 90.0797C176.409 91.9759 181.977 93.2859 188.108 94.2116C200.356 96.0605 215.673 96.4877 232.314 96.491L232.315 91.291ZM164.727 76.2548L167.992 80.3026L186.318 65.5237L183.054 61.4759L179.79 57.4281L161.463 72.207L164.727 76.2548ZM183.775 60.2231L188.915 61.0138L195.589 17.6315L190.449 16.8408L185.31 16.0501L178.636 59.4324L183.775 60.2231ZM190.449 16.8408L195.586 17.6518C195.523 18.0486 195.368 17.811 196.233 17.1129C197.113 16.4025 198.775 15.4567 201.652 14.5318C207.411 12.6807 217.056 11.2204 232.254 11.2L232.247 6L232.24 0.800005C216.558 0.821079 205.695 2.30835 198.47 4.63079C194.855 5.79269 191.906 7.24024 189.701 9.01963C187.481 10.8114 185.766 13.1602 185.313 16.0298L190.449 16.8408ZM232.247 6V11.2H232.577V6V0.8H232.247V6ZM183.054 61.4759L186.318 65.5237C187.716 64.3967 188.642 62.7882 188.915 61.0138L183.775 60.2231L178.636 59.4324C178.757 58.6438 179.169 57.9289 179.79 57.4281L183.054 61.4759ZM164.332 78.729L168.499 75.6186C169.846 77.4232 169.057 79.4438 167.992 80.3026L164.727 76.2548L161.463 72.207C158.879 74.2907 157.651 78.4712 160.165 81.8394L164.332 78.729ZM232.316 91.2915L235.993 87.6145C235.007 86.6286 233.68 86.0913 232.316 86.091L232.315 91.291L232.314 96.491C230.951 96.4907 229.624 95.9537 228.639 94.9685L232.316 91.2915ZM232.508 91.2915H227.308C227.308 88.4203 229.636 86.0911 232.509 86.092L232.507 91.292L232.506 96.492C235.38 96.4929 237.708 94.1633 237.708 91.2915H232.508ZM232.508 91.291L232.507 86.091C229.654 86.0916 227.308 88.4019 227.308 91.2915H232.508H237.708C237.708 94.1806 235.363 96.4905 232.509 96.491L232.508 91.291ZM300.097 76.2548L296.833 80.3026C295.768 79.4438 294.978 77.4232 296.325 75.6186L300.493 78.729L304.66 81.8394C307.174 78.4712 305.945 74.2907 303.361 72.207L300.097 76.2548ZM232.317 91.292L232.315 86.092C233.696 86.0914 235.019 86.6402 235.993 87.6145L232.316 91.2915L228.639 94.9685C229.614 95.9434 230.938 96.4926 232.32 96.492L232.317 91.292ZM281.049 60.2231L275.91 61.0138C276.183 62.7882 277.109 64.3967 278.506 65.5237L281.771 61.4759L285.035 57.4281C285.656 57.9289 286.067 58.6438 286.189 59.4324L281.049 60.2231Z" fill="#181651" mask="url(#path-1-outside-1_876_1054)"/>
</svg>
