<svg width="149" height="97" viewBox="0 0 149 97" fill="none" xmlns="http://www.w3.org/2000/svg">
<mask id="path-1-outside-1_876_1063" maskUnits="userSpaceOnUse" x="0" y="0" width="149" height="97" fill="black">
<rect fill="white" width="149" height="97"/>
<path d="M74.5773 6C105.458 6.04145 115.594 11.895 116.375 16.8408L123.049 60.2231C123.125 60.716 123.382 61.1628 123.771 61.4759L142.097 76.2548C142.856 76.8673 143.076 77.9472 142.493 78.729C134.407 89.562 107.765 91.2845 74.5084 91.291C74.5082 91.291 74.5079 91.2912 74.5079 91.2915V91.2915C74.5079 91.2918 74.5077 91.292 74.5075 91.292C74.4757 91.292 74.444 91.291 74.4122 91.291C74.3807 91.291 74.3488 91.292 74.3172 91.292C74.3168 91.292 74.3164 91.2918 74.316 91.2915V91.2915C74.3157 91.2912 74.3153 91.291 74.3149 91.291C41.0588 91.2844 14.4177 89.5618 6.3319 78.729C5.74833 77.9472 5.96799 76.8673 6.72742 76.2548L25.054 61.4759C25.4422 61.1628 25.6994 60.716 25.7752 60.2231L32.4493 16.8408C33.2303 11.895 43.3669 6.0415 74.2472 6H74.5773Z"/>
</mask>
<path d="M74.5773 6C105.458 6.04145 115.594 11.895 116.375 16.8408L123.049 60.2231C123.125 60.716 123.382 61.1628 123.771 61.4759L142.097 76.2548C142.856 76.8673 143.076 77.9472 142.493 78.729C134.407 89.562 107.765 91.2845 74.5084 91.291C74.5082 91.291 74.5079 91.2912 74.5079 91.2915V91.2915C74.5079 91.2918 74.5077 91.292 74.5075 91.292C74.4757 91.292 74.444 91.291 74.4122 91.291C74.3807 91.291 74.3488 91.292 74.3172 91.292C74.3168 91.292 74.3164 91.2918 74.316 91.2915V91.2915C74.3157 91.2912 74.3153 91.291 74.3149 91.291C41.0588 91.2844 14.4177 89.5618 6.3319 78.729C5.74833 77.9472 5.96799 76.8673 6.72742 76.2548L25.054 61.4759C25.4422 61.1628 25.6994 60.716 25.7752 60.2231L32.4493 16.8408C33.2303 11.895 43.3669 6.0415 74.2472 6H74.5773Z" fill="#F07508"/>
<path d="M74.5773 6L74.5843 0.8H74.5773V6ZM116.375 16.8408L121.515 16.0501L121.513 16.04L121.511 16.0298L116.375 16.8408ZM74.4122 91.291L74.4128 86.091L74.4117 86.091L74.4122 91.291ZM32.4493 16.8408L27.313 16.0298L27.3114 16.04L27.3098 16.0501L32.4493 16.8408ZM74.2472 6L74.2472 0.799995L74.2402 0.800005L74.2472 6ZM25.054 61.4759L21.7897 57.4281L25.054 61.4759ZM25.7752 60.2231L30.9148 61.0138L25.7752 60.2231ZM6.3319 78.729L10.4991 75.6186L6.3319 78.729ZM6.72742 76.2548L9.99167 80.3026L6.72742 76.2548ZM74.3149 91.291L74.3159 86.091L74.3159 86.091L74.3149 91.291ZM74.5075 91.292L74.5091 86.092L74.5075 91.292ZM74.5084 91.291L74.5095 96.491L74.5084 91.291ZM142.097 76.2548L145.361 72.207L142.097 76.2548ZM142.493 78.729L138.325 75.6186L142.493 78.729ZM74.3172 91.292L74.3149 86.092L74.3172 91.292ZM123.049 60.2231L117.91 61.0138L123.049 60.2231ZM74.5773 6L74.5703 11.2C89.7686 11.2204 99.4135 12.6806 105.172 14.5318C108.049 15.4567 109.711 16.4025 110.592 17.1129C111.457 17.8109 111.301 18.0486 111.239 17.6518L116.375 16.8408L121.511 16.0298C121.058 13.1602 119.343 10.8114 117.123 9.01965C114.918 7.24024 111.969 5.79268 108.355 4.63077C101.13 2.30832 90.2665 0.821057 74.5843 0.800005L74.5773 6ZM116.375 16.8408L111.236 17.6315L117.91 61.0138L123.049 60.2231L128.189 59.4324L121.515 16.0501L116.375 16.8408ZM123.771 61.4759L120.506 65.5237L138.833 80.3026L142.097 76.2548L145.361 72.207L127.035 57.4281L123.771 61.4759ZM142.493 78.729L138.325 75.6186C137.076 77.2922 134.838 78.9591 131.181 80.4423C127.547 81.9161 122.86 83.0682 117.163 83.9282C105.755 85.6503 91.1229 86.0877 74.5074 86.091L74.5084 91.291L74.5095 96.491C91.1508 96.4877 106.468 96.0606 118.716 94.2116C124.847 93.286 130.415 91.9759 135.09 90.0798C139.742 88.1931 143.866 85.5822 146.66 81.8394L142.493 78.729ZM74.5075 91.292L74.5091 86.092C74.5266 86.092 74.5393 86.0921 74.5438 86.0922C74.5472 86.0922 74.549 86.0923 74.5393 86.0921C74.5329 86.092 74.5151 86.0917 74.4956 86.0915C74.4751 86.0913 74.4464 86.091 74.4128 86.091L74.4122 91.291L74.4117 96.491C74.394 96.491 74.3811 96.4909 74.3765 96.4908C74.3728 96.4908 74.3709 96.4907 74.3804 96.4909C74.3866 96.491 74.4043 96.4913 74.4235 96.4915C74.4439 96.4917 74.4724 96.492 74.5058 96.492L74.5075 91.292ZM74.4122 91.291L74.4117 86.091C74.3782 86.091 74.3495 86.0913 74.329 86.0915C74.3096 86.0917 74.2919 86.092 74.2854 86.0921C74.2757 86.0923 74.2774 86.0922 74.2806 86.0922C74.2849 86.0921 74.2975 86.092 74.3149 86.092L74.3172 91.292L74.3195 96.492C74.3528 96.492 74.3811 96.4917 74.4013 96.4915C74.4204 96.4913 74.438 96.491 74.4441 96.4909C74.4535 96.4908 74.4516 96.4908 74.448 96.4908C74.4434 96.4909 74.4305 96.491 74.4127 96.491L74.4122 91.291ZM74.3149 91.291L74.3159 86.091C57.7008 86.0877 43.0688 85.6503 31.6607 83.9281C25.9643 83.0681 21.2768 81.916 17.6432 80.4422C13.9863 78.959 11.7483 77.2922 10.4991 75.6186L6.3319 78.729L2.16474 81.8394C4.9584 85.5822 9.0827 88.193 13.7343 90.0797C18.4093 91.9759 23.9768 93.2859 30.1083 94.2116C42.3562 96.0605 57.6728 96.4877 74.3138 96.491L74.3149 91.291ZM6.72742 76.2548L9.99167 80.3026L28.3182 65.5237L25.054 61.4759L21.7897 57.4281L3.46317 72.207L6.72742 76.2548ZM25.7752 60.2231L30.9148 61.0138L37.5889 17.6315L32.4493 16.8408L27.3098 16.0501L20.6357 59.4324L25.7752 60.2231ZM32.4493 16.8408L37.5857 17.6518C37.5231 18.0486 37.3678 17.811 38.2329 17.1129C39.1132 16.4025 40.7751 15.4567 43.6524 14.5318C49.4111 12.6807 59.0561 11.2204 74.2542 11.2L74.2472 6L74.2402 0.800005C58.5581 0.821079 47.6946 2.30835 40.4697 4.63079C36.8551 5.79269 33.9064 7.24024 31.7015 9.01963C29.4812 10.8114 27.7661 13.1602 27.313 16.0298L32.4493 16.8408ZM74.2472 6V11.2H74.5773V6V0.8H74.2472V6ZM25.054 61.4759L28.3182 65.5237C29.7157 64.3967 30.6418 62.7882 30.9148 61.0138L25.7752 60.2231L20.6357 59.4324C20.757 58.6438 21.1686 57.9289 21.7897 57.4281L25.054 61.4759ZM6.3319 78.729L10.4991 75.6186C11.846 77.4232 11.0566 79.4438 9.99167 80.3026L6.72742 76.2548L3.46317 72.207C0.879334 74.2907 -0.349376 78.4712 2.16474 81.8394L6.3319 78.729ZM74.316 91.2915L77.993 87.6145C77.0071 86.6286 75.68 86.0913 74.3159 86.091L74.3149 91.291L74.3138 96.491C72.9507 96.4907 71.6244 95.9537 70.6391 94.9685L74.316 91.2915ZM74.5079 91.2915H69.3079C69.3079 88.4203 71.6358 86.0911 74.5091 86.092L74.5075 91.292L74.5058 96.492C77.3796 96.4929 79.7079 94.1633 79.7079 91.2915H74.5079ZM74.5084 91.291L74.5074 86.091C71.6536 86.0916 69.3079 88.4019 69.3079 91.2915H74.5079H79.7079C79.7079 94.1806 77.3627 96.4905 74.5095 96.491L74.5084 91.291ZM142.097 76.2548L138.833 80.3026C137.768 79.4438 136.978 77.4232 138.325 75.6186L142.493 78.729L146.66 81.8394C149.174 78.4712 147.945 74.2907 145.361 72.207L142.097 76.2548ZM74.3172 91.292L74.3149 86.092C75.696 86.0914 77.0187 86.6402 77.993 87.6145L74.316 91.2915L70.6391 94.9685C71.614 95.9434 72.9375 96.4926 74.3195 96.492L74.3172 91.292ZM123.049 60.2231L117.91 61.0138C118.183 62.7882 119.109 64.3967 120.506 65.5237L123.771 61.4759L127.035 57.4281C127.656 57.9289 128.067 58.6438 128.189 59.4324L123.049 60.2231Z" fill="#181651" mask="url(#path-1-outside-1_876_1063)"/>
</svg>
