<svg width="754" height="637" viewBox="0 0 754 637" fill="none" xmlns="http://www.w3.org/2000/svg">
<g clip-path="url(#clip0_885_1723)">
<rect x="7.96706" y="351.223" width="313.24" height="82.4315" transform="rotate(-13.0228 7.96706 351.223)" fill="#EBE4CE" stroke="#181651" stroke-width="13.189"/>
<rect x="447.317" y="260.01" width="313.24" height="82.4315" transform="rotate(17.639 447.317 260.01)" fill="#EBE4CE" stroke="#181651" stroke-width="13.189"/>
<path d="M389.986 7.40527C406.866 7.40538 420.55 21.0897 420.55 37.9697C420.55 52.5852 410.291 64.8019 396.581 67.8174V68.5332H383.392V67.8174C369.682 64.8021 359.422 52.5854 359.422 37.9697C359.422 21.0897 373.106 7.40527 389.986 7.40527ZM389.986 32.8584C387.163 32.8584 384.875 35.1467 384.875 37.9697C384.875 40.7927 387.163 43.0811 389.986 43.0811C392.809 43.081 395.098 40.7926 395.098 37.9697C395.098 35.1468 392.809 32.8585 389.986 32.8584Z" fill="#EBE4CE" stroke="#181651" stroke-width="13.189"/>
<path d="M475.274 56.9358L538.384 328.888H242.415L303.954 56.9358H475.274Z" fill="#EBE4CE" stroke="#181651" stroke-width="13.189"/>
<path d="M366.017 221.221V221.221C376.836 238.171 401.59 238.171 412.409 221.221V221.221" stroke="#181651" stroke-width="11.5404"/>
<mask id="mask0_885_1723" style="mask-type:alpha" maskUnits="userSpaceOnUse" x="316" y="105" width="74" height="105">
<path d="M352.914 111.187C360.642 111.187 368.221 115.64 374.104 124.019C379.976 132.381 383.79 144.239 383.79 157.609C383.79 170.979 379.976 182.837 374.104 191.199C368.221 199.578 360.642 204.031 352.914 204.031C345.187 204.031 337.608 199.578 331.725 191.199C325.853 182.837 322.039 170.979 322.039 157.609C322.039 144.239 325.853 132.381 331.725 124.019C337.608 115.64 345.186 111.187 352.914 111.187Z" fill="#D9D9D9" stroke="black" stroke-width="11.5404"/>
</mask>
<g mask="url(#mask0_885_1723)">
<path d="M352.914 111.187C360.642 111.187 368.221 115.64 374.104 124.019C379.976 132.381 383.79 144.239 383.79 157.609C383.79 170.979 379.976 182.837 374.104 191.199C368.221 199.578 360.642 204.031 352.914 204.031C345.187 204.031 337.608 199.578 331.725 191.199C325.853 182.837 322.039 170.979 322.039 157.609C322.039 144.239 325.853 132.381 331.725 124.019C337.608 115.64 345.186 111.187 352.914 111.187Z" fill="#FDFCFA" stroke="#181651" stroke-width="11.5404"/>
</g>
<mask id="mask1_885_1723" style="mask-type:alpha" maskUnits="userSpaceOnUse" x="389" y="105" width="74" height="105">
<path d="M425.702 111.187C433.429 111.187 441.009 115.64 446.892 124.019C452.763 132.381 456.578 144.239 456.578 157.609C456.578 170.979 452.763 182.837 446.892 191.199C441.009 199.578 433.429 204.031 425.702 204.031C417.974 204.031 410.395 199.578 404.512 191.199C398.641 182.837 394.827 170.979 394.827 157.609C394.827 144.239 398.641 132.381 404.512 124.019C410.395 115.64 417.974 111.187 425.702 111.187Z" fill="#D9D9D9" stroke="black" stroke-width="11.5404"/>
</mask>
<g mask="url(#mask1_885_1723)">
<path d="M425.702 111.187C433.429 111.187 441.009 115.64 446.892 124.019C452.763 132.381 456.578 144.239 456.578 157.609C456.578 170.979 452.763 182.837 446.892 191.199C441.009 199.578 433.429 204.031 425.702 204.031C417.974 204.031 410.395 199.578 404.512 191.199C398.641 182.837 394.827 170.979 394.827 157.609C394.827 144.239 398.641 132.381 404.512 124.019C410.395 115.64 417.974 111.187 425.702 111.187Z" fill="#FDFCFA" stroke="#181651" stroke-width="11.5404"/>
</g>
<mask id="path-10-outside-1_885_1723" maskUnits="userSpaceOnUse" x="99.46" y="272.024" width="581" height="379" fill="black">
<rect fill="white" x="99.46" y="272.024" width="581" height="379"/>
<path d="M662.804 318.568L632.804 414.019L526.185 385.415L553.948 637.182H224.314L252.079 385.415L135.46 414.019L115.46 309.265L256.64 286.024C294.79 306.837 380.33 309.075 389.131 309.251C397.923 309.075 483.47 306.838 521.623 286.024L662.804 318.568Z"/>
</mask>
<path d="M662.804 318.568L632.804 414.019L526.185 385.415L553.948 637.182H224.314L252.079 385.415L135.46 414.019L115.46 309.265L256.64 286.024C294.79 306.837 380.33 309.075 389.131 309.251C397.923 309.075 483.47 306.838 521.623 286.024L662.804 318.568Z" fill="#05CC75"/>
<path d="M662.804 318.568L675.386 322.522L679.661 308.919L665.766 305.716L662.804 318.568ZM632.804 414.019L629.386 426.758L641.596 430.033L645.386 417.974L632.804 414.019ZM526.185 385.415L529.602 372.676L510.959 367.674L513.075 386.86L526.185 385.415ZM553.948 637.182V650.371H568.672L567.058 635.736L553.948 637.182ZM224.314 637.182L211.205 635.736L209.591 650.371H224.314V637.182ZM252.079 385.415L265.189 386.86L267.256 368.112L248.937 372.605L252.079 385.415ZM135.46 414.019L122.505 416.492L125.11 430.138L138.602 426.828L135.46 414.019ZM115.46 309.265L113.318 296.251L99.9676 298.449L102.505 311.739L115.46 309.265ZM256.64 286.024L262.956 274.446L258.974 272.273L254.497 273.01L256.64 286.024ZM389.131 309.251L388.866 322.438L389.131 322.443L389.395 322.438L389.131 309.251ZM521.623 286.024L524.586 273.172L519.704 272.047L515.307 274.446L521.623 286.024ZM662.804 318.568L650.221 314.613L620.221 410.064L632.804 414.019L645.386 417.974L675.386 322.522L662.804 318.568ZM632.804 414.019L636.221 401.28L529.602 372.676L526.185 385.415L522.767 398.153L629.386 426.758L632.804 414.019ZM526.185 385.415L513.075 386.86L540.839 638.628L553.948 637.182L567.058 635.736L539.294 383.969L526.185 385.415ZM553.948 637.182V623.993H224.314V637.182V650.371H553.948V637.182ZM224.314 637.182L237.424 638.628L265.189 386.86L252.079 385.415L238.97 383.969L211.205 635.736L224.314 637.182ZM252.079 385.415L248.937 372.605L132.318 401.21L135.46 414.019L138.602 426.828L255.221 398.224L252.079 385.415ZM135.46 414.019L148.415 411.546L128.415 306.792L115.46 309.265L102.505 311.739L122.505 416.492L135.46 414.019ZM115.46 309.265L117.602 322.279L258.782 299.038L256.64 286.024L254.497 273.01L113.318 296.251L115.46 309.265ZM256.64 286.024L250.323 297.602C271.877 309.36 305.137 315.297 332.361 318.476C360.211 321.729 384.268 322.346 388.866 322.438L389.131 309.251L389.396 296.065C385.193 295.981 362.079 295.39 335.422 292.276C308.138 289.09 279.553 283.5 262.956 274.446L256.64 286.024ZM389.131 309.251L389.395 322.438C393.99 322.346 418.046 321.729 445.897 318.477C473.122 315.297 506.385 309.361 527.939 297.602L521.623 286.024L515.307 274.446C498.708 283.501 470.122 289.09 442.837 292.277C416.178 295.39 393.064 295.981 388.866 296.065L389.131 309.251ZM521.623 286.024L518.66 298.876L659.841 331.42L662.804 318.568L665.766 305.716L524.586 273.172L521.623 286.024Z" fill="#181651" mask="url(#path-10-outside-1_885_1723)"/>
</g>
<defs>
<clipPath id="clip0_885_1723">
<rect width="754" height="637" fill="white"/>
</clipPath>
</defs>
</svg>
