<svg width="164" height="114" viewBox="0 0 164 114" fill="none" xmlns="http://www.w3.org/2000/svg">
<mask id="path-1-outside-1_42_544" maskUnits="userSpaceOnUse" x="0" y="0" width="164" height="114" fill="black">
<rect fill="white" width="164" height="114"/>
<path d="M82 6C123.974 6 158 40.0264 158 82V107.333H120V107.334H49.9609V107.333H6V82C6 40.0264 40.0264 6 82 6ZM82.001 73.0586C69.3844 73.0586 58.8607 82.0183 56.4443 93.9219H107.557C105.14 82.0184 94.6174 73.0588 82.001 73.0586Z"/>
</mask>
<path d="M82 6C123.974 6 158 40.0264 158 82V107.333H120V107.334H49.9609V107.333H6V82C6 40.0264 40.0264 6 82 6ZM82.001 73.0586C69.3844 73.0586 58.8607 82.0183 56.4443 93.9219H107.557C105.14 82.0184 94.6174 73.0588 82.001 73.0586Z" fill="#F07508"/>
<path d="M82 6L82 0L82 0L82 6ZM158 107.333V113.333H164V107.333H158ZM120 107.333V101.333H114V107.333H120ZM120 107.334V113.334H126V107.334H120ZM49.9609 107.334H43.9609V113.334H49.9609V107.334ZM49.9609 107.333H55.9609V101.333H49.9609V107.333ZM6 107.333H0V113.333H6V107.333ZM6 82L0 82V82H6ZM82.001 73.0586L82.0011 67.0586H82.001V73.0586ZM56.4443 93.9219L50.5643 92.7282L49.104 99.9219H56.4443V93.9219ZM107.557 93.9219V99.9219H114.897L113.437 92.7283L107.557 93.9219ZM82 6V12C120.66 12 152 43.3401 152 82H158H164C164 36.7127 127.287 0 82 0V6ZM158 82H152V107.333H158H164V82H158ZM158 107.333V101.333H120V107.333V113.333H158V107.333ZM120 107.333H114V107.334H120H126V107.333H120ZM120 107.334V101.334H49.9609V107.334V113.334H120V107.334ZM49.9609 107.334H55.9609V107.333H49.9609H43.9609V107.334H49.9609ZM49.9609 107.333V101.333H6V107.333V113.333H49.9609V107.333ZM6 107.333H12V82H6H0V107.333H6ZM6 82L12 82C12 43.3401 43.3401 12 82 12L82 6L82 0C36.7127 9.03668e-07 4.30743e-06 36.7127 0 82L6 82ZM82.001 73.0586V67.0586C66.4745 67.0586 53.537 78.0837 50.5643 92.7282L56.4443 93.9219L62.3244 95.1155C64.1844 85.9529 72.2944 79.0586 82.001 79.0586V73.0586ZM56.4443 93.9219V99.9219H107.557V93.9219V87.9219H56.4443V93.9219ZM107.557 93.9219L113.437 92.7283C110.464 78.084 97.5275 67.0588 82.0011 67.0586L82.001 73.0586L82.0009 79.0586C91.7072 79.0587 99.8167 85.9528 101.677 95.1154L107.557 93.9219Z" fill="#181651" mask="url(#path-1-outside-1_42_544)"/>
</svg>
