<svg width="74" height="105" viewBox="0 0 74 105" fill="none" xmlns="http://www.w3.org/2000/svg">
<mask id="mask0_899_649" style="mask-type:alpha" maskUnits="userSpaceOnUse" x="0" y="0" width="74" height="105">
<path d="M36.6455 5.77051C44.3732 5.77051 51.9527 10.2234 57.8359 18.6025C63.7071 26.9646 67.5215 38.8224 67.5215 52.1924C67.5215 65.5624 63.7071 77.4202 57.8359 85.7822C51.9527 94.1613 44.3732 98.6143 36.6455 98.6143C28.918 98.6142 21.3392 94.1611 15.4561 85.7822C9.58486 77.4202 5.77052 65.5624 5.77051 52.1924C5.77051 38.8223 9.58484 26.9646 15.4561 18.6025C21.3392 10.2236 28.9179 5.77056 36.6455 5.77051Z" fill="#D9D9D9" stroke="black" stroke-width="11.5404"/>
</mask>
<g mask="url(#mask0_899_649)">
<path d="M36.6455 5.77051C44.3732 5.77051 51.9527 10.2234 57.8359 18.6025C63.7071 26.9646 67.5215 38.8224 67.5215 52.1924C67.5215 65.5624 63.7071 77.4202 57.8359 85.7822C51.9527 94.1613 44.3732 98.6143 36.6455 98.6143C28.918 98.6142 21.3392 94.1611 15.4561 85.7822C9.58486 77.4202 5.77052 65.5624 5.77051 52.1924C5.77051 38.8223 9.58484 26.9646 15.4561 18.6025C21.3392 10.2236 28.9179 5.77056 36.6455 5.77051Z" fill="#FDFCFA" stroke="#181651" stroke-width="11.5404"/>
</g>
</svg>
