<svg width="180" height="96" viewBox="0 0 180 96" fill="none" xmlns="http://www.w3.org/2000/svg">
<path d="M90.0002 7.76543C96.5035 7.69524 110.552 1.71484 118.705 3.25273C138.921 7.0663 138.921 48.4145 138.921 69.9227C144.011 69.7786 156.428 68.8452 165.374 66.2644C172.084 64.3292 176.701 67.8419 176.987 70.7811C177.491 75.9426 163.223 92.9324 131.394 92.9324L90.1144 92.9334V92.9344L90.0002 92.9334L89.8859 92.9344V92.9334L48.6066 92.9324C16.7773 92.9323 2.5093 75.9426 3.01286 70.7811C3.29969 67.8419 7.91718 64.3289 14.6271 66.2644C23.5736 68.8451 35.9892 69.7786 41.0793 69.9227C41.0793 48.4143 41.0801 7.0659 61.2961 3.25273C69.4493 1.7151 83.4968 7.69509 90.0002 7.76543Z" fill="#F07508"/>
<path d="M90.0002 7.76543L89.972 10.3653L90.0001 10.3656L90.0282 10.3653L90.0002 7.76543ZM118.705 3.25273L119.187 0.697794L119.187 0.697783L118.705 3.25273ZM138.921 69.9227L136.321 69.9227L136.321 72.5973L138.995 72.5216L138.921 69.9227ZM165.374 66.2644L164.654 63.7663L164.654 63.7663L165.374 66.2644ZM176.987 70.7811L179.575 70.5286L179.575 70.5285L176.987 70.7811ZM131.394 92.9324L131.394 90.3324L131.394 90.3324L131.394 92.9324ZM90.1144 92.9334L90.1144 90.3334L87.5144 90.3335V92.9334H90.1144ZM90.1144 92.9344L90.0922 95.5343L92.7144 95.5567V92.9344H90.1144ZM90.0002 92.9334L90.0224 90.3335L90.0002 90.3333L89.9779 90.3335L90.0002 92.9334ZM89.8859 92.9344H87.2859V95.5567L89.9081 95.5343L89.8859 92.9344ZM89.8859 92.9334H92.4859V90.3335L89.886 90.3334L89.8859 92.9334ZM48.6066 92.9324L48.6067 90.3324L48.6066 90.3324L48.6066 92.9324ZM3.01286 70.7811L0.425154 70.5285L0.425147 70.5286L3.01286 70.7811ZM14.6271 66.2644L13.9065 68.7626L13.9065 68.7626L14.6271 66.2644ZM41.0793 69.9227L41.0057 72.5216L43.6793 72.5973L43.6793 69.9227L41.0793 69.9227ZM61.2961 3.25273L60.8142 0.697769L60.8141 0.697783L61.2961 3.25273ZM90.0002 7.76543L90.0282 10.3653C91.9623 10.3444 94.3014 9.89591 96.6692 9.34736C99.0312 8.80016 101.78 8.06277 104.354 7.43111C109.795 6.09575 114.792 5.1604 118.223 5.80768L118.705 3.25273L119.187 0.697783C114.465 -0.192831 108.362 1.09308 103.114 2.38099C100.344 3.06096 97.8515 3.73572 95.4956 4.28153C93.1454 4.82598 91.2897 5.15136 89.9721 5.16558L90.0002 7.76543ZM118.705 3.25273L118.223 5.80767C122.329 6.58224 125.57 9.26042 128.162 13.5896C130.778 17.9597 132.6 23.8152 133.838 30.4305C136.313 43.6547 136.321 59.1232 136.321 69.9227L138.921 69.9227L141.521 69.9227C141.521 59.2139 141.529 43.2542 138.95 29.4739C137.661 22.587 135.693 16.0461 132.623 10.9187C129.529 5.75044 125.189 1.83 119.187 0.697794L118.705 3.25273ZM138.921 69.9227L138.995 72.5216C144.156 72.3756 156.832 71.4347 166.095 68.7626L165.374 66.2644L164.654 63.7663C156.024 66.2557 143.866 67.1817 138.848 67.3237L138.921 69.9227ZM165.374 66.2644L166.095 68.7626C168.88 67.9593 171.038 68.3332 172.436 69.0252C173.954 69.7758 174.371 70.7415 174.4 71.0336L176.987 70.7811L179.575 70.5285C179.317 67.8815 177.283 65.6212 174.742 64.3644C172.084 63.0491 168.578 62.6343 164.654 63.7663L165.374 66.2644ZM176.987 70.7811L174.4 71.0335C174.4 71.0313 174.402 71.0561 174.398 71.1122C174.394 71.168 174.384 71.2476 174.362 71.3524C174.318 71.5651 174.232 71.8497 174.083 72.2048C173.782 72.9188 173.265 73.8177 172.483 74.8454C170.922 76.8971 168.421 79.3094 164.893 81.6162C157.859 86.2149 146.836 90.3324 131.394 90.3324L131.394 92.9324L131.394 95.5324C147.781 95.5324 159.806 91.155 167.738 85.9684C171.693 83.3825 174.654 80.5796 176.621 77.9941C177.603 76.7031 178.367 75.4279 178.874 74.2248C179.364 73.0633 179.697 71.7746 179.575 70.5286L176.987 70.7811ZM131.394 92.9324L131.394 90.3324L90.1144 90.3334L90.1144 92.9334L90.1145 95.5334L131.394 95.5324L131.394 92.9324ZM90.1144 92.9334H87.5144V92.9344H90.1144H92.7144V92.9334H90.1144ZM90.1144 92.9344L90.1366 90.3345L90.0224 90.3335L90.0002 92.9334L89.9779 95.5333L90.0922 95.5343L90.1144 92.9344ZM90.0002 92.9334L89.9779 90.3335L89.8637 90.3345L89.8859 92.9344L89.9081 95.5343L90.0224 95.5333L90.0002 92.9334ZM89.8859 92.9344H92.4859V92.9334H89.8859H87.2859V92.9344H89.8859ZM89.8859 92.9334L89.886 90.3334L48.6067 90.3324L48.6066 92.9324L48.6065 95.5324L89.8858 95.5334L89.8859 92.9334ZM48.6066 92.9324L48.6066 90.3324C33.1647 90.3324 22.1409 86.2148 15.1078 81.6162C11.5798 79.3094 9.07868 76.8971 7.51762 74.8454C6.73569 73.8177 6.21871 72.9188 5.91768 72.2047C5.76801 71.8497 5.68216 71.5651 5.63805 71.3524C5.61631 71.2476 5.60633 71.168 5.60231 71.1122C5.59828 71.0561 5.60079 71.0313 5.60058 71.0335L3.01286 70.7811L0.425147 70.5286C0.303582 71.7746 0.636414 73.0633 1.12611 74.2248C1.6333 75.4279 2.39707 76.7031 3.37928 77.994C5.34651 80.5796 8.30728 83.3825 12.262 85.9684C20.1943 91.155 32.2193 95.5324 48.6066 95.5324L48.6066 92.9324ZM3.01286 70.7811L5.60057 71.0336C5.62906 70.7416 6.04665 69.7758 7.56416 69.0252C8.96316 68.3331 11.1213 67.9592 13.9065 68.7626L14.6271 66.2644L15.3477 63.7663C11.423 62.6342 7.91742 63.0489 5.25849 64.3643C2.71807 65.621 0.683491 67.8813 0.425154 70.5285L3.01286 70.7811ZM14.6271 66.2644L13.9065 68.7626C23.1696 71.4346 35.8445 72.3756 41.0057 72.5216L41.0793 69.9227L41.1528 67.3237C36.1339 67.1817 23.9776 66.2556 15.3477 63.7663L14.6271 66.2644ZM41.0793 69.9227L43.6793 69.9227C43.6793 59.1231 43.6871 43.6546 46.1623 30.4303C47.4005 23.815 49.2231 17.9595 51.8394 13.5895C54.4311 9.26031 57.6719 6.58218 61.778 5.80768L61.2961 3.25273L60.8141 0.697783C54.8123 1.82987 50.4719 5.75023 47.3778 10.9185C44.3081 16.0458 42.3401 22.5867 41.051 29.4737C38.4718 43.254 38.4793 59.2138 38.4793 69.9227L41.0793 69.9227ZM61.2961 3.25273L61.7779 5.80769C65.2095 5.16052 70.2065 6.09585 75.6471 7.43115C78.2206 8.06279 80.9694 8.80014 83.3313 9.34733C85.699 9.89587 88.038 10.3444 89.972 10.3653L90.0002 7.76543L90.0283 5.16558C88.7106 5.15133 86.8549 4.82594 84.5049 4.2815C82.149 3.73571 79.6569 3.06098 76.8865 2.38103C71.6392 1.09316 65.5358 -0.192686 60.8142 0.697769L61.2961 3.25273Z" fill="#181651"/>
<rect x="38.6" y="55.3969" width="103.8" height="14.8" fill="#F07508" stroke="#181651" stroke-width="5.2"/>
</svg>
