<svg width="180" height="96" viewBox="0 0 180 96" fill="none" xmlns="http://www.w3.org/2000/svg">
<path d="M90.0002 7.76543C96.5036 7.69514 110.552 1.71486 118.705 3.25273C138.921 7.06643 138.921 48.4144 138.921 69.9227C144.011 69.7786 156.427 68.846 165.373 66.2654C172.083 64.3299 176.7 67.8419 176.987 70.7811C177.491 75.9426 163.223 92.9333 131.394 92.9334H90.1144V92.9344L90.0002 92.9334L89.8859 92.9344V92.9334H48.6066C16.7772 92.9333 2.5093 75.9426 3.01286 70.7811C3.29989 67.8419 7.91652 64.3301 14.6261 66.2654C23.5727 68.8462 35.9893 69.7786 41.0793 69.9227C41.0793 48.4144 41.0796 7.06635 61.2951 3.25273C69.4483 1.71485 83.4968 7.69518 90.0002 7.76543Z" fill="#DF271C"/>
<path d="M90.0002 7.76543L89.9721 10.3653L90.0002 10.3656L90.0283 10.3653L90.0002 7.76543ZM118.705 3.25273L119.187 0.697798L119.187 0.697783L118.705 3.25273ZM138.921 69.9227L136.321 69.9227L136.321 72.5973L138.995 72.5216L138.921 69.9227ZM165.373 66.2654L166.094 68.7636L166.094 68.7636L165.373 66.2654ZM176.987 70.7811L179.575 70.5286L179.575 70.5283L176.987 70.7811ZM131.394 92.9334L131.394 95.5334L131.394 95.5334L131.394 92.9334ZM90.1144 92.9334V90.3334H87.5144V92.9334H90.1144ZM90.1144 92.9344L90.0922 95.5343L92.7144 95.5567V92.9344H90.1144ZM90.0002 92.9334L90.0224 90.3335L90.0002 90.3333L89.9779 90.3335L90.0002 92.9334ZM89.8859 92.9344H87.2859V95.5567L89.9081 95.5343L89.8859 92.9344ZM89.8859 92.9334H92.4859V90.3334H89.8859V92.9334ZM48.6066 92.9334L48.6066 95.5334H48.6066V92.9334ZM3.01286 70.7811L0.425172 70.5283L0.425147 70.5286L3.01286 70.7811ZM14.6261 66.2654L15.3468 63.7673L15.3467 63.7673L14.6261 66.2654ZM41.0793 69.9227L41.0057 72.5216L43.6793 72.5973L43.6793 69.9227L41.0793 69.9227ZM61.2951 3.25273L60.8132 0.697783L60.8131 0.697795L61.2951 3.25273ZM90.0002 7.76543L90.0283 10.3653C91.9623 10.3444 94.3014 9.89587 96.6692 9.34732C99.0312 8.80012 101.78 8.06273 104.354 7.43108C109.795 6.09574 114.792 5.16041 118.223 5.80768L118.705 3.25273L119.187 0.697783C114.466 -0.192823 108.362 1.09305 103.114 2.38095C100.344 3.06093 97.8516 3.73567 95.4956 4.28149C93.1455 4.82595 91.2897 5.15134 89.9721 5.16558L90.0002 7.76543ZM118.705 3.25273L118.223 5.80766C122.329 6.58227 125.57 9.26045 128.162 13.5897C130.778 17.9598 132.6 23.8152 133.838 30.4306C136.313 43.6548 136.321 59.1232 136.321 69.9227L138.921 69.9227L141.521 69.9227C141.521 59.2139 141.529 43.2542 138.95 29.474C137.661 22.587 135.693 16.0461 132.623 10.9187C129.529 5.7505 125.189 1.83005 119.187 0.697798L118.705 3.25273ZM138.921 69.9227L138.995 72.5216C144.155 72.3756 156.831 71.4355 166.094 68.7636L165.373 66.2654L164.653 63.7673C156.023 66.2565 143.866 67.1817 138.848 67.3237L138.921 69.9227ZM165.373 66.2654L166.094 68.7636C168.879 67.9601 171.037 68.3339 172.436 69.0258C173.954 69.7763 174.371 70.7418 174.4 71.0338L176.987 70.7811L179.575 70.5283C179.317 67.8811 177.282 65.6211 174.741 64.3647C172.083 63.0497 168.577 62.6352 164.653 63.7673L165.373 66.2654ZM176.987 70.7811L174.4 71.0335C174.4 71.0313 174.402 71.0561 174.398 71.1122C174.394 71.168 174.384 71.2476 174.362 71.3524C174.318 71.5651 174.232 71.8498 174.083 72.2048C173.782 72.9189 173.265 73.8178 172.483 74.8456C170.922 76.8974 168.42 79.3098 164.893 81.6167C157.859 86.2156 146.836 90.3334 131.394 90.3334L131.394 92.9334L131.394 95.5334C147.781 95.5334 159.806 91.1557 167.738 85.9688C171.693 83.3829 174.654 80.5798 176.621 77.9942C177.603 76.7032 178.367 75.4279 178.874 74.2249C179.364 73.0633 179.697 71.7746 179.575 70.5286L176.987 70.7811ZM131.394 92.9334V90.3334H90.1144V92.9334V95.5334H131.394V92.9334ZM90.1144 92.9334H87.5144V92.9344H90.1144H92.7144V92.9334H90.1144ZM90.1144 92.9344L90.1366 90.3345L90.0224 90.3335L90.0002 92.9334L89.9779 95.5333L90.0922 95.5343L90.1144 92.9344ZM90.0002 92.9334L89.9779 90.3335L89.8637 90.3345L89.8859 92.9344L89.9081 95.5343L90.0224 95.5333L90.0002 92.9334ZM89.8859 92.9344H92.4859V92.9334H89.8859H87.2859V92.9344H89.8859ZM89.8859 92.9334V90.3334H48.6066V92.9334V95.5334H89.8859V92.9334ZM48.6066 92.9334L48.6066 90.3334C33.1646 90.3334 22.1409 86.2156 15.1078 81.6167C11.5798 79.3098 9.0787 76.8974 7.51764 74.8456C6.73571 73.8178 6.21873 72.9189 5.91769 72.2048C5.76802 71.8498 5.68216 71.5651 5.63805 71.3524C5.61631 71.2476 5.60633 71.168 5.60231 71.1122C5.59828 71.0561 5.60079 71.0313 5.60058 71.0335L3.01286 70.7811L0.425147 70.5286C0.303584 71.7746 0.636407 73.0633 1.12609 74.2249C1.63327 75.4279 2.39702 76.7032 3.37923 77.9942C5.34644 80.5798 8.30719 83.3829 12.262 85.9689C20.1942 91.1557 32.2192 95.5334 48.6066 95.5334L48.6066 92.9334ZM3.01286 70.7811L5.60055 71.0338C5.62907 70.7417 6.04659 69.7762 7.56372 69.0258C8.96246 68.334 11.1204 67.9602 13.9056 68.7636L14.6261 66.2654L15.3467 63.7673C11.4223 62.6353 7.91708 63.0498 5.25834 64.3648C2.71799 65.6213 0.683678 67.8813 0.425172 70.5283L3.01286 70.7811ZM14.6261 66.2654L13.9055 68.7636C23.1688 71.4357 35.8448 72.3756 41.0057 72.5216L41.0793 69.9227L41.1528 67.3237C36.1337 67.1817 23.9766 66.2567 15.3468 63.7673L14.6261 66.2654ZM41.0793 69.9227L43.6793 69.9227C43.6793 59.1232 43.687 43.6547 46.162 30.4305C47.4001 23.8152 49.2226 17.9597 51.8387 13.5897C54.4304 9.26043 57.6711 6.58225 61.7771 5.80766L61.2951 3.25273L60.8131 0.697795C54.8113 1.83002 50.4711 5.75046 47.3771 10.9187C44.3076 16.0461 42.3396 22.587 41.0507 29.4739C38.4717 43.2542 38.4793 59.2139 38.4793 69.9227L41.0793 69.9227ZM61.2951 3.25273L61.777 5.80768C65.2086 5.16041 70.2058 6.09574 75.6466 7.43109C78.2203 8.06275 80.9691 8.80013 83.3311 9.34734C85.6989 9.89589 88.038 10.3444 89.9721 10.3653L90.0002 7.76543L90.0282 5.16558C88.7106 5.15135 86.8549 4.82596 84.5047 4.2815C82.1488 3.7357 79.6566 3.06094 76.886 2.38097C71.6385 1.09306 65.5348 -0.192827 60.8132 0.697783L61.2951 3.25273Z" fill="#181651"/>
<rect x="38.6001" y="55.3969" width="103.8" height="14.8" fill="#DF271C" stroke="#181651" stroke-width="5.2"/>
</svg>
