<svg width="464" height="96" viewBox="0 0 464 96" fill="none" xmlns="http://www.w3.org/2000/svg">
<path d="M232 7.76543C238.504 7.69524 252.552 1.71484 260.705 3.25273C280.921 7.0663 280.921 48.4145 280.921 69.9227C286.011 69.7786 298.428 68.8452 307.374 66.2644C314.084 64.3292 318.701 67.8419 318.987 70.7811C319.491 75.9426 305.223 92.9324 273.394 92.9324L232.114 92.9334V92.9344L232 92.9334L231.886 92.9344V92.9334L190.607 92.9324C158.777 92.9323 144.509 75.9426 145.013 70.7811C145.3 67.8419 149.917 64.3289 156.627 66.2644C165.574 68.8451 177.989 69.7786 183.079 69.9227C183.079 48.4143 183.08 7.0659 203.296 3.25273C211.449 1.7151 225.497 7.69509 232 7.76543Z" fill="#DF271C"/>
<path d="M232 7.76543L231.972 10.3653L232 10.3656L232.028 10.3653L232 7.76543ZM260.705 3.25273L261.187 0.697794L261.187 0.697783L260.705 3.25273ZM280.921 69.9227L278.321 69.9227L278.321 72.5973L280.995 72.5216L280.921 69.9227ZM307.374 66.2644L306.654 63.7663L306.654 63.7663L307.374 66.2644ZM318.987 70.7811L321.575 70.5286L321.575 70.5285L318.987 70.7811ZM273.394 92.9324L273.394 90.3324L273.394 90.3324L273.394 92.9324ZM232.114 92.9334L232.114 90.3334L229.514 90.3335V92.9334H232.114ZM232.114 92.9344L232.092 95.5343L234.714 95.5567V92.9344H232.114ZM232 92.9334L232.022 90.3335L232 90.3333L231.978 90.3335L232 92.9334ZM231.886 92.9344H229.286V95.5567L231.908 95.5343L231.886 92.9344ZM231.886 92.9334H234.486V90.3335L231.886 90.3334L231.886 92.9334ZM190.607 92.9324L190.607 90.3324L190.607 90.3324L190.607 92.9324ZM145.013 70.7811L142.425 70.5285L142.425 70.5286L145.013 70.7811ZM156.627 66.2644L155.907 68.7626L155.907 68.7626L156.627 66.2644ZM183.079 69.9227L183.006 72.5216L185.679 72.5973L185.679 69.9227L183.079 69.9227ZM203.296 3.25273L202.814 0.697769L202.814 0.697783L203.296 3.25273ZM232 7.76543L232.028 10.3653C233.962 10.3444 236.301 9.89591 238.669 9.34736C241.031 8.80016 243.78 8.06277 246.354 7.43111C251.795 6.09575 256.792 5.1604 260.223 5.80768L260.705 3.25273L261.187 0.697783C256.465 -0.192831 250.362 1.09308 245.114 2.38099C242.344 3.06096 239.852 3.73572 237.496 4.28153C235.145 4.82598 233.29 5.15136 231.972 5.16558L232 7.76543ZM260.705 3.25273L260.223 5.80767C264.329 6.58224 267.57 9.26042 270.162 13.5896C272.778 17.9597 274.6 23.8152 275.838 30.4305C278.313 43.6547 278.321 59.1232 278.321 69.9227L280.921 69.9227L283.521 69.9227C283.521 59.2139 283.529 43.2542 280.95 29.4739C279.661 22.587 277.693 16.0461 274.623 10.9187C271.529 5.75044 267.189 1.83 261.187 0.697794L260.705 3.25273ZM280.921 69.9227L280.995 72.5216C286.156 72.3756 298.832 71.4347 308.095 68.7626L307.374 66.2644L306.654 63.7663C298.024 66.2557 285.866 67.1817 280.848 67.3237L280.921 69.9227ZM307.374 66.2644L308.095 68.7626C310.88 67.9593 313.038 68.3332 314.436 69.0252C315.954 69.7758 316.371 70.7415 316.4 71.0336L318.987 70.7811L321.575 70.5285C321.317 67.8815 319.283 65.6212 316.742 64.3644C314.084 63.0491 310.578 62.6343 306.654 63.7663L307.374 66.2644ZM318.987 70.7811L316.4 71.0335C316.4 71.0313 316.402 71.0561 316.398 71.1122C316.394 71.168 316.384 71.2476 316.362 71.3524C316.318 71.5651 316.232 71.8497 316.083 72.2048C315.782 72.9188 315.265 73.8177 314.483 74.8454C312.922 76.8971 310.421 79.3094 306.893 81.6162C299.859 86.2149 288.836 90.3324 273.394 90.3324L273.394 92.9324L273.394 95.5324C289.781 95.5324 301.806 91.155 309.738 85.9684C313.693 83.3825 316.654 80.5796 318.621 77.9941C319.603 76.7031 320.367 75.4279 320.874 74.2248C321.364 73.0633 321.697 71.7746 321.575 70.5286L318.987 70.7811ZM273.394 92.9324L273.394 90.3324L232.114 90.3334L232.114 92.9334L232.114 95.5334L273.394 95.5324L273.394 92.9324ZM232.114 92.9334H229.514V92.9344H232.114H234.714V92.9334H232.114ZM232.114 92.9344L232.137 90.3345L232.022 90.3335L232 92.9334L231.978 95.5333L232.092 95.5343L232.114 92.9344ZM232 92.9334L231.978 90.3335L231.864 90.3345L231.886 92.9344L231.908 95.5343L232.022 95.5333L232 92.9334ZM231.886 92.9344H234.486V92.9334H231.886H229.286V92.9344H231.886ZM231.886 92.9334L231.886 90.3334L190.607 90.3324L190.607 92.9324L190.607 95.5324L231.886 95.5334L231.886 92.9334ZM190.607 92.9324L190.607 90.3324C175.165 90.3324 164.141 86.2148 157.108 81.6162C153.58 79.3094 151.079 76.8971 149.518 74.8454C148.736 73.8177 148.219 72.9188 147.918 72.2047C147.768 71.8497 147.682 71.5651 147.638 71.3524C147.616 71.2476 147.606 71.168 147.602 71.1122C147.598 71.0561 147.601 71.0313 147.601 71.0335L145.013 70.7811L142.425 70.5286C142.304 71.7746 142.636 73.0633 143.126 74.2248C143.633 75.4279 144.397 76.7031 145.379 77.994C147.347 80.5796 150.307 83.3825 154.262 85.9684C162.194 91.155 174.219 95.5324 190.607 95.5324L190.607 92.9324ZM145.013 70.7811L147.601 71.0336C147.629 70.7416 148.047 69.7758 149.564 69.0252C150.963 68.3331 153.121 67.9592 155.907 68.7626L156.627 66.2644L157.348 63.7663C153.423 62.6342 149.917 63.0489 147.258 64.3643C144.718 65.621 142.683 67.8813 142.425 70.5285L145.013 70.7811ZM156.627 66.2644L155.907 68.7626C165.17 71.4346 177.845 72.3756 183.006 72.5216L183.079 69.9227L183.153 67.3237C178.134 67.1817 165.978 66.2556 157.348 63.7663L156.627 66.2644ZM183.079 69.9227L185.679 69.9227C185.679 59.1231 185.687 43.6546 188.162 30.4303C189.4 23.815 191.223 17.9595 193.839 13.5895C196.431 9.26031 199.672 6.58218 203.778 5.80768L203.296 3.25273L202.814 0.697783C196.812 1.82987 192.472 5.75023 189.378 10.9185C186.308 16.0458 184.34 22.5867 183.051 29.4737C180.472 43.254 180.479 59.2138 180.479 69.9227L183.079 69.9227ZM203.296 3.25273L203.778 5.80769C207.21 5.16052 212.206 6.09585 217.647 7.43115C220.221 8.06279 222.969 8.80014 225.331 9.34733C227.699 9.89587 230.038 10.3444 231.972 10.3653L232 7.76543L232.028 5.16558C230.711 5.15133 228.855 4.82594 226.505 4.2815C224.149 3.73571 221.657 3.06098 218.887 2.38103C213.639 1.09316 207.536 -0.192686 202.814 0.697769L203.296 3.25273Z" fill="#181651"/>
<rect x="180.6" y="55.3969" width="103.8" height="14.8" fill="#DF271C" stroke="#181651" stroke-width="5.2"/>
</svg>
