<svg width="755" height="637" viewBox="0 0 755 637" fill="none" xmlns="http://www.w3.org/2000/svg">
<g clip-path="url(#clip0_843_1084)">
<rect x="8.02321" y="351.223" width="313.24" height="82.4315" transform="rotate(-13.0228 8.02321 351.223)" fill="#EBE4CE" stroke="#181651" stroke-width="13.189"/>
<rect x="447.373" y="260.01" width="313.24" height="82.4315" transform="rotate(17.639 447.373 260.01)" fill="#EBE4CE" stroke="#181651" stroke-width="13.189"/>
<path d="M390.042 7.40527C406.922 7.40538 420.606 21.0897 420.606 37.9697C420.606 52.5852 410.347 64.8019 396.637 67.8174V68.5332H383.448V67.8174C369.738 64.8021 359.478 52.5854 359.478 37.9697C359.478 21.0897 373.162 7.40527 390.042 7.40527ZM390.042 32.8584C387.219 32.8584 384.931 35.1467 384.931 37.9697C384.931 40.7927 387.22 43.0811 390.042 43.0811C392.865 43.081 395.154 40.7926 395.154 37.9697C395.154 35.1468 392.865 32.8585 390.042 32.8584Z" fill="#EBE4CE" stroke="#181651" stroke-width="13.189"/>
<path d="M475.33 56.9358L538.44 328.888H242.471L304.01 56.9358H475.33Z" fill="#EBE4CE" stroke="#181651" stroke-width="13.189"/>
<path d="M366.073 221.221V221.221C376.892 238.171 401.646 238.171 412.465 221.221V221.221" stroke="#181651" stroke-width="11.5404"/>
<mask id="mask0_843_1084" style="mask-type:alpha" maskUnits="userSpaceOnUse" x="316" y="105" width="74" height="105">
<path d="M352.97 111.187C360.698 111.187 368.277 115.64 374.161 124.019C380.032 132.381 383.846 144.239 383.846 157.609C383.846 170.979 380.032 182.837 374.161 191.199C368.277 199.578 360.698 204.031 352.97 204.031C345.243 204.031 337.664 199.578 331.781 191.199C325.91 182.837 322.095 170.979 322.095 157.609C322.095 144.239 325.91 132.381 331.781 124.019C337.664 115.64 345.243 111.187 352.97 111.187Z" fill="#D9D9D9" stroke="black" stroke-width="11.5404"/>
</mask>
<g mask="url(#mask0_843_1084)">
<path d="M352.97 111.187C360.698 111.187 368.277 115.64 374.161 124.019C380.032 132.381 383.846 144.239 383.846 157.609C383.846 170.979 380.032 182.837 374.161 191.199C368.277 199.578 360.698 204.031 352.97 204.031C345.243 204.031 337.664 199.578 331.781 191.199C325.91 182.837 322.095 170.979 322.095 157.609C322.095 144.239 325.91 132.381 331.781 124.019C337.664 115.64 345.243 111.187 352.97 111.187Z" fill="#FDFCFA" stroke="#181651" stroke-width="11.5404"/>
<mask id="path-8-inside-1_843_1084" fill="white">
<path d="M353.651 155.411C335.866 155.411 321.447 176.044 321.447 201.496C321.447 226.948 335.866 247.58 353.651 247.58C371.437 247.58 385.854 226.948 385.854 201.496C385.854 197.693 385.531 193.997 384.924 190.461L359.948 183.006L378.976 173.024C373.079 162.299 363.927 155.412 353.651 155.411Z"/>
</mask>
<path d="M353.651 155.411C335.866 155.411 321.447 176.044 321.447 201.496C321.447 226.948 335.866 247.58 353.651 247.58C371.437 247.58 385.854 226.948 385.854 201.496C385.854 197.693 385.531 193.997 384.924 190.461L359.948 183.006L378.976 173.024C373.079 162.299 363.927 155.412 353.651 155.411Z" fill="#181651"/>
<path d="M353.651 155.411V143.871H353.652L353.651 155.411ZM321.447 201.496L309.907 201.496V201.496H321.447ZM353.651 247.58L353.652 259.121H353.651V247.58ZM385.854 201.496H397.395V201.496L385.854 201.496ZM384.924 190.461L388.225 179.403L395.086 181.451L396.298 188.508L384.924 190.461ZM359.948 183.006L356.647 194.064L329.484 185.956L354.587 172.787L359.948 183.006ZM378.976 173.024L389.088 167.464L394.758 177.776L384.337 183.243L378.976 173.024ZM353.651 155.411V166.952C349.567 166.952 344.681 169.306 340.339 175.52C336.024 181.695 332.988 190.844 332.988 201.496H321.447H309.907C309.907 186.697 314.08 172.803 321.42 162.299C328.734 151.833 339.95 143.871 353.651 143.871V155.411ZM321.447 201.496L332.988 201.496C332.988 212.149 336.024 221.297 340.339 227.472C344.681 233.685 349.567 236.04 353.651 236.04V247.58V259.121C339.95 259.121 328.734 251.159 321.42 240.693C314.08 230.19 309.907 216.295 309.907 201.496L321.447 201.496ZM353.651 247.58L353.651 236.04C357.736 236.04 362.621 233.685 366.963 227.472C371.278 221.297 374.314 212.149 374.314 201.496L385.854 201.496L397.395 201.496C397.395 216.295 393.222 230.189 385.882 240.693C378.569 251.159 367.353 259.12 353.652 259.121L353.651 247.58ZM385.854 201.496H374.314C374.314 198.346 374.046 195.303 373.55 192.414L384.924 190.461L396.298 188.508C397.016 192.69 397.395 197.04 397.395 201.496H385.854ZM384.924 190.461L381.623 201.519L356.647 194.064L359.948 183.006L363.249 171.948L388.225 179.403L384.924 190.461ZM359.948 183.006L354.587 172.787L373.614 162.804L378.976 173.024L384.337 183.243L365.31 193.225L359.948 183.006ZM378.976 173.024L368.863 178.583C364.223 170.144 358.328 166.952 353.651 166.952L353.651 155.411L353.652 143.871C369.526 143.871 381.936 154.453 389.088 167.464L378.976 173.024Z" fill="#181651" mask="url(#path-8-inside-1_843_1084)"/>
</g>
<mask id="mask1_843_1084" style="mask-type:alpha" maskUnits="userSpaceOnUse" x="389" y="105" width="74" height="105">
<path d="M425.758 111.187C433.485 111.187 441.065 115.64 446.948 124.019C452.819 132.381 456.634 144.239 456.634 157.609C456.634 170.979 452.819 182.837 446.948 191.199C441.065 199.578 433.485 204.031 425.758 204.031C418.03 204.031 410.451 199.578 404.568 191.199C398.697 182.837 394.883 170.979 394.883 157.609C394.883 144.239 398.697 132.381 404.568 124.019C410.452 115.64 418.03 111.187 425.758 111.187Z" fill="#D9D9D9" stroke="black" stroke-width="11.5404"/>
</mask>
<g mask="url(#mask1_843_1084)">
<path d="M425.758 111.187C433.485 111.187 441.065 115.64 446.948 124.019C452.819 132.381 456.634 144.239 456.634 157.609C456.634 170.979 452.819 182.837 446.948 191.199C441.065 199.578 433.485 204.031 425.758 204.031C418.03 204.031 410.451 199.578 404.568 191.199C398.697 182.837 394.883 170.979 394.883 157.609C394.883 144.239 398.697 132.381 404.568 124.019C410.452 115.64 418.03 111.187 425.758 111.187Z" fill="#FDFCFA" stroke="#181651" stroke-width="11.5404"/>
<mask id="path-12-inside-2_843_1084" fill="white">
<path d="M426.439 155.411C408.653 155.411 394.235 176.044 394.235 201.496C394.235 226.948 408.653 247.58 426.439 247.58C444.224 247.58 458.642 226.948 458.642 201.496C458.642 197.693 458.319 193.997 457.711 190.461L432.736 183.006L451.763 173.024C445.867 162.299 436.715 155.412 426.439 155.411Z"/>
</mask>
<path d="M426.439 155.411C408.653 155.411 394.235 176.044 394.235 201.496C394.235 226.948 408.653 247.58 426.439 247.58C444.224 247.58 458.642 226.948 458.642 201.496C458.642 197.693 458.319 193.997 457.711 190.461L432.736 183.006L451.763 173.024C445.867 162.299 436.715 155.412 426.439 155.411Z" fill="#181651"/>
<path d="M426.439 155.411V143.871H426.439L426.439 155.411ZM394.235 201.496L382.694 201.496V201.496H394.235ZM426.439 247.58L426.439 259.121H426.439V247.58ZM458.642 201.496H470.182V201.496L458.642 201.496ZM457.711 190.461L461.012 179.403L467.874 181.451L469.085 188.508L457.711 190.461ZM432.736 183.006L429.435 194.064L402.272 185.956L427.374 172.787L432.736 183.006ZM451.763 173.024L461.876 167.464L467.545 177.776L457.125 183.243L451.763 173.024ZM426.439 155.411V166.952C422.355 166.952 417.469 169.306 413.127 175.52C408.811 181.695 405.775 190.844 405.775 201.496H394.235H382.694C382.694 186.697 386.868 172.803 394.208 162.299C401.521 151.833 412.738 143.871 426.439 143.871V155.411ZM394.235 201.496L405.775 201.496C405.775 212.149 408.811 221.297 413.127 227.472C417.469 233.685 422.354 236.04 426.439 236.04V247.58V259.121C412.738 259.121 401.522 251.159 394.208 240.693C386.868 230.19 382.695 216.295 382.694 201.496L394.235 201.496ZM426.439 247.58L426.439 236.04C430.523 236.04 435.409 233.685 439.75 227.472C444.066 221.297 447.102 212.149 447.102 201.496L458.642 201.496L470.182 201.496C470.182 216.295 466.009 230.189 458.67 240.693C451.356 251.159 440.14 259.12 426.439 259.121L426.439 247.58ZM458.642 201.496H447.102C447.102 198.346 446.834 195.303 446.337 192.414L457.711 190.461L469.085 188.508C469.803 192.69 470.182 197.04 470.182 201.496H458.642ZM457.711 190.461L454.411 201.519L429.435 194.064L432.736 183.006L436.037 171.948L461.012 179.403L457.711 190.461ZM432.736 183.006L427.374 172.787L446.402 162.804L451.763 173.024L457.125 183.243L438.097 193.225L432.736 183.006ZM451.763 173.024L441.65 178.583C437.011 170.144 431.116 166.952 426.439 166.952L426.439 155.411L426.439 143.871C442.314 143.871 454.723 154.453 461.876 167.464L451.763 173.024Z" fill="#181651" mask="url(#path-12-inside-2_843_1084)"/>
</g>
<mask id="path-14-outside-3_843_1084" maskUnits="userSpaceOnUse" x="99.5161" y="272.024" width="581" height="379" fill="black">
<rect fill="white" x="99.5161" y="272.024" width="581" height="379"/>
<path d="M662.86 318.568L632.86 414.019L526.241 385.415L554.004 637.182H224.371L252.135 385.415L135.516 414.019L115.516 309.265L256.696 286.024C294.846 306.837 380.386 309.075 389.187 309.251C397.98 309.075 483.526 306.838 521.679 286.024L662.86 318.568Z"/>
</mask>
<path d="M662.86 318.568L632.86 414.019L526.241 385.415L554.004 637.182H224.371L252.135 385.415L135.516 414.019L115.516 309.265L256.696 286.024C294.846 306.837 380.386 309.075 389.187 309.251C397.98 309.075 483.526 306.838 521.679 286.024L662.86 318.568Z" fill="#05CC75"/>
<path d="M662.86 318.568L675.442 322.522L679.718 308.919L665.822 305.716L662.86 318.568ZM632.86 414.019L629.442 426.758L641.652 430.033L645.442 417.974L632.86 414.019ZM526.241 385.415L529.658 372.676L511.015 367.674L513.131 386.86L526.241 385.415ZM554.004 637.182V650.371H568.728L567.114 635.736L554.004 637.182ZM224.371 637.182L211.261 635.736L209.647 650.371H224.371V637.182ZM252.135 385.415L265.245 386.86L267.312 368.112L248.993 372.605L252.135 385.415ZM135.516 414.019L122.561 416.492L125.166 430.138L138.658 426.828L135.516 414.019ZM115.516 309.265L113.374 296.251L100.024 298.449L102.561 311.739L115.516 309.265ZM256.696 286.024L263.012 274.446L259.03 272.273L254.553 273.01L256.696 286.024ZM389.187 309.251L388.922 322.438L389.187 322.443L389.452 322.438L389.187 309.251ZM521.679 286.024L524.642 273.172L519.76 272.047L515.363 274.446L521.679 286.024ZM662.86 318.568L650.278 314.613L620.278 410.064L632.86 414.019L645.442 417.974L675.442 322.522L662.86 318.568ZM632.86 414.019L636.277 401.28L529.658 372.676L526.241 385.415L522.823 398.153L629.442 426.758L632.86 414.019ZM526.241 385.415L513.131 386.86L540.895 638.628L554.004 637.182L567.114 635.736L539.35 383.969L526.241 385.415ZM554.004 637.182V623.993H224.371V637.182V650.371H554.004V637.182ZM224.371 637.182L237.48 638.628L265.245 386.86L252.135 385.415L239.026 383.969L211.261 635.736L224.371 637.182ZM252.135 385.415L248.993 372.605L132.374 401.21L135.516 414.019L138.658 426.828L255.277 398.224L252.135 385.415ZM135.516 414.019L148.471 411.546L128.471 306.792L115.516 309.265L102.561 311.739L122.561 416.492L135.516 414.019ZM115.516 309.265L117.658 322.279L258.838 299.038L256.696 286.024L254.553 273.01L113.374 296.251L115.516 309.265ZM256.696 286.024L250.379 297.602C271.933 309.36 305.194 315.297 332.418 318.476C360.268 321.729 384.324 322.346 388.922 322.438L389.187 309.251L389.452 296.065C385.25 295.981 362.136 295.39 335.478 292.276C308.194 289.09 279.61 283.5 263.012 274.446L256.696 286.024ZM389.187 309.251L389.452 322.438C394.046 322.346 418.102 321.729 445.953 318.477C473.178 315.297 506.441 309.361 527.996 297.602L521.679 286.024L515.363 274.446C498.764 283.501 470.178 289.09 442.893 292.277C416.234 295.39 393.12 295.981 388.922 296.065L389.187 309.251ZM521.679 286.024L518.717 298.876L659.897 331.42L662.86 318.568L665.822 305.716L524.642 273.172L521.679 286.024Z" fill="#181651" mask="url(#path-14-outside-3_843_1084)"/>
</g>
<defs>
<clipPath id="clip0_843_1084">
<rect width="754" height="637" fill="white" transform="translate(0.0561523)"/>
</clipPath>
</defs>
</svg>
