<svg width="471" height="718" viewBox="0 0 471 718" fill="none" xmlns="http://www.w3.org/2000/svg">
<path d="M437.145 496.614L316.185 600.405L273.098 528.534L321.249 487.74L324.259 485.189L321.75 482.145L216.258 354.098L303.401 323.807L437.145 496.614Z" fill="#0059F7" stroke="#181651" stroke-width="8"/>
<mask id="path-2-inside-1_545_807" fill="white">
<path d="M233.95 547.167L234.047 547.321L205.095 565.566L278.839 682.582L311.747 661.844C320.677 656.216 323.355 644.414 317.727 635.484L295.662 600.471L312.825 589.655L271.24 523.667L233.95 547.167Z"/>
</mask>
<path d="M233.95 547.167L234.047 547.321L205.095 565.566L278.839 682.582L311.747 661.844C320.677 656.216 323.355 644.414 317.727 635.484L295.662 600.471L312.825 589.655L271.24 523.667L233.95 547.167Z" fill="#DF271C"/>
<path d="M233.95 547.167L227.182 551.432L222.917 544.664L229.685 540.399L233.95 547.167ZM234.047 547.321L240.815 543.055L245.081 549.824L238.313 554.089L234.047 547.321ZM205.095 565.566L198.327 569.832L194.062 563.063L200.83 558.798L205.095 565.566ZM278.839 682.582L283.104 689.351L276.336 693.616L272.071 686.848L278.839 682.582ZM311.747 661.844L316.012 668.612L311.747 661.844ZM317.727 635.484L324.495 631.219L324.495 631.219L317.727 635.484ZM295.662 600.471L288.894 604.736L284.628 597.968L291.397 593.703L295.662 600.471ZM312.825 589.655L319.593 585.39L323.858 592.158L317.09 596.423L312.825 589.655ZM271.24 523.667L266.974 516.899L273.742 512.634L278.008 519.402L271.24 523.667ZM233.95 547.167L240.719 542.902L240.815 543.055L234.047 547.321L227.279 551.586L227.182 551.432L233.95 547.167ZM234.047 547.321L238.313 554.089L209.361 572.334L205.095 565.566L200.83 558.798L229.782 540.553L234.047 547.321ZM205.095 565.566L211.863 561.301L285.607 678.317L278.839 682.582L272.071 686.848L198.327 569.832L205.095 565.566ZM278.839 682.582L274.574 675.814L307.481 655.076L311.747 661.844L316.012 668.612L283.104 689.351L278.839 682.582ZM311.747 661.844L307.481 655.076C312.674 651.803 314.231 644.941 310.959 639.749L317.727 635.484L324.495 631.219C332.479 643.888 328.68 660.629 316.012 668.612L311.747 661.844ZM317.727 635.484L310.959 639.749L288.894 604.736L295.662 600.471L302.43 596.206L324.495 631.219L317.727 635.484ZM295.662 600.471L291.397 593.703L308.56 582.887L312.825 589.655L317.09 596.423L299.927 607.239L295.662 600.471ZM312.825 589.655L306.057 593.92L264.471 527.933L271.24 523.667L278.008 519.402L319.593 585.39L312.825 589.655ZM271.24 523.667L275.505 530.436L238.216 553.935L233.95 547.167L229.685 540.399L266.974 516.899L271.24 523.667Z" fill="#181651" mask="url(#path-2-inside-1_545_807)"/>
<mask id="path-4-inside-2_545_807" fill="white">
<path d="M63.4091 628.646L63.573 628.722L49.1635 659.765L174.621 718.001L190.998 682.719C195.442 673.144 191.284 661.78 181.71 657.335L144.171 639.91L152.714 621.507L81.9669 588.667L63.4091 628.646Z"/>
</mask>
<path d="M63.4091 628.646L63.573 628.722L49.1635 659.765L174.621 718.001L190.998 682.719C195.442 673.144 191.284 661.78 181.71 657.335L144.171 639.91L152.714 621.507L81.9669 588.667L63.4091 628.646Z" fill="#DF271C"/>
<path d="M63.4091 628.646L60.0408 635.903L52.7845 632.534L56.1528 625.278L63.4091 628.646ZM63.573 628.722L66.9413 621.466L74.1977 624.834L70.8294 632.091L63.573 628.722ZM49.1635 659.765L45.7952 667.021L38.5389 663.653L41.9072 656.396L49.1635 659.765ZM174.621 718.001L181.877 721.369L178.509 728.625L171.252 725.257L174.621 718.001ZM190.998 682.719L183.742 679.351L190.998 682.719ZM181.71 657.335L185.078 650.079L185.078 650.079L181.71 657.335ZM144.171 639.91L140.803 647.167L133.546 643.798L136.915 636.542L144.171 639.91ZM152.714 621.507L156.082 614.251L163.338 617.619L159.97 624.876L152.714 621.507ZM81.9669 588.667L74.7106 585.299L78.0789 578.043L85.3352 581.411L81.9669 588.667ZM63.4091 628.646L66.7775 621.39L66.9413 621.466L63.573 628.722L60.2047 635.979L60.0408 635.903L63.4091 628.646ZM63.573 628.722L70.8294 632.091L56.4199 663.133L49.1635 659.765L41.9072 656.396L56.3167 625.354L63.573 628.722ZM49.1635 659.765L52.5318 652.508L177.989 710.744L174.621 718.001L171.252 725.257L45.7952 667.021L49.1635 659.765ZM174.621 718.001L167.364 714.632L183.742 679.351L190.998 682.719L198.254 686.087L181.877 721.369L174.621 718.001ZM190.998 682.719L183.742 679.351C186.326 673.783 183.908 667.176 178.341 664.592L181.71 657.335L185.078 650.079C198.66 656.384 204.559 672.506 198.254 686.087L190.998 682.719ZM181.71 657.335L178.341 664.592L140.803 647.167L144.171 639.91L147.539 632.654L185.078 650.079L181.71 657.335ZM144.171 639.91L136.915 636.542L145.457 618.139L152.714 621.507L159.97 624.876L151.427 643.279L144.171 639.91ZM152.714 621.507L149.345 628.764L78.5986 595.924L81.9669 588.667L85.3352 581.411L156.082 614.251L152.714 621.507ZM81.9669 588.667L89.2233 592.036L70.6655 632.015L63.4091 628.646L56.1528 625.278L74.7106 585.299L81.9669 588.667Z" fill="#181651" mask="url(#path-4-inside-2_545_807)"/>
<path d="M256.002 337.156L169.456 629.965L85.8571 593.677L168.534 316.207L256.002 337.156Z" fill="#0059F7" stroke="#181651" stroke-width="8"/>
<path d="M213.174 4.66748C225.417 4.66748 235.343 14.5924 235.343 26.8354C235.343 37.713 227.508 46.76 217.174 48.6431V49.0044H209.174V48.6431C198.84 46.7597 191.006 37.7128 191.006 26.8354C191.006 14.5925 200.931 4.66766 213.174 4.66748ZM213.174 21.9624C210.483 21.9626 208.301 24.1445 208.301 26.8354C208.301 29.5266 210.483 31.7083 213.174 31.7085C215.865 31.7085 218.047 29.5267 218.047 26.8354C218.047 24.1444 215.865 21.9624 213.174 21.9624Z" fill="#EBE4CE" stroke="#181651" stroke-width="8"/>
<path d="M0 163.7L165.4 150.379L175.512 275.938C178.197 309.277 153.347 338.48 120.009 341.165L75.3387 344.762C42 347.447 12.797 322.598 10.112 289.259L0 163.7Z" fill="#181651"/>
<path d="M311.887 329.638L162.303 342.355L166.854 154.618L173.204 42.5809L257.383 32.2856L279.458 140.083L311.887 329.638Z" fill="#EBE4CE"/>
<path d="M166.854 154.618L173.204 42.5809L257.383 32.2856L279.458 140.083M166.854 154.618L162.303 342.355L311.887 329.638L279.458 140.083M166.854 154.618L279.458 140.083" stroke="#181651" stroke-width="8"/>
<mask id="path-11-inside-3_545_807" fill="white">
<path d="M314.865 329.099L315.456 332.373L312.142 332.654L162.558 345.372L159.188 345.659L159.273 342.277L164.206 149.474L279.973 135.947L314.865 329.099Z"/>
</mask>
<path d="M314.865 329.099L315.456 332.373L312.142 332.654L162.558 345.372L159.188 345.659L159.273 342.277L164.206 149.474L279.973 135.947L314.865 329.099Z" fill="#05CC75"/>
<path d="M314.865 329.099L322.738 327.678L322.738 327.677L314.865 329.099ZM315.456 332.373L316.132 340.344L324.89 339.601L323.329 330.952L315.456 332.373ZM312.142 332.654L311.465 324.682L311.464 324.683L312.142 332.654ZM162.558 345.372L161.88 337.4L161.879 337.4L162.558 345.372ZM159.188 345.659L151.19 345.455L150.963 354.388L159.867 353.63L159.188 345.659ZM159.273 342.277L151.276 342.072L151.276 342.074L159.273 342.277ZM164.206 149.474L163.278 141.528L156.386 142.333L156.209 149.27L164.206 149.474ZM279.973 135.947L287.845 134.525L286.509 127.129L279.044 128.001L279.973 135.947ZM314.865 329.099L306.992 330.52L307.583 333.794L315.456 332.373L323.329 330.952L322.738 327.678L314.865 329.099ZM315.456 332.373L314.78 324.401L311.465 324.682L312.142 332.654L312.818 340.625L316.132 340.344L315.456 332.373ZM312.142 332.654L311.464 324.683L161.88 337.4L162.558 345.372L163.235 353.343L312.819 340.625L312.142 332.654ZM162.558 345.372L161.879 337.4L158.508 337.688L159.188 345.659L159.867 353.63L163.237 353.343L162.558 345.372ZM159.188 345.659L167.185 345.862L167.271 342.48L159.273 342.277L151.276 342.074L151.19 345.455L159.188 345.659ZM159.273 342.277L167.271 342.481L172.203 149.679L164.206 149.474L156.209 149.27L151.276 342.072L159.273 342.277ZM164.206 149.474L165.135 157.42L280.901 143.893L279.973 135.947L279.044 128.001L163.278 141.528L164.206 149.474ZM279.973 135.947L272.1 137.369L306.993 330.521L314.865 329.099L322.738 327.677L287.845 134.525L279.973 135.947Z" fill="#181651" mask="url(#path-11-inside-3_545_807)"/>
<path d="M279.79 246.065C279.79 247.518 248.299 242.229 232.553 239.403V196.405C234.168 194.184 237.761 189.622 239.214 189.137C241.031 188.532 257.988 187.926 259.805 187.926C261.259 187.926 270.101 191.156 274.34 192.771L287.663 209.123C288.269 215.986 289.601 230.077 290.086 231.53C290.691 233.347 279.79 244.248 279.79 246.065Z" fill="#EBE4CE"/>
<path d="M167.15 168.547C167.148 220.024 156.613 317.405 199.247 316.921C234.343 316.522 265.007 275.879 281.848 244.854M281.848 244.854C285.465 238.189 288.445 231.968 290.694 226.685C291.501 213.766 285.97 187.927 257.386 187.927C240.429 187.927 231.95 202.461 231.95 202.461V239.403L281.848 244.854Z" stroke="#181651" stroke-width="8"/>
<path d="M228.919 203.673C228.919 168.548 185.315 170.97 165.936 170.97L168.964 153.407C167.147 152.398 171.265 150.379 202.272 150.379C233.279 150.379 246.28 175.815 248.904 188.533L228.919 203.673Z" fill="#181651"/>
<path d="M227 108.385V108.385C234.525 117.985 249.47 116.535 255.009 105.667V105.667" stroke="#181651" stroke-width="7"/>
<mask id="mask0_545_807" style="mask-type:alpha" maskUnits="userSpaceOnUse" x="232" y="49" width="36" height="51">
<path d="M250.225 52.4272C246.528 52.4272 242.902 54.5578 240.088 58.5659C237.28 62.5658 235.455 68.238 235.455 74.6333C235.455 81.0288 237.279 86.7017 240.088 90.7017C242.902 94.7097 246.528 96.8394 250.225 96.8394C253.921 96.8393 257.546 94.7095 260.36 90.7017C263.169 86.7017 264.994 81.0288 264.994 74.6333C264.994 68.2379 263.169 62.5658 260.36 58.5659C257.546 54.5579 253.921 52.4273 250.225 52.4272Z" fill="#D9D9D9" stroke="black" stroke-width="5.52034"/>
</mask>
<g mask="url(#mask0_545_807)">
<path d="M250.225 52.4272C246.528 52.4272 242.902 54.5578 240.088 58.5659C237.28 62.5658 235.455 68.238 235.455 74.6333C235.455 81.0288 237.279 86.7017 240.088 90.7017C242.902 94.7097 246.528 96.8394 250.225 96.8394C253.921 96.8393 257.546 94.7095 260.36 90.7017C263.169 86.7017 264.994 81.0288 264.994 74.6333C264.994 68.2379 263.169 62.5658 260.36 58.5659C257.546 54.5579 253.921 52.4273 250.225 52.4272Z" fill="#FDFCFA" stroke="#181651" stroke-width="5.52034"/>
<mask id="path-19-inside-4_545_807" fill="white">
<path d="M239.801 54.4485C246.617 54.4485 252.399 60.7846 254.429 69.5657L248.033 75.9622L255.005 80.0432C253.818 90.53 247.464 98.5374 239.801 98.5374C231.293 98.5371 224.397 88.6679 224.396 76.4934C224.396 64.3187 231.293 54.4487 239.801 54.4485Z"/>
</mask>
<path d="M239.801 54.4485C246.617 54.4485 252.399 60.7846 254.429 69.5657L248.033 75.9622L255.005 80.0432C253.818 90.53 247.464 98.5374 239.801 98.5374C231.293 98.5371 224.397 88.6679 224.396 76.4934C224.396 64.3187 231.293 54.4487 239.801 54.4485Z" fill="#181651"/>
<path d="M239.801 54.4485L239.801 48.9282L239.801 48.9282L239.801 54.4485ZM254.429 69.5657L258.332 73.4688L260.496 71.3045L259.807 68.3226L254.429 69.5657ZM248.033 75.9622L244.129 72.059L239.075 77.1146L245.244 80.7263L248.033 75.9622ZM255.005 80.0432L260.49 80.6638L260.894 77.094L257.794 75.2791L255.005 80.0432ZM239.801 98.5374L239.801 104.058H239.801V98.5374ZM224.396 76.4934L218.876 76.4934L218.876 76.4935L224.396 76.4934ZM239.801 54.4485V59.9688C242.862 59.9688 247.282 63.1564 249.05 70.8088L254.429 69.5657L259.807 68.3226C257.517 58.4129 250.372 48.9282 239.801 48.9282V54.4485ZM254.429 69.5657L250.525 65.6625L244.129 72.059L248.033 75.9622L251.937 79.8653L258.332 73.4688L254.429 69.5657ZM248.033 75.9622L245.244 80.7263L252.216 84.8073L255.005 80.0432L257.794 75.2791L250.822 71.198L248.033 75.9622ZM255.005 80.0432L249.52 79.4226C249.027 83.7764 247.482 87.3628 245.549 89.7392C243.623 92.1071 241.574 93.017 239.801 93.017V98.5374V104.058C245.691 104.058 250.651 100.964 254.114 96.7065C257.57 92.4575 259.796 86.7968 260.49 80.6638L255.005 80.0432ZM239.801 98.5374L239.801 93.017C237.847 93.017 235.51 91.8907 233.433 88.9187C231.369 85.9647 229.917 81.5889 229.917 76.4933L224.396 76.4934L218.876 76.4935C218.876 83.5724 220.872 90.2185 224.383 95.2428C227.882 100.249 233.247 104.057 239.801 104.058L239.801 98.5374ZM224.396 76.4934H229.917C229.917 71.3977 231.369 67.0217 233.433 64.0675C235.51 61.0952 237.847 59.9689 239.801 59.9688L239.801 54.4485L239.801 48.9282C233.247 48.9283 227.882 52.7371 224.383 57.7436C220.872 62.7681 218.876 69.4144 218.876 76.4934H224.396Z" fill="#181651" mask="url(#path-19-inside-4_545_807)"/>
</g>
<mask id="mask1_545_807" style="mask-type:alpha" maskUnits="userSpaceOnUse" x="203" y="51" width="36" height="51">
<path d="M220.529 54.4272C216.833 54.4272 213.207 56.5578 210.393 60.5659C207.584 64.5658 205.76 70.238 205.76 76.6333C205.76 83.0288 207.584 88.7017 210.393 92.7017C213.207 96.7097 216.833 98.8394 220.529 98.8394C224.226 98.8393 227.851 96.7095 230.665 92.7017C233.474 88.7017 235.299 83.0288 235.299 76.6333C235.299 70.2379 233.473 64.5658 230.665 60.5659C227.851 56.5579 224.226 54.4273 220.529 54.4272Z" fill="#D9D9D9" stroke="black" stroke-width="5.52034"/>
</mask>
<g mask="url(#mask1_545_807)">
<path d="M220.529 54.4272C216.833 54.4272 213.207 56.5578 210.393 60.5659C207.584 64.5658 205.76 70.238 205.76 76.6333C205.76 83.0288 207.584 88.7017 210.393 92.7017C213.207 96.7097 216.833 98.8394 220.529 98.8394C224.226 98.8393 227.851 96.7095 230.665 92.7017C233.474 88.7017 235.299 83.0288 235.299 76.6333C235.299 70.2379 233.473 64.5658 230.665 60.5659C227.851 56.5579 224.226 54.4273 220.529 54.4272Z" fill="#FDFCFA" stroke="#181651" stroke-width="5.52034"/>
<mask id="path-23-inside-5_545_807" fill="white">
<path d="M210.637 56.4485C217.453 56.4485 223.235 62.7846 225.265 71.5657L218.869 77.9622L225.841 82.0432C224.654 92.53 218.3 100.537 210.637 100.537C202.129 100.537 195.232 90.6672 195.232 78.4924C195.233 66.3179 202.129 56.4486 210.637 56.4485Z"/>
</mask>
<path d="M210.637 56.4485C217.453 56.4485 223.235 62.7846 225.265 71.5657L218.869 77.9622L225.841 82.0432C224.654 92.53 218.3 100.537 210.637 100.537C202.129 100.537 195.232 90.6672 195.232 78.4924C195.233 66.3179 202.129 56.4486 210.637 56.4485Z" fill="#181651"/>
<path d="M210.637 56.4485L210.637 50.9282L210.637 50.9282L210.637 56.4485ZM225.265 71.5657L229.168 75.4688L231.332 73.3045L230.643 70.3226L225.265 71.5657ZM218.869 77.9622L214.965 74.059L209.911 79.1146L216.08 82.7263L218.869 77.9622ZM225.841 82.0432L231.326 82.6639L231.73 79.094L228.63 77.2791L225.841 82.0432ZM210.637 100.537L210.637 106.058H210.637V100.537ZM195.232 78.4924L189.712 78.4924V78.4924H195.232ZM210.637 56.4485V61.9688C213.698 61.9688 218.117 65.1564 219.886 72.8088L225.265 71.5657L230.643 70.3226C228.353 60.4127 221.208 50.9282 210.637 50.9282V56.4485ZM225.265 71.5657L221.361 67.6625L214.965 74.059L218.869 77.9622L222.773 81.8653L229.168 75.4688L225.265 71.5657ZM218.869 77.9622L216.08 82.7263L223.052 86.8073L225.841 82.0432L228.63 77.2791L221.658 73.198L218.869 77.9622ZM225.841 82.0432L220.355 81.4226C219.863 85.7764 218.318 89.3628 216.385 91.7392C214.459 94.1071 212.409 95.017 210.637 95.017V100.537V106.058C216.527 106.058 221.486 102.964 224.95 98.7064C228.406 94.4575 230.632 88.7968 231.326 82.6639L225.841 82.0432ZM210.637 100.537L210.637 95.017C208.683 95.017 206.346 93.8907 204.269 90.9184C202.205 87.9643 200.753 83.5882 200.753 78.4924H195.232H189.712C189.712 85.5715 191.708 92.2178 195.219 97.2423C198.717 102.249 204.083 106.058 210.637 106.058L210.637 100.537ZM195.232 78.4924L200.753 78.4925C200.753 73.3969 202.205 69.021 204.269 66.0671C206.346 63.0951 208.683 61.9689 210.637 61.9688L210.637 56.4485L210.637 50.9282C204.083 50.9283 198.718 54.7367 195.219 59.743C191.708 64.7673 189.712 71.4134 189.712 78.4924L195.232 78.4924Z" fill="#181651" mask="url(#path-23-inside-5_545_807)"/>
</g>
</svg>
