<svg width="552" height="718" viewBox="0 0 552 718" fill="none" xmlns="http://www.w3.org/2000/svg">
<rect x="253.464" y="399.954" width="89.945" height="287.266" transform="rotate(-30 253.464 399.954)" fill="#0059F7" stroke="#181651" stroke-width="8"/>
<mask id="path-2-inside-1_545_770" fill="white">
<path d="M414.671 687.174L414.828 687.083L431.94 716.721L551.724 647.563L532.275 613.877C526.997 604.736 515.308 601.604 506.167 606.882L470.326 627.575L460.181 610.004L392.633 649.003L414.671 687.174Z"/>
</mask>
<path d="M414.671 687.174L414.828 687.083L431.94 716.721L551.724 647.563L532.275 613.877C526.997 604.736 515.308 601.604 506.167 606.882L470.326 627.575L460.181 610.004L392.633 649.003L414.671 687.174Z" fill="#DF271C"/>
<path d="M414.671 687.174L418.671 694.102L411.743 698.102L407.743 691.174L414.671 687.174ZM414.828 687.083L410.828 680.155L417.757 676.155L421.757 683.083L414.828 687.083ZM431.94 716.721L435.94 723.649L429.012 727.649L425.012 720.721L431.94 716.721ZM551.724 647.563L558.652 643.563L562.652 650.492L555.724 654.492L551.724 647.563ZM532.275 613.877L539.203 609.877L539.203 609.877L532.275 613.877ZM506.167 606.882L502.167 599.953L502.167 599.953L506.167 606.882ZM470.326 627.575L474.326 634.503L467.398 638.503L463.398 631.575L470.326 627.575ZM460.181 610.004L456.181 603.075L463.11 599.075L467.11 606.004L460.181 610.004ZM392.633 649.003L385.705 653.003L381.705 646.074L388.633 642.074L392.633 649.003ZM414.671 687.174L410.671 680.246L410.828 680.155L414.828 687.083L418.828 694.011L418.671 694.102L414.671 687.174ZM414.828 687.083L421.757 683.083L438.868 712.721L431.94 716.721L425.012 720.721L407.9 691.083L414.828 687.083ZM431.94 716.721L427.94 709.792L547.724 640.635L551.724 647.563L555.724 654.492L435.94 723.649L431.94 716.721ZM551.724 647.563L544.795 651.563L525.347 617.877L532.275 613.877L539.203 609.877L558.652 643.563L551.724 647.563ZM532.275 613.877L525.347 617.877C522.278 612.562 515.482 610.741 510.167 613.81L506.167 606.882L502.167 599.953C515.135 592.467 531.716 596.909 539.203 609.877L532.275 613.877ZM506.167 606.882L510.167 613.81L474.326 634.503L470.326 627.575L466.326 620.646L502.167 599.953L506.167 606.882ZM470.326 627.575L463.398 631.575L453.253 614.004L460.181 610.004L467.11 606.004L477.254 623.575L470.326 627.575ZM460.181 610.004L464.181 616.932L396.633 655.931L392.633 649.003L388.633 642.074L456.181 603.075L460.181 610.004ZM392.633 649.003L399.561 645.003L421.599 683.174L414.671 687.174L407.743 691.174L385.705 653.003L392.633 649.003Z" fill="#181651" mask="url(#path-2-inside-1_545_770)"/>
<mask id="path-4-inside-2_545_770" fill="white">
<path d="M29.6375 580.281L29.7283 580.438L0.0914785 597.549L69.2487 717.333L102.935 697.884C112.076 692.606 115.208 680.918 109.93 671.776L89.2376 635.935L106.808 625.791L67.8086 558.243L29.6375 580.281Z"/>
</mask>
<path d="M29.6375 580.281L29.7283 580.438L0.0914785 597.549L69.2487 717.333L102.935 697.884C112.076 692.606 115.208 680.918 109.93 671.776L89.2376 635.935L106.808 625.791L67.8086 558.243L29.6375 580.281Z" fill="#DF271C"/>
<path d="M29.6375 580.281L22.7093 584.281L18.7093 577.353L25.6375 573.353L29.6375 580.281ZM29.7283 580.438L36.6565 576.438L40.6565 583.366L33.7283 587.366L29.7283 580.438ZM0.0914785 597.549L-6.83672 601.549L-10.8367 594.621L-3.90852 590.621L0.0914785 597.549ZM69.2487 717.333L73.2487 724.261L66.3205 728.261L62.3205 721.333L69.2487 717.333ZM102.935 697.884L106.935 704.812L106.935 704.812L102.935 697.884ZM109.93 671.776L116.859 667.776L116.859 667.776L109.93 671.776ZM89.2376 635.935L82.3094 639.935L78.3094 633.007L85.2376 629.007L89.2376 635.935ZM106.808 625.791L113.736 621.791L117.736 628.719L110.808 632.719L106.808 625.791ZM67.8086 558.243L63.8086 551.315L70.7368 547.315L74.7368 554.243L67.8086 558.243ZM29.6375 580.281L36.5657 576.281L36.6565 576.438L29.7283 580.438L22.8001 584.438L22.7093 584.281L29.6375 580.281ZM29.7283 580.438L33.7283 587.366L4.09148 604.477L0.0914785 597.549L-3.90852 590.621L25.7283 573.51L29.7283 580.438ZM0.0914785 597.549L7.01968 593.549L76.1769 713.333L69.2487 717.333L62.3205 721.333L-6.83672 601.549L0.0914785 597.549ZM69.2487 717.333L65.2487 710.405L98.9349 690.956L102.935 697.884L106.935 704.812L73.2487 724.261L69.2487 717.333ZM102.935 697.884L98.9349 690.956C104.25 687.887 106.071 681.091 103.002 675.776L109.93 671.776L116.859 667.776C124.345 680.744 119.903 697.325 106.935 704.812L102.935 697.884ZM109.93 671.776L103.002 675.776L82.3094 639.935L89.2376 635.935L96.1658 631.935L116.859 667.776L109.93 671.776ZM89.2376 635.935L85.2376 629.007L102.808 618.863L106.808 625.791L110.808 632.719L93.2376 642.863L89.2376 635.935ZM106.808 625.791L99.8794 629.791L60.8804 562.243L67.8086 558.243L74.7368 554.243L113.736 621.791L106.808 625.791ZM67.8086 558.243L71.8086 565.171L33.6375 587.209L29.6375 580.281L25.6375 573.353L63.8086 551.315L67.8086 558.243Z" fill="#181651" mask="url(#path-4-inside-2_545_770)"/>
<path d="M325.399 396.372L220.362 578.302L112.09 639.95L68.0445 562.409L152.87 514.212L153.815 513.675L247.505 351.399L325.399 396.372Z" fill="#0059F7" stroke="#181651" stroke-width="8"/>
<path d="M46 232.274L211.4 218.954L221.512 344.513C224.197 377.852 199.347 407.055 166.009 409.74L121.339 413.337C88 416.022 58.797 391.172 56.112 357.834L46 232.274Z" fill="#181651"/>
<path d="M259.174 73.2422C271.417 73.2422 281.343 83.1671 281.343 95.4102C281.343 106.288 273.508 115.335 263.174 117.218V117.579H255.174V117.218C244.84 115.334 237.006 106.287 237.006 95.4102C237.006 83.1672 246.931 73.2424 259.174 73.2422ZM259.174 90.5371C256.483 90.5373 254.301 92.7192 254.301 95.4102C254.301 98.1013 256.483 100.283 259.174 100.283C261.865 100.283 264.047 98.1014 264.047 95.4102C264.047 92.7191 261.865 90.5371 259.174 90.5371Z" fill="#EBE4CE" stroke="#181651" stroke-width="8"/>
<path d="M357.887 398.213L208.303 410.93L212.854 223.193L219.204 111.156L303.383 100.861L325.458 208.658L357.887 398.213Z" fill="#EBE4CE"/>
<path d="M212.854 223.193L219.204 111.156L303.383 100.861L325.458 208.658M212.854 223.193L208.303 410.93L357.887 398.213L325.458 208.658M212.854 223.193L325.458 208.658" stroke="#181651" stroke-width="8"/>
<mask id="path-11-inside-3_545_770" fill="white">
<path d="M360.865 397.674L361.456 400.948L358.142 401.229L208.558 413.947L205.188 414.234L205.273 410.852L210.206 218.049L325.973 204.522L360.865 397.674Z"/>
</mask>
<path d="M360.865 397.674L361.456 400.948L358.142 401.229L208.558 413.947L205.188 414.234L205.273 410.852L210.206 218.049L325.973 204.522L360.865 397.674Z" fill="#05CC75"/>
<path d="M360.865 397.674L368.738 396.253L368.738 396.252L360.865 397.674ZM361.456 400.948L362.132 408.919L370.89 408.176L369.329 399.527L361.456 400.948ZM358.142 401.229L357.465 393.258L357.464 393.258L358.142 401.229ZM208.558 413.947L207.88 405.976L207.879 405.976L208.558 413.947ZM205.188 414.234L197.19 414.031L196.963 422.964L205.867 422.205L205.188 414.234ZM205.273 410.852L197.276 410.647L197.276 410.649L205.273 410.852ZM210.206 218.049L209.278 210.103L202.386 210.909L202.209 217.845L210.206 218.049ZM325.973 204.522L333.845 203.1L332.509 195.704L325.044 196.576L325.973 204.522ZM360.865 397.674L352.992 399.095L353.583 402.369L361.456 400.948L369.329 399.527L368.738 396.253L360.865 397.674ZM361.456 400.948L360.78 392.976L357.465 393.258L358.142 401.229L358.818 409.2L362.132 408.919L361.456 400.948ZM358.142 401.229L357.464 393.258L207.88 405.976L208.558 413.947L209.235 421.918L358.819 409.2L358.142 401.229ZM208.558 413.947L207.879 405.976L204.508 406.263L205.188 414.234L205.867 422.205L209.237 421.918L208.558 413.947ZM205.188 414.234L213.185 414.437L213.271 411.055L205.273 410.852L197.276 410.649L197.19 414.031L205.188 414.234ZM205.273 410.852L213.271 411.057L218.203 218.254L210.206 218.049L202.209 217.845L197.276 410.647L205.273 410.852ZM210.206 218.049L211.135 225.995L326.901 212.468L325.973 204.522L325.044 196.576L209.278 210.103L210.206 218.049ZM325.973 204.522L318.1 205.944L352.993 399.096L360.865 397.674L368.738 396.252L333.845 203.1L325.973 204.522Z" fill="#181651" mask="url(#path-11-inside-3_545_770)"/>
<path d="M325.79 314.64C325.79 316.093 294.299 310.804 278.553 307.978V264.98C280.168 262.759 283.761 258.197 285.214 257.712C287.031 257.107 303.988 256.501 305.805 256.501C307.259 256.501 316.101 259.731 320.34 261.346L333.663 277.698C334.269 284.561 335.601 298.652 336.086 300.105C336.691 301.922 325.79 312.823 325.79 314.64Z" fill="#EBE4CE"/>
<path d="M213.15 237.122C213.148 288.598 202.613 385.98 245.247 385.495C280.343 385.096 311.007 344.454 327.848 313.428M327.848 313.428C331.465 306.764 334.445 300.543 336.694 295.26C337.501 282.341 331.97 256.501 303.386 256.501C286.429 256.501 277.95 271.036 277.95 271.036V307.978L327.848 313.428Z" stroke="#181651" stroke-width="8"/>
<path d="M274.919 272.247C274.919 237.122 231.315 239.544 211.936 239.544L214.964 221.982C213.147 220.972 217.265 218.954 248.272 218.954C279.279 218.954 292.28 244.389 294.904 257.107L274.919 272.247Z" fill="#181651"/>
<path d="M273 176.96V176.96C280.525 186.56 295.47 185.109 301.009 174.242V174.242" stroke="#181651" stroke-width="7"/>
<mask id="mask0_545_770" style="mask-type:alpha" maskUnits="userSpaceOnUse" x="278" y="118" width="36" height="51">
<path d="M296.225 121.002C292.528 121.002 288.902 123.132 286.088 127.141C283.28 131.141 281.455 136.813 281.455 143.208C281.455 149.604 283.279 155.276 286.088 159.276C288.902 163.284 292.528 165.414 296.225 165.414C299.921 165.414 303.546 163.284 306.36 159.276C309.169 155.276 310.994 149.604 310.994 143.208C310.994 136.813 309.169 131.141 306.36 127.141C303.546 123.133 299.921 121.002 296.225 121.002Z" fill="#D9D9D9" stroke="black" stroke-width="5.52034"/>
</mask>
<g mask="url(#mask0_545_770)">
<path d="M296.225 121.002C292.528 121.002 288.902 123.132 286.088 127.141C283.28 131.141 281.455 136.813 281.455 143.208C281.455 149.604 283.279 155.276 286.088 159.276C288.902 163.284 292.528 165.414 296.225 165.414C299.921 165.414 303.546 163.284 306.36 159.276C309.169 155.276 310.994 149.604 310.994 143.208C310.994 136.813 309.169 131.141 306.36 127.141C303.546 123.133 299.921 121.002 296.225 121.002Z" fill="#FDFCFA" stroke="#181651" stroke-width="5.52034"/>
<mask id="path-19-inside-4_545_770" fill="white">
<path d="M285.801 123.023C292.617 123.023 298.399 129.359 300.429 138.14L294.033 144.537L301.005 148.618C299.818 159.105 293.464 167.112 285.801 167.112C277.293 167.112 270.397 157.243 270.396 145.068C270.396 132.893 277.293 123.023 285.801 123.023Z"/>
</mask>
<path d="M285.801 123.023C292.617 123.023 298.399 129.359 300.429 138.14L294.033 144.537L301.005 148.618C299.818 159.105 293.464 167.112 285.801 167.112C277.293 167.112 270.397 157.243 270.396 145.068C270.396 132.893 277.293 123.023 285.801 123.023Z" fill="#181651"/>
<path d="M285.801 123.023L285.801 117.503L285.801 117.503L285.801 123.023ZM300.429 138.14L304.332 142.044L306.496 139.879L305.807 136.897L300.429 138.14ZM294.033 144.537L290.129 140.634L285.075 145.689L291.244 149.301L294.033 144.537ZM301.005 148.618L306.49 149.239L306.894 145.669L303.794 143.854L301.005 148.618ZM285.801 167.112L285.801 172.632H285.801V167.112ZM270.396 145.068L264.876 145.068L264.876 145.068L270.396 145.068ZM285.801 123.023V128.544C288.862 128.544 293.282 131.731 295.05 139.383L300.429 138.14L305.807 136.897C303.517 126.988 296.372 117.503 285.801 117.503V123.023ZM300.429 138.14L296.525 134.237L290.129 140.634L294.033 144.537L297.937 148.44L304.332 142.044L300.429 138.14ZM294.033 144.537L291.244 149.301L298.216 153.382L301.005 148.618L303.794 143.854L296.822 139.773L294.033 144.537ZM301.005 148.618L295.52 147.997C295.027 152.351 293.482 155.937 291.549 158.314C289.623 160.682 287.574 161.592 285.801 161.592V167.112V172.632C291.691 172.632 296.651 169.539 300.114 165.281C303.57 161.032 305.796 155.372 306.49 149.239L301.005 148.618ZM285.801 167.112L285.801 161.592C283.847 161.592 281.51 160.465 279.433 157.493C277.369 154.539 275.917 150.164 275.917 145.068L270.396 145.068L264.876 145.068C264.876 152.147 266.872 158.793 270.383 163.818C273.882 168.824 279.247 172.632 285.801 172.632L285.801 167.112ZM270.396 145.068H275.917C275.917 139.972 277.369 135.596 279.433 132.642C281.51 129.67 283.847 128.544 285.801 128.544L285.801 123.023L285.801 117.503C279.247 117.503 273.882 121.312 270.383 126.318C266.872 131.343 264.876 137.989 264.876 145.068H270.396Z" fill="#181651" mask="url(#path-19-inside-4_545_770)"/>
</g>
<mask id="mask1_545_770" style="mask-type:alpha" maskUnits="userSpaceOnUse" x="249" y="120" width="36" height="51">
<path d="M266.529 123.002C262.833 123.002 259.207 125.132 256.393 129.141C253.584 133.141 251.76 138.813 251.76 145.208C251.76 151.604 253.584 157.276 256.393 161.276C259.207 165.284 262.833 167.414 266.529 167.414C270.226 167.414 273.851 165.284 276.665 161.276C279.474 157.276 281.299 151.604 281.299 145.208C281.299 138.813 279.473 133.141 276.665 129.141C273.851 125.133 270.226 123.002 266.529 123.002Z" fill="#D9D9D9" stroke="black" stroke-width="5.52034"/>
</mask>
<g mask="url(#mask1_545_770)">
<path d="M266.529 123.002C262.833 123.002 259.207 125.132 256.393 129.141C253.584 133.141 251.76 138.813 251.76 145.208C251.76 151.604 253.584 157.276 256.393 161.276C259.207 165.284 262.833 167.414 266.529 167.414C270.226 167.414 273.851 165.284 276.665 161.276C279.474 157.276 281.299 151.604 281.299 145.208C281.299 138.813 279.473 133.141 276.665 129.141C273.851 125.133 270.226 123.002 266.529 123.002Z" fill="#FDFCFA" stroke="#181651" stroke-width="5.52034"/>
<mask id="path-23-inside-5_545_770" fill="white">
<path d="M256.637 125.023C263.453 125.023 269.235 131.359 271.265 140.14L264.869 146.537L271.841 150.618C270.654 161.105 264.3 169.112 256.637 169.112C248.129 169.112 241.232 159.242 241.232 147.067C241.233 134.893 248.129 125.023 256.637 125.023Z"/>
</mask>
<path d="M256.637 125.023C263.453 125.023 269.235 131.359 271.265 140.14L264.869 146.537L271.841 150.618C270.654 161.105 264.3 169.112 256.637 169.112C248.129 169.112 241.232 159.242 241.232 147.067C241.233 134.893 248.129 125.023 256.637 125.023Z" fill="#181651"/>
<path d="M256.637 125.023L256.637 119.503L256.637 119.503L256.637 125.023ZM271.265 140.14L275.168 144.044L277.332 141.879L276.643 138.897L271.265 140.14ZM264.869 146.537L260.965 142.634L255.911 147.689L262.08 151.301L264.869 146.537ZM271.841 150.618L277.326 151.239L277.73 147.669L274.63 145.854L271.841 150.618ZM256.637 169.112L256.637 174.632H256.637V169.112ZM241.232 147.067L235.712 147.067V147.067H241.232ZM256.637 125.023V130.544C259.698 130.544 264.117 133.731 265.886 141.383L271.265 140.14L276.643 138.897C274.353 128.987 267.208 119.503 256.637 119.503V125.023ZM271.265 140.14L267.361 136.237L260.965 142.634L264.869 146.537L268.773 150.44L275.168 144.044L271.265 140.14ZM264.869 146.537L262.08 151.301L269.052 155.382L271.841 150.618L274.63 145.854L267.658 141.773L264.869 146.537ZM271.841 150.618L266.355 149.997C265.863 154.351 264.318 157.937 262.385 160.314C260.459 162.682 258.409 163.592 256.637 163.592V169.112V174.632C262.527 174.632 267.486 171.539 270.95 167.281C274.406 163.032 276.632 157.371 277.326 151.239L271.841 150.618ZM256.637 169.112L256.637 163.592C254.683 163.592 252.346 162.465 250.269 159.493C248.205 156.539 246.753 152.163 246.753 147.067H241.232H235.712C235.712 154.146 237.708 160.792 241.219 165.817C244.717 170.824 250.083 174.632 256.637 174.632L256.637 169.112ZM241.232 147.067L246.753 147.067C246.753 141.972 248.205 137.596 250.269 134.642C252.346 131.67 254.683 130.544 256.637 130.544L256.637 125.023L256.637 119.503C250.083 119.503 244.718 123.311 241.219 128.318C237.708 133.342 235.712 139.988 235.712 147.067L241.232 147.067Z" fill="#181651" mask="url(#path-23-inside-5_545_770)"/>
</g>
</svg>
