<svg width="459" height="717" viewBox="0 0 459 717" fill="none" xmlns="http://www.w3.org/2000/svg">
<path d="M384.331 553.054L239.494 602.279L222.442 520.482L277.458 506.907L281.98 505.79L280.195 501.49L219.61 355.495L311.709 355.496L384.331 553.054Z" fill="#0059F7" stroke="#181651" stroke-width="8"/>
<mask id="path-2-inside-1_545_806" fill="white">
<path d="M180.045 506.499L180.021 506.679L146.091 502.203L127.999 639.329L166.562 644.417C177.027 645.797 186.63 638.434 188.011 627.969L193.425 586.939L213.54 589.593L223.743 512.265L180.045 506.499Z"/>
</mask>
<path d="M180.045 506.499L180.021 506.679L146.091 502.203L127.999 639.329L166.562 644.417C177.027 645.797 186.63 638.434 188.011 627.969L193.425 586.939L213.54 589.593L223.743 512.265L180.045 506.499Z" fill="#DF271C"/>
<path d="M180.045 506.499L172.114 505.453L173.16 497.522L181.092 498.568L180.045 506.499ZM180.021 506.679L187.953 507.726L186.906 515.657L178.975 514.611L180.021 506.679ZM146.091 502.203L138.16 501.156L139.206 493.225L147.137 494.271L146.091 502.203ZM127.999 639.329L126.952 647.26L119.021 646.214L120.068 638.282L127.999 639.329ZM166.562 644.417L165.516 652.348L165.516 652.348L166.562 644.417ZM188.011 627.969L195.942 629.015L195.942 629.015L188.011 627.969ZM193.425 586.939L185.493 585.892L186.54 577.961L194.471 579.007L193.425 586.939ZM213.54 589.593L221.472 590.639L220.425 598.57L212.494 597.524L213.54 589.593ZM223.743 512.265L224.789 504.333L232.72 505.38L231.674 513.311L223.743 512.265ZM180.045 506.499L187.977 507.546L187.953 507.726L180.021 506.679L172.09 505.633L172.114 505.453L180.045 506.499ZM180.021 506.679L178.975 514.611L145.044 510.134L146.091 502.203L147.137 494.271L181.068 498.748L180.021 506.679ZM146.091 502.203L154.022 503.249L135.93 640.375L127.999 639.329L120.068 638.282L138.16 501.156L146.091 502.203ZM127.999 639.329L129.045 631.398L167.609 636.485L166.562 644.417L165.516 652.348L126.952 647.26L127.999 639.329ZM166.562 644.417L167.609 636.485C173.694 637.288 179.277 633.006 180.08 626.922L188.011 627.969L195.942 629.015C193.984 643.861 180.361 654.307 165.516 652.348L166.562 644.417ZM188.011 627.969L180.08 626.922L185.493 585.892L193.425 586.939L201.356 587.985L195.942 629.015L188.011 627.969ZM193.425 586.939L194.471 579.007L214.587 581.661L213.54 589.593L212.494 597.524L192.378 594.87L193.425 586.939ZM213.54 589.593L205.609 588.546L215.811 511.218L223.743 512.265L231.674 513.311L221.472 590.639L213.54 589.593ZM223.743 512.265L222.696 520.196L178.999 514.431L180.045 506.499L181.092 498.568L224.789 504.333L223.743 512.265Z" fill="#181651" mask="url(#path-2-inside-1_545_806)"/>
<path d="M253.385 363.434L263.095 497.08L253.367 640.701H163.44L173.151 497.338L173.17 497.057L173.149 496.778L163.461 363.434H253.385Z" fill="#0059F7" stroke="#181651" stroke-width="8"/>
<mask id="path-5-inside-2_545_806" fill="white">
<path d="M159.16 682.777H159.342V717H297.656V678.103C297.656 667.547 289.099 658.99 278.543 658.99H237.158V638.701H159.16V682.777Z"/>
</mask>
<path d="M159.16 682.777H159.342V717H297.656V678.103C297.656 667.547 289.099 658.99 278.543 658.99H237.158V638.701H159.16V682.777Z" fill="#DF271C"/>
<path d="M159.16 682.777V690.777H151.16V682.777H159.16ZM159.342 682.777V674.777H167.342V682.777H159.342ZM159.342 717V725H151.342V717H159.342ZM297.656 717H305.656V725H297.656V717ZM297.656 678.103L305.656 678.102V678.103H297.656ZM237.158 658.99V666.99H229.158V658.99H237.158ZM237.158 638.701V630.701H245.158V638.701H237.158ZM159.16 638.701H151.16V630.701H159.16V638.701ZM159.16 682.777V674.777H159.342V682.777V690.777H159.16V682.777ZM159.342 682.777H167.342V717H159.342H151.342V682.777H159.342ZM159.342 717V709H297.656V717V725H159.342V717ZM297.656 717H289.656V678.103H297.656H305.656V717H297.656ZM297.656 678.103L289.656 678.103C289.656 671.966 284.681 666.99 278.543 666.99V658.99V650.99C293.516 650.99 305.656 663.128 305.656 678.102L297.656 678.103ZM278.543 658.99V666.99H237.158V658.99V650.99H278.543V658.99ZM237.158 658.99H229.158V638.701H237.158H245.158V658.99H237.158ZM237.158 638.701V646.701H159.16V638.701V630.701H237.158V638.701ZM159.16 638.701H167.16V682.777H159.16H151.16V638.701H159.16Z" fill="#181651" mask="url(#path-5-inside-2_545_806)"/>
<path d="M213.174 34.0229C225.417 34.0229 235.343 43.9479 235.343 56.1909C235.343 67.0685 227.508 76.1154 217.174 77.9985V78.3599H209.174V77.9985C198.84 76.1152 191.006 67.0683 191.006 56.1909C191.006 43.948 200.931 34.0231 213.174 34.0229ZM213.174 51.3179C210.483 51.318 208.301 53.5 208.301 56.1909C208.301 58.882 210.483 61.0638 213.174 61.064C215.865 61.064 218.047 58.8821 218.047 56.1909C218.047 53.4998 215.865 51.3179 213.174 51.3179Z" fill="#EBE4CE" stroke="#181651" stroke-width="8"/>
<path d="M0 193.055L165.4 179.735L175.512 305.294C178.197 338.633 153.347 367.835 120.009 370.52L75.3387 374.118C42 376.803 12.797 351.953 10.112 318.614L0 193.055Z" fill="#181651"/>
<path d="M311.887 358.993L162.303 371.711L166.854 183.973L173.204 71.9364L257.383 61.6411L279.458 169.439L311.887 358.993Z" fill="#EBE4CE"/>
<path d="M166.854 183.973L173.204 71.9364L257.383 61.6411L279.458 169.439M166.854 183.973L162.303 371.711L311.887 358.993L279.458 169.439M166.854 183.973L279.458 169.439" stroke="#181651" stroke-width="8"/>
<mask id="path-11-inside-3_545_806" fill="white">
<path d="M314.865 358.455L315.456 361.728L312.142 362.009L162.558 374.727L159.188 375.014L159.273 371.632L164.206 178.83L279.973 165.302L314.865 358.455Z"/>
</mask>
<path d="M314.865 358.455L315.456 361.728L312.142 362.009L162.558 374.727L159.188 375.014L159.273 371.632L164.206 178.83L279.973 165.302L314.865 358.455Z" fill="#05CC75"/>
<path d="M314.865 358.455L322.738 357.034L322.738 357.032L314.865 358.455ZM315.456 361.728L316.132 369.699L324.89 368.956L323.329 360.307L315.456 361.728ZM312.142 362.009L311.465 354.038L311.464 354.038L312.142 362.009ZM162.558 374.727L161.88 366.756L161.879 366.756L162.558 374.727ZM159.188 375.014L151.19 374.811L150.963 383.744L159.867 382.985L159.188 375.014ZM159.273 371.632L151.276 371.428L151.276 371.429L159.273 371.632ZM164.206 178.83L163.278 170.884L156.386 171.689L156.209 178.625L164.206 178.83ZM279.973 165.302L287.845 163.88L286.509 156.484L279.044 157.356L279.973 165.302ZM314.865 358.455L306.992 359.876L307.583 363.149L315.456 361.728L323.329 360.307L322.738 357.034L314.865 358.455ZM315.456 361.728L314.78 353.757L311.465 354.038L312.142 362.009L312.818 369.981L316.132 369.699L315.456 361.728ZM312.142 362.009L311.464 354.038L161.88 366.756L162.558 374.727L163.235 382.698L312.819 369.981L312.142 362.009ZM162.558 374.727L161.879 366.756L158.508 367.043L159.188 375.014L159.867 382.985L163.237 382.698L162.558 374.727ZM159.188 375.014L167.185 375.217L167.271 371.836L159.273 371.632L151.276 371.429L151.19 374.811L159.188 375.014ZM159.273 371.632L167.271 371.837L172.203 179.034L164.206 178.83L156.209 178.625L151.276 371.428L159.273 371.632ZM164.206 178.83L165.135 186.776L280.901 173.248L279.973 165.302L279.044 157.356L163.278 170.884L164.206 178.83ZM279.973 165.302L272.1 166.724L306.993 359.877L314.865 358.455L322.738 357.032L287.845 163.88L279.973 165.302Z" fill="#181651" mask="url(#path-11-inside-3_545_806)"/>
<path d="M279.79 275.42C279.79 276.874 248.299 271.585 232.553 268.759V225.76C234.168 223.54 237.761 218.977 239.214 218.493C241.031 217.887 257.988 217.282 259.805 217.282C261.259 217.282 270.101 220.512 274.34 222.127L287.663 238.478C288.269 245.342 289.601 259.432 290.086 260.886C290.691 262.702 279.79 273.603 279.79 275.42Z" fill="#EBE4CE"/>
<path d="M167.15 197.903C167.148 249.379 156.613 346.761 199.247 346.276C234.343 345.877 265.007 305.235 281.848 274.209M281.848 274.209C285.465 267.545 288.445 261.324 290.694 256.041C291.501 243.121 285.97 217.282 257.386 217.282C240.429 217.282 231.95 231.817 231.95 231.817V268.759L281.848 274.209Z" stroke="#181651" stroke-width="8"/>
<path d="M228.919 233.029C228.919 197.903 185.315 200.326 165.936 200.326L168.964 182.763C167.147 181.754 171.265 179.735 202.272 179.735C233.279 179.735 246.28 205.17 248.904 217.888L228.919 233.029Z" fill="#181651"/>
<path d="M227 137.741V137.741C234.525 147.34 249.47 145.89 255.009 135.023V135.023" stroke="#181651" stroke-width="7"/>
<mask id="mask0_545_806" style="mask-type:alpha" maskUnits="userSpaceOnUse" x="232" y="79" width="36" height="50">
<path d="M250.225 81.7827C246.528 81.7827 242.902 83.9133 240.088 87.9214C237.28 91.9213 235.455 97.5934 235.455 103.989C235.455 110.384 237.279 116.057 240.088 120.057C242.902 124.065 246.528 126.195 250.225 126.195C253.921 126.195 257.546 124.065 260.36 120.057C263.169 116.057 264.994 110.384 264.994 103.989C264.994 97.5933 263.169 91.9213 260.36 87.9214C257.546 83.9134 253.921 81.7828 250.225 81.7827Z" fill="#D9D9D9" stroke="black" stroke-width="5.52034"/>
</mask>
<g mask="url(#mask0_545_806)">
<path d="M250.225 81.7827C246.528 81.7827 242.902 83.9133 240.088 87.9214C237.28 91.9213 235.455 97.5934 235.455 103.989C235.455 110.384 237.279 116.057 240.088 120.057C242.902 124.065 246.528 126.195 250.225 126.195C253.921 126.195 257.546 124.065 260.36 120.057C263.169 116.057 264.994 110.384 264.994 103.989C264.994 97.5933 263.169 91.9213 260.36 87.9214C257.546 83.9134 253.921 81.7828 250.225 81.7827Z" fill="#FDFCFA" stroke="#181651" stroke-width="5.52034"/>
<mask id="path-19-inside-4_545_806" fill="white">
<path d="M239.801 83.804C246.617 83.804 252.399 90.1401 254.429 98.9211L248.033 105.318L255.005 109.399C253.818 119.885 247.464 127.893 239.801 127.893C231.293 127.893 224.397 118.023 224.396 105.849C224.396 93.6742 231.293 83.8042 239.801 83.804Z"/>
</mask>
<path d="M239.801 83.804C246.617 83.804 252.399 90.1401 254.429 98.9211L248.033 105.318L255.005 109.399C253.818 119.885 247.464 127.893 239.801 127.893C231.293 127.893 224.397 118.023 224.396 105.849C224.396 93.6742 231.293 83.8042 239.801 83.804Z" fill="#181651"/>
<path d="M239.801 83.804L239.801 78.2836L239.801 78.2836L239.801 83.804ZM254.429 98.9211L258.332 102.824L260.496 100.66L259.807 97.678L254.429 98.9211ZM248.033 105.318L244.129 101.414L239.075 106.47L245.244 110.082L248.033 105.318ZM255.005 109.399L260.49 110.019L260.894 106.449L257.794 104.635L255.005 109.399ZM239.801 127.893L239.801 133.413H239.801V127.893ZM224.396 105.849L218.876 105.849L218.876 105.849L224.396 105.849ZM239.801 83.804V89.3243C242.862 89.3243 247.282 92.5119 249.05 100.164L254.429 98.9211L259.807 97.678C257.517 87.7683 250.372 78.2836 239.801 78.2836V83.804ZM254.429 98.9211L250.525 95.018L244.129 101.414L248.033 105.318L251.937 109.221L258.332 102.824L254.429 98.9211ZM248.033 105.318L245.244 110.082L252.216 114.163L255.005 109.399L257.794 104.635L250.822 100.554L248.033 105.318ZM255.005 109.399L249.52 108.778C249.027 113.132 247.482 116.718 245.549 119.095C243.623 121.463 241.574 122.372 239.801 122.372V127.893V133.413C245.691 133.413 250.651 130.319 254.114 126.062C257.57 121.813 259.796 116.152 260.49 110.019L255.005 109.399ZM239.801 127.893L239.801 122.372C237.847 122.372 235.51 121.246 233.433 118.274C231.369 115.32 229.917 110.944 229.917 105.849L224.396 105.849L218.876 105.849C218.876 112.928 220.872 119.574 224.383 124.598C227.882 129.605 233.247 133.413 239.801 133.413L239.801 127.893ZM224.396 105.849H229.917C229.917 100.753 231.369 96.3771 233.433 93.4229C235.51 90.4507 237.847 89.3243 239.801 89.3243L239.801 83.804L239.801 78.2836C233.247 78.2838 227.882 82.0926 224.383 87.099C220.872 92.1236 218.876 98.7698 218.876 105.849H224.396Z" fill="#181651" mask="url(#path-19-inside-4_545_806)"/>
</g>
<mask id="mask1_545_806" style="mask-type:alpha" maskUnits="userSpaceOnUse" x="203" y="81" width="36" height="50">
<path d="M220.529 83.7827C216.833 83.7827 213.207 85.9133 210.393 89.9214C207.584 93.9213 205.76 99.5934 205.76 105.989C205.76 112.384 207.584 118.057 210.393 122.057C213.207 126.065 216.833 128.195 220.529 128.195C224.226 128.195 227.851 126.065 230.665 122.057C233.474 118.057 235.299 112.384 235.299 105.989C235.299 99.5933 233.473 93.9213 230.665 89.9214C227.851 85.9134 224.226 83.7828 220.529 83.7827Z" fill="#D9D9D9" stroke="black" stroke-width="5.52034"/>
</mask>
<g mask="url(#mask1_545_806)">
<path d="M220.529 83.7827C216.833 83.7827 213.207 85.9133 210.393 89.9214C207.584 93.9213 205.76 99.5934 205.76 105.989C205.76 112.384 207.584 118.057 210.393 122.057C213.207 126.065 216.833 128.195 220.529 128.195C224.226 128.195 227.851 126.065 230.665 122.057C233.474 118.057 235.299 112.384 235.299 105.989C235.299 99.5933 233.473 93.9213 230.665 89.9214C227.851 85.9134 224.226 83.7828 220.529 83.7827Z" fill="#FDFCFA" stroke="#181651" stroke-width="5.52034"/>
<mask id="path-23-inside-5_545_806" fill="white">
<path d="M210.637 85.804C217.453 85.804 223.235 92.14 225.265 100.921L218.869 107.318L225.841 111.399C224.654 121.885 218.3 129.893 210.637 129.893C202.129 129.893 195.232 120.023 195.232 107.848C195.233 95.6733 202.129 85.8041 210.637 85.804Z"/>
</mask>
<path d="M210.637 85.804C217.453 85.804 223.235 92.14 225.265 100.921L218.869 107.318L225.841 111.399C224.654 121.885 218.3 129.893 210.637 129.893C202.129 129.893 195.232 120.023 195.232 107.848C195.233 95.6733 202.129 85.8041 210.637 85.804Z" fill="#181651"/>
<path d="M210.637 85.804L210.637 80.2836L210.637 80.2836L210.637 85.804ZM225.265 100.921L229.168 104.824L231.332 102.66L230.643 99.6781L225.265 100.921ZM218.869 107.318L214.965 103.414L209.911 108.47L216.08 112.082L218.869 107.318ZM225.841 111.399L231.326 112.019L231.73 108.45L228.63 106.635L225.841 111.399ZM210.637 129.893L210.637 135.413H210.637V129.893ZM195.232 107.848L189.712 107.848V107.848H195.232ZM210.637 85.804V91.3243C213.698 91.3243 218.117 94.5118 219.886 102.164L225.265 100.921L230.643 99.6781C228.353 89.7682 221.208 80.2836 210.637 80.2836V85.804ZM225.265 100.921L221.361 97.018L214.965 103.414L218.869 107.318L222.773 111.221L229.168 104.824L225.265 100.921ZM218.869 107.318L216.08 112.082L223.052 116.163L225.841 111.399L228.63 106.635L221.658 102.554L218.869 107.318ZM225.841 111.399L220.355 110.778C219.863 115.132 218.318 118.718 216.385 121.095C214.459 123.463 212.409 124.372 210.637 124.372V129.893V135.413C216.527 135.413 221.486 132.319 224.95 128.062C228.406 123.813 230.632 118.152 231.326 112.019L225.841 111.399ZM210.637 129.893L210.637 124.372C208.683 124.372 206.346 123.246 204.269 120.274C202.205 117.32 200.753 112.944 200.753 107.848H195.232H189.712C189.712 114.927 191.708 121.573 195.219 126.598C198.717 131.604 204.083 135.413 210.637 135.413L210.637 129.893ZM195.232 107.848L200.753 107.848C200.753 102.752 202.205 98.3765 204.269 95.4226C206.346 92.4506 208.683 91.3243 210.637 91.3243L210.637 85.804L210.637 80.2836C204.083 80.2837 198.718 84.0922 195.219 89.0985C191.708 94.1228 189.712 100.769 189.712 107.848L195.232 107.848Z" fill="#181651" mask="url(#path-23-inside-5_545_806)"/>
</g>
</svg>
