<svg width="465" height="717" viewBox="0 0 465 717" fill="none" xmlns="http://www.w3.org/2000/svg">
<path d="M292.488 380.258L393.495 504.652L416.326 636.796L329.531 636.797L306.359 521.128L306.131 519.987L305.324 519.147L215.037 424.974L292.488 380.258Z" fill="#0059F7" stroke="#181651" stroke-width="8"/>
<mask id="path-2-inside-1_545_788" fill="white">
<path d="M325.621 678.78L325.803 678.78L325.803 713.003L464.117 713.003L464.117 674.105C464.117 663.55 455.56 654.993 445.004 654.993L403.619 654.993L403.619 634.704L325.621 634.704L325.621 678.78Z"/>
</mask>
<path d="M325.621 678.78L325.803 678.78L325.803 713.003L464.117 713.003L464.117 674.105C464.117 663.55 455.56 654.993 445.004 654.993L403.619 654.993L403.619 634.704L325.621 634.704L325.621 678.78Z" fill="#DF271C"/>
<path d="M325.621 678.78L325.621 686.78L317.621 686.78L317.621 678.78L325.621 678.78ZM325.803 678.78L325.803 670.78L333.803 670.78L333.803 678.78L325.803 678.78ZM325.803 713.003L325.803 721.003L317.803 721.003L317.803 713.003L325.803 713.003ZM464.117 713.003L472.117 713.003L472.117 721.003L464.117 721.003L464.117 713.003ZM464.117 674.105L472.117 674.105L472.117 674.105L464.117 674.105ZM403.619 654.993L403.619 662.993L395.619 662.993L395.619 654.993L403.619 654.993ZM403.619 634.704L403.619 626.704L411.619 626.704L411.619 634.704L403.619 634.704ZM325.621 634.704L317.621 634.704L317.621 626.704L325.621 626.704L325.621 634.704ZM325.621 678.78L325.621 670.78L325.803 670.78L325.803 678.78L325.803 686.78L325.621 686.78L325.621 678.78ZM325.803 678.78L333.803 678.78L333.803 713.003L325.803 713.003L317.803 713.003L317.803 678.78L325.803 678.78ZM325.803 713.003L325.803 705.003L464.117 705.003L464.117 713.003L464.117 721.003L325.803 721.003L325.803 713.003ZM464.117 713.003L456.117 713.003L456.117 674.105L464.117 674.105L472.117 674.105L472.117 713.003L464.117 713.003ZM464.117 674.105L456.117 674.105C456.117 667.968 451.142 662.993 445.004 662.993L445.004 654.993L445.004 646.993C459.977 646.993 472.117 659.131 472.117 674.105L464.117 674.105ZM445.004 654.993L445.004 662.993L403.619 662.993L403.619 654.993L403.619 646.993L445.004 646.993L445.004 654.993ZM403.619 654.993L395.619 654.993L395.619 634.704L403.619 634.704L411.619 634.704L411.619 654.993L403.619 654.993ZM403.619 634.704L403.619 642.704L325.621 642.704L325.621 634.704L325.621 626.704L403.619 626.704L403.619 634.704ZM325.621 634.704L333.621 634.704L333.621 678.78L325.621 678.78L317.621 678.78L317.621 634.704L325.621 634.704Z" fill="#181651" mask="url(#path-2-inside-1_545_788)"/>
<path d="M204.553 627.482L75.1702 661.559L78.906 577.692L140.748 566.75L143.193 566.318L143.89 563.935L188.238 412.283L280.467 412.285L204.553 627.482Z" fill="#0059F7" stroke="#181651" stroke-width="8"/>
<mask id="path-5-inside-2_545_788" fill="white">
<path d="M34.2226 574.109L34.2226 574.291L-0.000983702 574.291L-0.000976562 712.606L38.8965 712.606C49.4521 712.606 58.0096 704.049 58.0098 693.493L58.0098 652.108L78.2988 652.108L78.2988 574.109L34.2226 574.109Z"/>
</mask>
<path d="M34.2226 574.109L34.2226 574.291L-0.000983702 574.291L-0.000976562 712.606L38.8965 712.606C49.4521 712.606 58.0096 704.049 58.0098 693.493L58.0098 652.108L78.2988 652.108L78.2988 574.109L34.2226 574.109Z" fill="#DF271C"/>
<path d="M34.2226 574.109L26.2226 574.109L26.2226 566.109L34.2226 566.109L34.2226 574.109ZM34.2226 574.291L42.2226 574.291L42.2226 582.291L34.2226 582.291L34.2226 574.291ZM-0.000983702 574.291L-8.00098 574.291L-8.00098 566.291L-0.000984115 566.291L-0.000983702 574.291ZM-0.000976562 712.606L-0.00097615 720.606L-8.00098 720.606L-8.00098 712.606L-0.000976562 712.606ZM58.0098 693.493L66.0098 693.493L66.0098 693.493L58.0098 693.493ZM58.0098 652.108L50.0098 652.108L50.0098 644.108L58.0098 644.108L58.0098 652.108ZM78.2988 652.108L86.2988 652.108L86.2988 660.108L78.2988 660.108L78.2988 652.108ZM78.2988 574.109L78.2988 566.109L86.2988 566.109L86.2988 574.109L78.2988 574.109ZM34.2226 574.109L42.2226 574.109L42.2226 574.291L34.2226 574.291L26.2226 574.291L26.2226 574.109L34.2226 574.109ZM34.2226 574.291L34.2226 582.291L-0.000983289 582.291L-0.000983702 574.291L-0.000984115 566.291L34.2226 566.291L34.2226 574.291ZM-0.000983702 574.291L7.99902 574.291L7.99902 712.606L-0.000976562 712.606L-8.00098 712.606L-8.00098 574.291L-0.000983702 574.291ZM-0.000976562 712.606L-0.000976975 704.606L38.8965 704.606L38.8965 712.606L38.8965 720.606L-0.00097615 720.606L-0.000976562 712.606ZM38.8965 712.606L38.8965 704.606C45.0342 704.606 50.0097 699.63 50.0098 693.493L58.0098 693.493L66.0098 693.493C66.0095 708.468 53.87 720.606 38.8965 720.606L38.8965 712.606ZM58.0098 693.493L50.0098 693.493L50.0098 652.108L58.0098 652.108L66.0098 652.108L66.0098 693.493L58.0098 693.493ZM58.0098 652.108L58.0098 644.108L78.2988 644.108L78.2988 652.108L78.2988 660.108L58.0098 660.108L58.0098 652.108ZM78.2988 652.108L70.2988 652.108L70.2988 574.109L78.2988 574.109L86.2988 574.109L86.2988 652.108L78.2988 652.108ZM78.2988 574.109L78.2988 582.109L34.2226 582.109L34.2226 574.109L34.2226 566.109L78.2988 566.109L78.2988 574.109Z" fill="#181651" mask="url(#path-5-inside-2_545_788)"/>
<path d="M229.795 98.8123C242.038 98.8123 251.964 108.737 251.964 120.98C251.964 131.858 244.129 140.905 233.795 142.788V143.149H225.795V142.788C215.461 140.904 207.627 131.858 207.627 120.98C207.627 108.737 217.552 98.8124 229.795 98.8123ZM229.795 116.107C227.104 116.107 224.922 118.289 224.922 120.98C224.922 123.671 227.104 125.853 229.795 125.853C232.486 125.853 234.668 123.671 234.668 120.98C234.668 118.289 232.486 116.107 229.795 116.107Z" fill="#EBE4CE" stroke="#181651" stroke-width="8"/>
<path d="M16.6211 257.844L182.021 244.524L192.133 370.083C194.818 403.422 169.969 432.625 136.63 435.31L91.9598 438.907C58.6211 441.592 29.4181 416.742 26.7331 383.404L16.6211 257.844Z" fill="#181651"/>
<path d="M328.508 423.782L178.924 436.5L183.475 248.763L189.825 136.726L274.004 126.43L296.079 234.228L328.508 423.782Z" fill="#EBE4CE"/>
<path d="M183.475 248.763L189.825 136.726L274.004 126.43L296.079 234.228M183.475 248.763L178.924 436.5L328.508 423.782L296.079 234.228M183.475 248.763L296.079 234.228" stroke="#181651" stroke-width="8"/>
<mask id="path-11-inside-3_545_788" fill="white">
<path d="M331.486 423.244L332.077 426.517L328.763 426.799L179.179 439.516L175.809 439.803L175.895 436.422L180.827 243.619L296.594 230.092L331.486 423.244Z"/>
</mask>
<path d="M331.486 423.244L332.077 426.517L328.763 426.799L179.179 439.516L175.809 439.803L175.895 436.422L180.827 243.619L296.594 230.092L331.486 423.244Z" fill="#05CC75"/>
<path d="M331.486 423.244L339.359 421.823L339.359 421.822L331.486 423.244ZM332.077 426.517L332.754 434.489L341.511 433.746L339.95 425.096L332.077 426.517ZM328.763 426.799L328.086 418.827L328.085 418.827L328.763 426.799ZM179.179 439.516L178.501 431.545L178.5 431.545L179.179 439.516ZM175.809 439.803L167.811 439.6L167.584 448.533L176.488 447.775L175.809 439.803ZM175.895 436.422L167.897 436.217L167.897 436.218L175.895 436.422ZM180.827 243.619L179.899 235.673L173.007 236.478L172.83 243.414L180.827 243.619ZM296.594 230.092L304.466 228.669L303.13 221.273L295.665 222.146L296.594 230.092ZM331.486 423.244L323.614 424.665L324.204 427.938L332.077 426.517L339.95 425.096L339.359 421.823L331.486 423.244ZM332.077 426.517L331.401 418.546L328.086 418.827L328.763 426.799L329.439 434.77L332.754 434.489L332.077 426.517ZM328.763 426.799L328.085 418.827L178.501 431.545L179.179 439.516L179.856 447.488L329.44 434.77L328.763 426.799ZM179.179 439.516L178.5 431.545L175.13 431.832L175.809 439.803L176.488 447.775L179.858 447.487L179.179 439.516ZM175.809 439.803L183.806 440.007L183.892 436.625L175.895 436.422L167.897 436.218L167.811 439.6L175.809 439.803ZM175.895 436.422L183.892 436.626L188.825 243.823L180.827 243.619L172.83 243.414L167.897 436.217L175.895 436.422ZM180.827 243.619L181.756 251.565L297.522 238.037L296.594 230.092L295.665 222.146L179.899 235.673L180.827 243.619ZM296.594 230.092L288.721 231.514L323.614 424.666L331.486 423.244L339.359 421.822L304.466 228.669L296.594 230.092Z" fill="#181651" mask="url(#path-11-inside-3_545_788)"/>
<path d="M296.411 340.21C296.411 341.663 264.92 336.374 249.174 333.548V290.55C250.789 288.329 254.382 283.767 255.836 283.282C257.652 282.677 274.609 282.071 276.426 282.071C277.88 282.071 286.722 285.301 290.961 286.916L304.284 303.267C304.89 310.131 306.222 324.221 306.707 325.675C307.312 327.492 296.411 338.393 296.411 340.21Z" fill="#EBE4CE"/>
<path d="M183.771 262.692C183.769 314.169 173.234 411.55 215.868 411.065C250.964 410.667 281.628 370.024 298.469 338.998M298.469 338.998C302.087 332.334 305.066 326.113 307.315 320.83C308.123 307.911 302.591 282.071 274.007 282.071C257.05 282.071 248.571 296.606 248.571 296.606V333.548L298.469 338.998Z" stroke="#181651" stroke-width="8"/>
<path d="M245.54 297.818C245.54 262.693 201.936 265.115 182.557 265.115L185.585 247.552C183.768 246.543 187.886 244.524 218.893 244.524C249.9 244.524 262.901 269.96 265.525 282.678L245.54 297.818Z" fill="#181651"/>
<path d="M243.621 202.53V202.53C251.146 212.13 266.091 210.679 271.63 199.812V199.812" stroke="#181651" stroke-width="7"/>
<mask id="mask0_545_788" style="mask-type:alpha" maskUnits="userSpaceOnUse" x="249" y="143" width="36" height="51">
<path d="M266.846 146.572C263.149 146.572 259.523 148.703 256.709 152.711C253.901 156.711 252.076 162.383 252.076 168.778C252.076 175.174 253.9 180.846 256.709 184.846C259.523 188.855 263.149 190.984 266.846 190.984C270.542 190.984 274.167 188.854 276.981 184.846C279.79 180.846 281.615 175.174 281.615 168.778C281.615 162.383 279.79 156.711 276.981 152.711C274.167 148.703 270.542 146.572 266.846 146.572Z" fill="#D9D9D9" stroke="black" stroke-width="5.52034"/>
</mask>
<g mask="url(#mask0_545_788)">
<path d="M266.846 146.572C263.149 146.572 259.523 148.703 256.709 152.711C253.901 156.711 252.076 162.383 252.076 168.778C252.076 175.174 253.9 180.846 256.709 184.846C259.523 188.855 263.149 190.984 266.846 190.984C270.542 190.984 274.167 188.854 276.981 184.846C279.79 180.846 281.615 175.174 281.615 168.778C281.615 162.383 279.79 156.711 276.981 152.711C274.167 148.703 270.542 146.572 266.846 146.572Z" fill="#FDFCFA" stroke="#181651" stroke-width="5.52034"/>
<mask id="path-19-inside-4_545_788" fill="white">
<path d="M256.422 148.593C263.238 148.593 269.02 154.929 271.05 163.71L264.654 170.107L271.626 174.188C270.439 184.675 264.085 192.682 256.422 192.682C247.914 192.682 241.018 182.813 241.018 170.638C241.018 158.463 247.914 148.594 256.422 148.593Z"/>
</mask>
<path d="M256.422 148.593C263.238 148.593 269.02 154.929 271.05 163.71L264.654 170.107L271.626 174.188C270.439 184.675 264.085 192.682 256.422 192.682C247.914 192.682 241.018 182.813 241.018 170.638C241.018 158.463 247.914 148.594 256.422 148.593Z" fill="#181651"/>
<path d="M256.422 148.593L256.422 143.073L256.422 143.073L256.422 148.593ZM271.05 163.71L274.954 167.614L277.118 165.449L276.428 162.467L271.05 163.71ZM264.654 170.107L260.751 166.204L255.696 171.259L261.866 174.871L264.654 170.107ZM271.626 174.188L277.111 174.809L277.515 171.239L274.415 169.424L271.626 174.188ZM256.422 192.682L256.422 198.202H256.422V192.682ZM241.018 170.638L235.497 170.638L235.497 170.638L241.018 170.638ZM256.422 148.593V154.114C259.484 154.114 263.903 157.301 265.671 164.954L271.05 163.71L276.428 162.467C274.138 152.558 266.993 143.073 256.422 143.073V148.593ZM271.05 163.71L267.146 159.807L260.751 166.204L264.654 170.107L268.558 174.01L274.954 167.614L271.05 163.71ZM264.654 170.107L261.866 174.871L268.837 178.952L271.626 174.188L274.415 169.424L267.443 165.343L264.654 170.107ZM271.626 174.188L266.141 173.567C265.648 177.921 264.104 181.508 262.17 183.884C260.244 186.252 258.195 187.162 256.422 187.162V192.682V198.202C262.312 198.202 267.272 195.109 270.735 190.851C274.191 186.602 276.417 180.942 277.111 174.809L271.626 174.188ZM256.422 192.682L256.422 187.162C254.468 187.162 252.131 186.035 250.054 183.063C247.99 180.11 246.538 175.734 246.538 170.638L241.018 170.638L235.497 170.638C235.497 177.717 237.493 184.363 241.004 189.388C244.503 194.394 249.868 198.202 256.422 198.202L256.422 192.682ZM241.018 170.638H246.538C246.538 165.543 247.99 161.166 250.054 158.212C252.131 155.24 254.468 154.114 256.422 154.114L256.422 148.593L256.422 143.073C249.868 143.073 244.503 146.882 241.004 151.888C237.493 156.913 235.497 163.559 235.497 170.638H241.018Z" fill="#181651" mask="url(#path-19-inside-4_545_788)"/>
</g>
<mask id="mask1_545_788" style="mask-type:alpha" maskUnits="userSpaceOnUse" x="219" y="145" width="36" height="51">
<path d="M237.15 148.572C233.454 148.572 229.828 150.703 227.014 154.711C224.205 158.711 222.381 164.383 222.381 170.778C222.381 177.174 224.205 182.846 227.014 186.846C229.828 190.855 233.454 192.984 237.15 192.984C240.847 192.984 244.472 190.854 247.286 186.846C250.095 182.846 251.92 177.174 251.92 170.778C251.92 164.383 250.095 158.711 247.286 154.711C244.472 150.703 240.847 148.572 237.15 148.572Z" fill="#D9D9D9" stroke="black" stroke-width="5.52034"/>
</mask>
<g mask="url(#mask1_545_788)">
<path d="M237.15 148.572C233.454 148.572 229.828 150.703 227.014 154.711C224.205 158.711 222.381 164.383 222.381 170.778C222.381 177.174 224.205 182.846 227.014 186.846C229.828 190.855 233.454 192.984 237.15 192.984C240.847 192.984 244.472 190.854 247.286 186.846C250.095 182.846 251.92 177.174 251.92 170.778C251.92 164.383 250.095 158.711 247.286 154.711C244.472 150.703 240.847 148.572 237.15 148.572Z" fill="#FDFCFA" stroke="#181651" stroke-width="5.52034"/>
<mask id="path-23-inside-5_545_788" fill="white">
<path d="M227.258 150.593C234.074 150.593 239.856 156.929 241.886 165.71L235.49 172.107L242.462 176.188C241.275 186.675 234.921 194.682 227.258 194.682C218.75 194.682 211.854 184.812 211.854 172.637C211.854 160.463 218.75 150.593 227.258 150.593Z"/>
</mask>
<path d="M227.258 150.593C234.074 150.593 239.856 156.929 241.886 165.71L235.49 172.107L242.462 176.188C241.275 186.675 234.921 194.682 227.258 194.682C218.75 194.682 211.854 184.812 211.854 172.637C211.854 160.463 218.75 150.593 227.258 150.593Z" fill="#181651"/>
<path d="M227.258 150.593L227.258 145.073L227.258 145.073L227.258 150.593ZM241.886 165.71L245.79 169.614L247.953 167.449L247.264 164.467L241.886 165.71ZM235.49 172.107L231.586 168.204L226.532 173.259L232.701 176.871L235.49 172.107ZM242.462 176.188L247.947 176.809L248.351 173.239L245.251 171.424L242.462 176.188ZM227.258 194.682L227.258 200.202H227.258V194.682ZM211.854 172.637L206.333 172.637V172.637H211.854ZM227.258 150.593V156.114C230.32 156.114 234.739 159.301 236.507 166.954L241.886 165.71L247.264 164.467C244.974 154.558 237.829 145.073 227.258 145.073V150.593ZM241.886 165.71L237.982 161.807L231.586 168.204L235.49 172.107L239.394 176.01L245.79 169.614L241.886 165.71ZM235.49 172.107L232.701 176.871L239.673 180.952L242.462 176.188L245.251 171.424L238.279 167.343L235.49 172.107ZM242.462 176.188L236.977 175.567C236.484 179.921 234.939 183.508 233.006 185.884C231.08 188.252 229.031 189.162 227.258 189.162V194.682V200.202C233.148 200.202 238.108 197.109 241.571 192.851C245.027 188.602 247.253 182.942 247.947 176.809L242.462 176.188ZM227.258 194.682L227.258 189.162C225.304 189.162 222.967 188.035 220.89 185.063C218.826 182.109 217.374 177.733 217.374 172.637H211.854H206.333C206.333 179.716 208.329 186.363 211.84 191.387C215.339 196.394 220.704 200.202 227.258 200.202L227.258 194.682ZM211.854 172.637L217.374 172.637C217.374 167.542 218.826 163.166 220.89 160.212C222.967 157.24 225.304 156.114 227.258 156.114L227.258 150.593L227.258 145.073C220.704 145.073 215.339 148.881 211.84 153.888C208.329 158.912 206.333 165.558 206.333 172.637L211.854 172.637Z" fill="#181651" mask="url(#path-23-inside-5_545_788)"/>
</g>
</svg>
