<svg width="318" height="225" viewBox="0 0 318 225" fill="none" xmlns="http://www.w3.org/2000/svg">
<mask id="path-1-outside-1_851_2540" maskUnits="userSpaceOnUse" x="0" y="0" width="318" height="225" fill="black">
<rect fill="white" width="318" height="225"/>
<path d="M312 7.54297V65.4404L235.621 66.2871L251.144 219H66.8564L82.3789 66.2871L6 65.4404V7.54297L84.9287 6C106.258 18.6246 154.082 19.9798 159 20.0869C163.918 19.9798 211.742 18.6246 233.071 6L312 7.54297Z"/>
</mask>
<path d="M312 7.54297V65.4404L235.621 66.2871L251.144 219H66.8564L82.3789 66.2871L6 65.4404V7.54297L84.9287 6C106.258 18.6246 154.082 19.9798 159 20.0869C163.918 19.9798 211.742 18.6246 233.071 6L312 7.54297Z" fill="#0059F7"/>
<path d="M312 7.54297H317.2V2.44363L312.102 2.34396L312 7.54297ZM312 65.4404L312.058 70.6401L317.2 70.5831V65.4404H312ZM235.621 66.2871L235.563 61.0874L229.872 61.1505L230.448 66.813L235.621 66.2871ZM251.144 219V224.2H256.899L256.317 218.474L251.144 219ZM66.8564 219L61.6831 218.474L61.1011 224.2H66.8564V219ZM82.3789 66.2871L87.5523 66.813L88.1278 61.1505L82.4365 61.0874L82.3789 66.2871ZM6 65.4404H0.8V70.5831L5.94236 70.6401L6 65.4404ZM6 7.54297L5.89837 2.34396L0.8 2.44363V7.54297H6ZM84.9287 6L87.5774 1.52511L86.3052 0.772099L84.8271 0.800994L84.9287 6ZM159 20.0869L158.887 25.2857L159 25.2881L159.113 25.2857L159 20.0869ZM233.071 6L233.173 0.800994L231.695 0.772099L230.423 1.52511L233.071 6ZM312 7.54297H306.8V65.4404H312H317.2V7.54297H312ZM312 65.4404L311.942 60.2407L235.563 61.0874L235.621 66.2871L235.679 71.4868L312.058 70.6401L312 65.4404ZM235.621 66.2871L230.448 66.813L245.97 219.526L251.144 219L256.317 218.474L240.794 65.7613L235.621 66.2871ZM251.144 219V213.8H66.8564V219V224.2H251.144V219ZM66.8564 219L72.0298 219.526L87.5523 66.813L82.3789 66.2871L77.2056 65.7613L61.6831 218.474L66.8564 219ZM82.3789 66.2871L82.4365 61.0874L6.05764 60.2407L6 65.4404L5.94236 70.6401L82.3213 71.4868L82.3789 66.2871ZM6 65.4404H11.2V7.54297H6H0.8V65.4404H6ZM6 7.54297L6.10163 12.742L85.0303 11.199L84.9287 6L84.8271 0.800994L5.89837 2.34396L6 7.54297ZM84.9287 6L82.2801 10.4749C93.9616 17.3891 112.227 20.9659 127.465 22.8963C142.956 24.8588 156.343 25.2303 158.887 25.2857L159 20.0869L159.113 14.8881C156.739 14.8364 143.755 14.4768 128.772 12.5787C113.536 10.6486 97.225 7.23545 87.5774 1.52511L84.9287 6ZM159 20.0869L159.113 25.2857C161.657 25.2303 175.044 24.8588 190.535 22.8963C205.773 20.9659 224.038 17.3891 235.72 10.4749L233.071 6L230.423 1.52511C220.775 7.23545 204.464 10.6486 189.228 12.5787C174.245 14.4768 161.261 14.8364 158.887 14.8881L159 20.0869ZM233.071 6L232.97 11.199L311.898 12.742L312 7.54297L312.102 2.34396L233.173 0.800994L233.071 6Z" fill="#181651" mask="url(#path-1-outside-1_851_2540)"/>
</svg>
