<svg width="317" height="225" viewBox="0 0 317 225" fill="none" xmlns="http://www.w3.org/2000/svg">
<mask id="path-1-outside-1_454_646" maskUnits="userSpaceOnUse" x="0" y="0.146484" width="317" height="225" fill="black">
<rect fill="white" y="0.146484" width="317" height="225"/>
<path d="M310.849 7.68945V65.5869L234.758 66.4336L250.221 219.146H66.6279L82.0908 66.4336L6 65.5869V7.68945L84.6318 6.14648C105.881 18.7709 153.524 20.1263 158.424 20.2334C163.318 20.1265 210.966 18.7717 232.217 6.14648L310.849 7.68945Z"/>
</mask>
<path d="M310.849 7.68945V65.5869L234.758 66.4336L250.221 219.146H66.6279L82.0908 66.4336L6 65.5869V7.68945L84.6318 6.14648C105.881 18.7709 153.524 20.1263 158.424 20.2334C163.318 20.1265 210.966 18.7717 232.217 6.14648L310.849 7.68945Z" fill="#05CC75"/>
<path d="M310.849 7.68945H316.049V2.59049L310.951 2.49045L310.849 7.68945ZM310.849 65.5869L310.906 70.7866L316.049 70.7294V65.5869H310.849ZM234.758 66.4336L234.7 61.2339L229.011 61.2972L229.584 66.9574L234.758 66.4336ZM250.221 219.146V224.346H255.974L255.394 218.623L250.221 219.146ZM66.6279 219.146L61.4544 218.623L60.8748 224.346H66.6279V219.146ZM82.0908 66.4336L87.2644 66.9574L87.8375 61.2972L82.1487 61.2339L82.0908 66.4336ZM6 65.5869H0.8V70.7294L5.94214 70.7866L6 65.5869ZM6 7.68945L5.89798 2.49045L0.8 2.59049L0.8 7.68945H6ZM84.6318 6.14648L87.2879 1.67597L86.0127 0.918387L84.5298 0.947485L84.6318 6.14648ZM158.424 20.2334L158.31 25.4322L158.424 25.4346L158.537 25.4322L158.424 20.2334ZM232.217 6.14648L232.319 0.947485L230.836 0.918387L229.561 1.67597L232.217 6.14648ZM310.849 7.68945H305.649V65.5869H310.849H316.049V7.68945H310.849ZM310.849 65.5869L310.791 60.3872L234.7 61.2339L234.758 66.4336L234.816 71.6333L310.906 70.7866L310.849 65.5869ZM234.758 66.4336L229.584 66.9574L245.047 219.67L250.221 219.146L255.394 218.623L239.931 65.9097L234.758 66.4336ZM250.221 219.146V213.946H66.6279V219.146V224.346H250.221V219.146ZM66.6279 219.146L71.8015 219.67L87.2644 66.9574L82.0908 66.4336L76.9173 65.9097L61.4544 218.623L66.6279 219.146ZM82.0908 66.4336L82.1487 61.2339L6.05786 60.3872L6 65.5869L5.94214 70.7866L82.033 71.6333L82.0908 66.4336ZM6 65.5869H11.2V7.68945H6H0.8V65.5869H6ZM6 7.68945L6.10202 12.8885L84.7339 11.3455L84.6318 6.14648L84.5298 0.947485L5.89798 2.49045L6 7.68945ZM84.6318 6.14648L81.9758 10.617C93.619 17.5344 111.822 21.1119 127.003 23.0424C142.437 25.0052 155.775 25.3768 158.31 25.4322L158.424 20.2334L158.537 15.0346C156.173 14.983 143.239 14.6233 128.315 12.7255C113.137 10.7954 96.8936 7.38294 87.2879 1.67597L84.6318 6.14648ZM158.424 20.2334L158.537 25.4322C161.07 25.3768 174.407 25.0054 189.843 23.0428C205.024 21.1124 223.229 17.5349 234.873 10.617L232.217 6.14648L229.561 1.67597C219.954 7.38334 203.71 10.7958 188.531 12.7259C173.606 14.6236 160.672 14.983 158.31 15.0346L158.424 20.2334ZM232.217 6.14648L232.115 11.3455L310.747 12.8885L310.849 7.68945L310.951 2.49045L232.319 0.947485L232.217 6.14648Z" fill="#181651" mask="url(#path-1-outside-1_454_646)"/>
</svg>
