<svg width="317" height="225" viewBox="0 0 317 225" fill="none" xmlns="http://www.w3.org/2000/svg">
<mask id="path-1-outside-1_290_361" maskUnits="userSpaceOnUse" x="0" y="0" width="317" height="225" fill="black">
<rect fill="white" width="317" height="225"/>
<path d="M310.849 7.54297V65.4404L234.758 66.2871L250.221 219H66.6279L82.0908 66.2871L6 65.4404V7.54297L84.6318 6C105.881 18.6244 153.524 19.9798 158.424 20.0869C163.318 19.98 210.966 18.6253 232.217 6L310.849 7.54297Z"/>
</mask>
<path d="M310.849 7.54297V65.4404L234.758 66.2871L250.221 219H66.6279L82.0908 66.2871L6 65.4404V7.54297L84.6318 6C105.881 18.6244 153.524 19.9798 158.424 20.0869C163.318 19.98 210.966 18.6253 232.217 6L310.849 7.54297Z" fill="#0066FF"/>
<path d="M310.849 7.54297H316.049V2.44401L310.951 2.34397L310.849 7.54297ZM310.849 65.4404L310.906 70.6401L316.049 70.5829V65.4404H310.849ZM234.758 66.2871L234.7 61.0874L229.011 61.1507L229.584 66.811L234.758 66.2871ZM250.221 219V224.2H255.974L255.394 218.476L250.221 219ZM66.6279 219L61.4544 218.476L60.8748 224.2H66.6279V219ZM82.0908 66.2871L87.2644 66.811L87.8375 61.1507L82.1487 61.0874L82.0908 66.2871ZM6 65.4404H0.8V70.5829L5.94214 70.6401L6 65.4404ZM6 7.54297L5.89798 2.34397L0.8 2.44401L0.8 7.54297H6ZM84.6318 6L87.2879 1.52948L86.0127 0.771902L84.5298 0.801001L84.6318 6ZM158.424 20.0869L158.31 25.2857L158.424 25.2882L158.537 25.2857L158.424 20.0869ZM232.217 6L232.319 0.801001L230.836 0.771902L229.561 1.52948L232.217 6ZM310.849 7.54297H305.649V65.4404H310.849H316.049V7.54297H310.849ZM310.849 65.4404L310.791 60.2408L234.7 61.0874L234.758 66.2871L234.816 71.4868L310.906 70.6401L310.849 65.4404ZM234.758 66.2871L229.584 66.811L245.047 219.524L250.221 219L255.394 218.476L239.931 65.7633L234.758 66.2871ZM250.221 219V213.8H66.6279V219V224.2H250.221V219ZM66.6279 219L71.8015 219.524L87.2644 66.811L82.0908 66.2871L76.9173 65.7633L61.4544 218.476L66.6279 219ZM82.0908 66.2871L82.1487 61.0874L6.05786 60.2408L6 65.4404L5.94214 70.6401L82.033 71.4868L82.0908 66.2871ZM6 65.4404H11.2V7.54297H6H0.8V65.4404H6ZM6 7.54297L6.10202 12.742L84.7339 11.199L84.6318 6L84.5298 0.801001L5.89798 2.34397L6 7.54297ZM84.6318 6L81.9758 10.4705C93.619 17.388 111.822 20.9654 127.003 22.8959C142.437 24.8587 155.775 25.2303 158.31 25.2857L158.424 20.0869L158.537 14.8882C156.173 14.8365 143.239 14.4768 128.315 12.579C113.137 10.6489 96.8936 7.23646 87.2879 1.52948L84.6318 6ZM158.424 20.0869L158.537 25.2857C161.07 25.2304 174.407 24.859 189.843 22.8963C205.024 20.9659 223.229 17.3884 234.873 10.4705L232.217 6L229.561 1.52948C219.954 7.23685 203.71 10.6494 188.531 12.5794C173.606 14.4771 160.672 14.8365 158.31 14.8882L158.424 20.0869ZM232.217 6L232.115 11.199L310.747 12.742L310.849 7.54297L310.951 2.34397L232.319 0.801001L232.217 6Z" fill="#181651" mask="url(#path-1-outside-1_290_361)"/>
</svg>
