<svg width="464" height="225" viewBox="0 0 464 225" fill="none" xmlns="http://www.w3.org/2000/svg">
<mask id="path-1-outside-1_458_476" maskUnits="userSpaceOnUse" x="74" y="0" width="317" height="225" fill="black">
<rect fill="white" x="74" width="317" height="225"/>
<path d="M384.848 7.54297V65.4404L308.757 66.2871L324.22 219H140.628L156.091 66.2871L80 65.4404V7.54297L158.632 6C179.881 18.6244 227.524 19.9798 232.424 20.0869C237.324 19.9798 284.967 18.6244 306.216 6L384.848 7.54297Z"/>
</mask>
<path d="M384.848 7.54297V65.4404L308.757 66.2871L324.22 219H140.628L156.091 66.2871L80 65.4404V7.54297L158.632 6C179.881 18.6244 227.524 19.9798 232.424 20.0869C237.324 19.9798 284.967 18.6244 306.216 6L384.848 7.54297Z" fill="#0059F7"/>
<path d="M384.848 7.54297H390.048V2.44401L384.95 2.34397L384.848 7.54297ZM384.848 65.4404L384.906 70.6401L390.048 70.5829V65.4404H384.848ZM308.757 66.2871L308.699 61.0874L303.01 61.1507L303.583 66.811L308.757 66.2871ZM324.22 219V224.2H329.973L329.393 218.476L324.22 219ZM140.628 219L135.454 218.476L134.875 224.2H140.628V219ZM156.091 66.2871L161.264 66.811L161.837 61.1507L156.149 61.0874L156.091 66.2871ZM80 65.4404H74.8V70.5829L79.9421 70.6401L80 65.4404ZM80 7.54297L79.898 2.34397L74.8 2.44401V7.54297H80ZM158.632 6L161.288 1.52948L160.013 0.771902L158.53 0.801001L158.632 6ZM232.424 20.0869L232.31 25.2857L232.424 25.2882L232.537 25.2857L232.424 20.0869ZM306.216 6L306.318 0.801001L304.835 0.771902L303.56 1.52948L306.216 6ZM384.848 7.54297H379.648V65.4404H384.848H390.048V7.54297H384.848ZM384.848 65.4404L384.79 60.2408L308.699 61.0874L308.757 66.2871L308.815 71.4868L384.906 70.6401L384.848 65.4404ZM308.757 66.2871L303.583 66.811L319.046 219.524L324.22 219L329.393 218.476L313.93 65.7633L308.757 66.2871ZM324.22 219V213.8H140.628V219V224.2H324.22V219ZM140.628 219L145.801 219.524L161.264 66.811L156.091 66.2871L150.917 65.7633L135.454 218.476L140.628 219ZM156.091 66.2871L156.149 61.0874L80.0579 60.2408L80 65.4404L79.9421 70.6401L156.033 71.4868L156.091 66.2871ZM80 65.4404H85.2V7.54297H80H74.8V65.4404H80ZM80 7.54297L80.102 12.742L158.734 11.199L158.632 6L158.53 0.801001L79.898 2.34397L80 7.54297ZM158.632 6L155.976 10.4705C167.619 17.388 185.822 20.9654 201.003 22.8959C216.437 24.8587 229.775 25.2303 232.31 25.2857L232.424 20.0869L232.537 14.8882C230.173 14.8365 217.239 14.4768 202.315 12.579C187.137 10.6489 170.894 7.23646 161.288 1.52948L158.632 6ZM232.424 20.0869L232.537 25.2857C235.072 25.2303 248.41 24.8587 263.845 22.8959C279.026 20.9654 297.229 17.388 308.872 10.4705L306.216 6L303.56 1.52948C293.954 7.23646 277.711 10.6489 262.533 12.579C247.609 14.4768 234.675 14.8365 232.31 14.8882L232.424 20.0869ZM306.216 6L306.114 11.199L384.746 12.742L384.848 7.54297L384.95 2.34397L306.318 0.801001L306.216 6Z" fill="#181651" mask="url(#path-1-outside-1_458_476)"/>
</svg>
