<svg width="418" height="257" viewBox="0 0 418 257" fill="none" xmlns="http://www.w3.org/2000/svg">
<rect x="122" y="234" width="174" height="20" fill="#05CC75" stroke="#181651" stroke-width="5.2"/>
<path d="M101.289 8.25175C120.089 -8.14825 168.455 17.7518 190.289 32.7518L117.789 24.752C104.455 28.4186 82.4888 24.6518 101.289 8.25175Z" fill="#05CC75" stroke="#181651" stroke-width="5.2"/>
<path d="M317.289 8.25175C298.489 -8.14825 250.122 17.7518 228.289 32.7518L300.789 26.752C314.122 30.4186 336.089 24.6518 317.289 8.25175Z" fill="#05CC75" stroke="#181651" stroke-width="5.2"/>
<mask id="path-4-outside-1_867_1225" maskUnits="userSpaceOnUse" x="0" y="15" width="418" height="225" fill="black">
<rect fill="white" y="15" width="418" height="225"/>
<path d="M412 22.543V80.4404L295.621 81.2871L311.144 234H106.856L122.379 81.2871L6 80.4404V22.543L134.929 21C156.258 33.6246 204.082 34.9798 209 35.0869C213.918 34.9798 261.742 33.6246 283.071 21L412 22.543Z"/>
</mask>
<path d="M412 22.543V80.4404L295.621 81.2871L311.144 234H106.856L122.379 81.2871L6 80.4404V22.543L134.929 21C156.258 33.6246 204.082 34.9798 209 35.0869C213.918 34.9798 261.742 33.6246 283.071 21L412 22.543Z" fill="#05CC75"/>
<path d="M412 22.543H417.2V17.4048L412.062 17.3433L412 22.543ZM412 80.4404L412.038 85.6403L417.2 85.6027V80.4404H412ZM295.621 81.2871L295.583 76.0872L289.87 76.1288L290.448 81.813L295.621 81.2871ZM311.144 234V239.2H316.899L316.317 233.474L311.144 234ZM106.856 234L101.683 233.474L101.101 239.2H106.856V234ZM122.379 81.2871L127.552 81.813L128.13 76.1288L122.417 76.0872L122.379 81.2871ZM6 80.4404H0.8V85.6027L5.96217 85.6403L6 80.4404ZM6 22.543L5.93777 17.3433L0.8 17.4048V22.543H6ZM134.929 21L137.577 16.5251L136.323 15.7829L134.866 15.8004L134.929 21ZM209 35.0869L208.887 40.2857L209 40.2881L209.113 40.2857L209 35.0869ZM283.071 21L283.134 15.8004L281.677 15.7829L280.423 16.5251L283.071 21ZM412 22.543H406.8V80.4404H412H417.2V22.543H412ZM412 80.4404L411.962 75.2406L295.583 76.0872L295.621 81.2871L295.659 86.487L412.038 85.6403L412 80.4404ZM295.621 81.2871L290.448 81.813L305.97 234.526L311.144 234L316.317 233.474L300.794 80.7613L295.621 81.2871ZM311.144 234V228.8H106.856V234V239.2H311.144V234ZM106.856 234L112.03 234.526L127.552 81.813L122.379 81.2871L117.206 80.7613L101.683 233.474L106.856 234ZM122.379 81.2871L122.417 76.0872L6.03783 75.2406L6 80.4404L5.96217 85.6403L122.341 86.487L122.379 81.2871ZM6 80.4404H11.2V22.543H6H0.8V80.4404H6ZM6 22.543L6.06223 27.7426L134.991 26.1996L134.929 21L134.866 15.8004L5.93777 17.3433L6 22.543ZM134.929 21L132.28 25.4749C143.962 32.3891 162.227 35.9659 177.465 37.8963C192.956 39.8588 206.343 40.2303 208.887 40.2857L209 35.0869L209.113 29.8881C206.739 29.8364 193.755 29.4768 178.772 27.5787C163.536 25.6486 147.225 22.2355 137.577 16.5251L134.929 21ZM209 35.0869L209.113 40.2857C211.657 40.2303 225.044 39.8588 240.535 37.8963C255.773 35.9659 274.038 32.3891 285.72 25.4749L283.071 21L280.423 16.5251C270.775 22.2355 254.464 25.6486 239.228 27.5787C224.245 29.4768 211.261 29.8364 208.887 29.8881L209 35.0869ZM283.071 21L283.009 26.1996L411.938 27.7426L412 22.543L412.062 17.3433L283.134 15.8004L283.071 21Z" fill="#181651" mask="url(#path-4-outside-1_867_1225)"/>
<path d="M254.848 159C258.488 178.817 273.655 188.045 280.783 190.183L278.048 210H139.735L137 190.183C144.129 188.045 159.295 178.817 162.936 159H254.848Z" fill="#05CC75"/>
<path d="M254.848 159L257.405 158.53L257.014 156.4H254.848V159ZM280.783 190.183L283.359 190.538L283.663 188.332L281.53 187.692L280.783 190.183ZM278.048 210V212.6H280.314L280.623 210.356L278.048 210ZM139.735 210L137.16 210.356L137.47 212.6H139.735V210ZM137 190.183L136.253 187.692L134.12 188.332L134.424 190.538L137 190.183ZM162.936 159V156.4H160.77L160.378 158.53L162.936 159ZM254.848 159L252.29 159.47C256.151 180.487 272.232 190.333 280.037 192.673L280.783 190.183L281.53 187.692C275.077 185.758 260.825 177.148 257.405 158.53L254.848 159ZM280.783 190.183L278.208 189.827L275.472 209.644L278.048 210L280.623 210.356L283.359 190.538L280.783 190.183ZM278.048 210V207.4H139.735V210V212.6H278.048V210ZM139.735 210L142.311 209.644L139.576 189.827L137 190.183L134.424 190.538L137.16 210.356L139.735 210ZM137 190.183L137.747 192.673C145.551 190.333 161.632 180.487 165.493 159.47L162.936 159L160.378 158.53C156.959 177.148 142.706 185.758 136.253 187.692L137 190.183ZM162.936 159V161.6H254.848V159V156.4H162.936V159Z" fill="#181651"/>
<path d="M184.6 91.5C187.178 92.5322 189 95.0528 189 98C189 101.866 185.866 105 182 105C178.134 105 175 101.866 175 98C175 95.0528 176.822 92.5322 179.4 91.5V33H184.6V91.5Z" fill="#181651"/>
<path d="M238.6 91.5C241.178 92.5322 243 95.0528 243 98C243 101.866 239.866 105 236 105C232.134 105 229 101.866 229 98C229 95.0528 230.822 92.5322 233.4 91.5V33H238.6V91.5Z" fill="#181651"/>
</svg>
