<svg width="464" height="257" viewBox="0 0 464 257" fill="none" xmlns="http://www.w3.org/2000/svg">
<rect x="145" y="234" width="174" height="20" fill="#05CC75" stroke="#181651" stroke-width="5.2"/>
<path d="M124.289 8.25175C143.089 -8.14825 191.455 17.7518 213.289 32.7518L140.789 24.752C127.455 28.4186 105.489 24.6518 124.289 8.25175Z" fill="#05CC75" stroke="#181651" stroke-width="5.2"/>
<path d="M340.289 8.25175C321.489 -8.14825 273.122 17.7518 251.289 32.7518L323.789 26.752C337.122 30.4186 359.089 24.6518 340.289 8.25175Z" fill="#05CC75" stroke="#181651" stroke-width="5.2"/>
<mask id="path-4-outside-1_865_1055" maskUnits="userSpaceOnUse" x="23" y="15" width="418" height="225" fill="black">
<rect fill="white" x="23" y="15" width="418" height="225"/>
<path d="M435 22.543V80.4404L318.621 81.2871L334.144 234H129.856L145.379 81.2871L29 80.4404V22.543L157.929 21C179.258 33.6246 227.082 34.9798 232 35.0869C236.918 34.9798 284.742 33.6246 306.071 21L435 22.543Z"/>
</mask>
<path d="M435 22.543V80.4404L318.621 81.2871L334.144 234H129.856L145.379 81.2871L29 80.4404V22.543L157.929 21C179.258 33.6246 227.082 34.9798 232 35.0869C236.918 34.9798 284.742 33.6246 306.071 21L435 22.543Z" fill="#05CC75"/>
<path d="M435 22.543H440.2V17.4048L435.062 17.3433L435 22.543ZM435 80.4404L435.038 85.6403L440.2 85.6027V80.4404H435ZM318.621 81.2871L318.583 76.0872L312.87 76.1288L313.448 81.813L318.621 81.2871ZM334.144 234V239.2H339.899L339.317 233.474L334.144 234ZM129.856 234L124.683 233.474L124.101 239.2H129.856V234ZM145.379 81.2871L150.552 81.813L151.13 76.1288L145.417 76.0872L145.379 81.2871ZM29 80.4404H23.8V85.6027L28.9622 85.6403L29 80.4404ZM29 22.543L28.9378 17.3433L23.8 17.4048V22.543H29ZM157.929 21L160.577 16.5251L159.323 15.7829L157.866 15.8004L157.929 21ZM232 35.0869L231.887 40.2857L232 40.2881L232.113 40.2857L232 35.0869ZM306.071 21L306.134 15.8004L304.677 15.7829L303.423 16.5251L306.071 21ZM435 22.543H429.8V80.4404H435H440.2V22.543H435ZM435 80.4404L434.962 75.2406L318.583 76.0872L318.621 81.2871L318.659 86.487L435.038 85.6403L435 80.4404ZM318.621 81.2871L313.448 81.813L328.97 234.526L334.144 234L339.317 233.474L323.794 80.7613L318.621 81.2871ZM334.144 234V228.8H129.856V234V239.2H334.144V234ZM129.856 234L135.03 234.526L150.552 81.813L145.379 81.2871L140.206 80.7613L124.683 233.474L129.856 234ZM145.379 81.2871L145.417 76.0872L29.0378 75.2406L29 80.4404L28.9622 85.6403L145.341 86.487L145.379 81.2871ZM29 80.4404H34.2V22.543H29H23.8V80.4404H29ZM29 22.543L29.0622 27.7426L157.991 26.1996L157.929 21L157.866 15.8004L28.9378 17.3433L29 22.543ZM157.929 21L155.28 25.4749C166.962 32.3891 185.227 35.9659 200.465 37.8963C215.956 39.8588 229.343 40.2303 231.887 40.2857L232 35.0869L232.113 29.8881C229.739 29.8364 216.755 29.4768 201.772 27.5787C186.536 25.6486 170.225 22.2355 160.577 16.5251L157.929 21ZM232 35.0869L232.113 40.2857C234.657 40.2303 248.044 39.8588 263.535 37.8963C278.773 35.9659 297.038 32.3891 308.72 25.4749L306.071 21L303.423 16.5251C293.775 22.2355 277.464 25.6486 262.228 27.5787C247.245 29.4768 234.261 29.8364 231.887 29.8881L232 35.0869ZM306.071 21L306.009 26.1996L434.938 27.7426L435 22.543L435.062 17.3433L306.134 15.8004L306.071 21Z" fill="#181651" mask="url(#path-4-outside-1_865_1055)"/>
<path d="M277.848 159C281.488 178.817 296.655 188.045 303.783 190.183L301.048 210H162.735L160 190.183C167.129 188.045 182.295 178.817 185.936 159H277.848Z" fill="#05CC75"/>
<path d="M277.848 159L280.405 158.53L280.014 156.4H277.848V159ZM303.783 190.183L306.359 190.538L306.663 188.332L304.53 187.692L303.783 190.183ZM301.048 210V212.6H303.314L303.623 210.356L301.048 210ZM162.735 210L160.16 210.356L160.47 212.6H162.735V210ZM160 190.183L159.253 187.692L157.12 188.332L157.424 190.538L160 190.183ZM185.936 159V156.4H183.77L183.378 158.53L185.936 159ZM277.848 159L275.29 159.47C279.151 180.487 295.232 190.333 303.037 192.673L303.783 190.183L304.53 187.692C298.077 185.758 283.825 177.148 280.405 158.53L277.848 159ZM303.783 190.183L301.208 189.827L298.472 209.644L301.048 210L303.623 210.356L306.359 190.538L303.783 190.183ZM301.048 210V207.4H162.735V210V212.6H301.048V210ZM162.735 210L165.311 209.644L162.576 189.827L160 190.183L157.424 190.538L160.16 210.356L162.735 210ZM160 190.183L160.747 192.673C168.551 190.333 184.632 180.487 188.493 159.47L185.936 159L183.378 158.53C179.959 177.148 165.706 185.758 159.253 187.692L160 190.183ZM185.936 159V161.6H277.848V159V156.4H185.936V159Z" fill="#181651"/>
<path d="M207.6 91.5C210.178 92.5322 212 95.0528 212 98C212 101.866 208.866 105 205 105C201.134 105 198 101.866 198 98C198 95.0528 199.822 92.5322 202.4 91.5V33H207.6V91.5Z" fill="#181651"/>
<path d="M261.6 91.5C264.178 92.5322 266 95.0528 266 98C266 101.866 262.866 105 259 105C255.134 105 252 101.866 252 98C252 95.0528 253.822 92.5322 256.4 91.5V33H261.6V91.5Z" fill="#181651"/>
</svg>
