<svg width="418" height="254" viewBox="0 0 418 254" fill="none" xmlns="http://www.w3.org/2000/svg">
<rect x="122" y="231" width="174" height="20" fill="#DF271C" stroke="#181651" stroke-width="5.2"/>
<mask id="path-2-outside-1_867_1260" maskUnits="userSpaceOnUse" x="0" y="12" width="418" height="225" fill="black">
<rect fill="white" y="12" width="418" height="225"/>
<path d="M412 19.543V77.4404L295.621 78.2871L311.144 231H106.856L122.379 78.2871L6 77.4404V19.543L134.929 18C155.765 30.333 201.885 74.7955 208.59 81.3018V78.0977C208.629 78.0626 260.58 31.3125 283.071 18L412 19.543Z"/>
</mask>
<path d="M412 19.543V77.4404L295.621 78.2871L311.144 231H106.856L122.379 78.2871L6 77.4404V19.543L134.929 18C155.765 30.333 201.885 74.7955 208.59 81.3018V78.0977C208.629 78.0626 260.58 31.3125 283.071 18L412 19.543Z" fill="#DF271C"/>
<path d="M412 19.543H417.2V14.4048L412.062 14.3433L412 19.543ZM412 77.4404L412.038 82.6403L417.2 82.6027V77.4404H412ZM295.621 78.2871L295.583 73.0872L289.87 73.1288L290.448 78.813L295.621 78.2871ZM311.144 231V236.2H316.899L316.317 230.474L311.144 231ZM106.856 231L101.683 230.474L101.101 236.2H106.856V231ZM122.379 78.2871L127.552 78.813L128.13 73.1288L122.417 73.0872L122.379 78.2871ZM6 77.4404H0.8V82.6027L5.96217 82.6403L6 77.4404ZM6 19.543L5.93777 14.3433L0.8 14.4048V19.543H6ZM134.929 18L137.577 13.5251L136.323 12.7829L134.866 12.8004L134.929 18ZM208.59 81.3018L204.969 85.0337L213.79 93.5931V81.3018H208.59ZM208.59 78.0977L205.111 74.2323L203.39 75.7816V78.0977H208.59ZM283.071 18L283.134 12.8004L281.677 12.7829L280.423 13.5251L283.071 18ZM412 19.543H406.8V77.4404H412H417.2V19.543H412ZM412 77.4404L411.962 72.2406L295.583 73.0872L295.621 78.2871L295.659 83.487L412.038 82.6403L412 77.4404ZM295.621 78.2871L290.448 78.813L305.97 231.526L311.144 231L316.317 230.474L300.794 77.7613L295.621 78.2871ZM311.144 231V225.8H106.856V231V236.2H311.144V231ZM106.856 231L112.03 231.526L127.552 78.813L122.379 78.2871L117.206 77.7613L101.683 230.474L106.856 231ZM122.379 78.2871L122.417 73.0872L6.03783 72.2406L6 77.4404L5.96217 82.6403L122.341 83.487L122.379 78.2871ZM6 77.4404H11.2V19.543H6H0.8V77.4404H6ZM6 19.543L6.06223 24.7426L134.991 23.1996L134.929 18L134.866 12.8004L5.93777 14.3433L6 19.543ZM134.929 18L132.28 22.4749C142.175 28.332 158.533 42.1635 173.581 55.7016C188.483 69.1089 201.636 81.7998 204.969 85.0337L208.59 81.3018L212.211 77.5699C208.839 74.2975 195.579 61.5039 180.536 47.9701C165.639 34.5672 148.518 20.001 137.577 13.5251L134.929 18ZM208.59 81.3018H213.79V78.0977H208.59H203.39V81.3018H208.59ZM208.59 78.0977L212.068 81.963C212.071 81.9606 225.023 70.3051 240.767 56.9995C256.641 43.5845 274.917 28.8693 285.72 22.4749L283.071 18L280.423 13.5251C268.735 20.4432 249.789 35.7593 234.055 49.0562C218.191 62.4625 205.148 74.1996 205.111 74.2323L208.59 78.0977ZM283.071 18L283.009 23.1996L411.938 24.7426L412 19.543L412.062 14.3433L283.134 12.8004L283.071 18Z" fill="#181651" mask="url(#path-2-outside-1_867_1260)"/>
<path d="M209 70L209 250" stroke="#181651" stroke-width="5.2"/>
<path d="M198.5 95.0816L204.056 75H208.5V99L198.5 95.0816Z" fill="#181651"/>
<path d="M218.5 95.0816L212.944 75H208.5V99L218.5 95.0816Z" fill="#181651"/>
<path d="M182.001 15.5996C182.196 16.1467 182.422 16.7276 182.665 17.3252C183.292 18.8639 184.125 20.7289 185.096 22.8203C187.038 27.0026 189.589 32.2089 192.274 37.7227C197.593 48.6443 203.414 60.7366 206.4 69.0596V74.8086C194.934 64.5274 178.538 56.1561 162.224 49.7393C145.335 43.0967 128.243 38.4371 116.143 35.9023L128.433 15.5996H182.001Z" fill="#DF271C" stroke="#181651" stroke-width="5.2"/>
<path d="M235.999 15.5996C235.804 16.1467 235.578 16.7276 235.335 17.3252C234.708 18.8639 233.875 20.7289 232.904 22.8203C230.962 27.0026 228.411 32.2089 225.726 37.7227C220.407 48.6443 214.586 60.7366 211.6 69.0596V74.8086C223.066 64.5274 239.462 56.1561 255.776 49.7393C272.665 43.0967 289.757 38.4371 301.857 35.9023L289.567 15.5996H235.999Z" fill="#DF271C" stroke="#181651" stroke-width="5.2"/>
<path d="M142 212.5L164 141" stroke="#181651" stroke-width="5.2"/>
<path d="M276 212.5L254 141" stroke="#181651" stroke-width="5.2"/>
</svg>
