<svg width="464" height="254" viewBox="0 0 464 254" fill="none" xmlns="http://www.w3.org/2000/svg">
<rect x="145" y="231" width="174" height="20" fill="#DF271C" stroke="#181651" stroke-width="5.2"/>
<mask id="path-2-outside-1_867_1316" maskUnits="userSpaceOnUse" x="23" y="12" width="418" height="225" fill="black">
<rect fill="white" x="23" y="12" width="418" height="225"/>
<path d="M435 19.543V77.4404L318.621 78.2871L334.144 231H129.856L145.379 78.2871L29 77.4404V19.543L157.929 18C178.765 30.333 224.885 74.7955 231.59 81.3018V78.0977C231.629 78.0626 283.58 31.3125 306.071 18L435 19.543Z"/>
</mask>
<path d="M435 19.543V77.4404L318.621 78.2871L334.144 231H129.856L145.379 78.2871L29 77.4404V19.543L157.929 18C178.765 30.333 224.885 74.7955 231.59 81.3018V78.0977C231.629 78.0626 283.58 31.3125 306.071 18L435 19.543Z" fill="#DF271C"/>
<path d="M435 19.543H440.2V14.4048L435.062 14.3433L435 19.543ZM435 77.4404L435.038 82.6403L440.2 82.6027V77.4404H435ZM318.621 78.2871L318.583 73.0872L312.87 73.1288L313.448 78.813L318.621 78.2871ZM334.144 231V236.2H339.899L339.317 230.474L334.144 231ZM129.856 231L124.683 230.474L124.101 236.2H129.856V231ZM145.379 78.2871L150.552 78.813L151.13 73.1288L145.417 73.0872L145.379 78.2871ZM29 77.4404H23.8V82.6027L28.9622 82.6403L29 77.4404ZM29 19.543L28.9378 14.3433L23.8 14.4048V19.543H29ZM157.929 18L160.577 13.5251L159.323 12.7829L157.866 12.8004L157.929 18ZM231.59 81.3018L227.969 85.0337L236.79 93.5931V81.3018H231.59ZM231.59 78.0977L228.111 74.2323L226.39 75.7816V78.0977H231.59ZM306.071 18L306.134 12.8004L304.677 12.7829L303.423 13.5251L306.071 18ZM435 19.543H429.8V77.4404H435H440.2V19.543H435ZM435 77.4404L434.962 72.2406L318.583 73.0872L318.621 78.2871L318.659 83.487L435.038 82.6403L435 77.4404ZM318.621 78.2871L313.448 78.813L328.97 231.526L334.144 231L339.317 230.474L323.794 77.7613L318.621 78.2871ZM334.144 231V225.8H129.856V231V236.2H334.144V231ZM129.856 231L135.03 231.526L150.552 78.813L145.379 78.2871L140.206 77.7613L124.683 230.474L129.856 231ZM145.379 78.2871L145.417 73.0872L29.0378 72.2406L29 77.4404L28.9622 82.6403L145.341 83.487L145.379 78.2871ZM29 77.4404H34.2V19.543H29H23.8V77.4404H29ZM29 19.543L29.0622 24.7426L157.991 23.1996L157.929 18L157.866 12.8004L28.9378 14.3433L29 19.543ZM157.929 18L155.28 22.4749C165.175 28.332 181.533 42.1635 196.581 55.7016C211.483 69.1089 224.636 81.7998 227.969 85.0337L231.59 81.3018L235.211 77.5699C231.839 74.2975 218.579 61.5039 203.536 47.9701C188.639 34.5672 171.518 20.001 160.577 13.5251L157.929 18ZM231.59 81.3018H236.79V78.0977H231.59H226.39V81.3018H231.59ZM231.59 78.0977L235.068 81.963C235.071 81.9606 248.023 70.3051 263.767 56.9995C279.641 43.5845 297.917 28.8693 308.72 22.4749L306.071 18L303.423 13.5251C291.735 20.4432 272.789 35.7593 257.055 49.0562C241.191 62.4625 228.148 74.1996 228.111 74.2323L231.59 78.0977ZM306.071 18L306.009 23.1996L434.938 24.7426L435 19.543L435.062 14.3433L306.134 12.8004L306.071 18Z" fill="#181651" mask="url(#path-2-outside-1_867_1316)"/>
<path d="M232 70L232 250" stroke="#181651" stroke-width="5.2"/>
<path d="M165 212.5L187 141" stroke="#181651" stroke-width="5.2"/>
<path d="M299 212.5L277 141" stroke="#181651" stroke-width="5.2"/>
<path d="M221.5 95.0816L227.056 75H231.5V99L221.5 95.0816Z" fill="#181651"/>
<path d="M241.5 95.0816L235.944 75H231.5V99L241.5 95.0816Z" fill="#181651"/>
<path d="M205.001 15.5996C205.196 16.1467 205.422 16.7276 205.665 17.3252C206.292 18.8639 207.125 20.7289 208.096 22.8203C210.038 27.0026 212.589 32.2089 215.274 37.7227C220.593 48.6443 226.414 60.7366 229.4 69.0596V74.8086C217.934 64.5274 201.538 56.1561 185.224 49.7393C168.335 43.0967 151.243 38.4371 139.143 35.9023L151.433 15.5996H205.001Z" fill="#DF271C" stroke="#181651" stroke-width="5.2"/>
<path d="M258.999 15.5996C258.804 16.1467 258.578 16.7276 258.335 17.3252C257.708 18.8639 256.875 20.7289 255.904 22.8203C253.962 27.0026 251.411 32.2089 248.726 37.7227C243.407 48.6443 237.586 60.7366 234.6 69.0596V74.8086C246.066 64.5274 262.462 56.1561 278.776 49.7393C295.665 43.0967 312.757 38.4371 324.857 35.9023L312.567 15.5996H258.999Z" fill="#DF271C" stroke="#181651" stroke-width="5.2"/>
</svg>
