<svg width="44" height="63" viewBox="0 0 44 63" fill="none" xmlns="http://www.w3.org/2000/svg">
<mask id="path-1-inside-1_899_656" fill="white">
<path d="M21.8652 0C9.78932 2.99258e-05 0.000121742 14.009 0 31.29C0 48.5712 9.78924 62.581 21.8652 62.5811C33.9412 62.5811 43.7305 48.5712 43.7305 31.29C43.7305 28.7076 43.5109 26.1984 43.0986 23.7979L26.1416 18.7363L39.0605 11.958C35.057 4.67597 28.8423 0 21.8652 0Z"/>
</mask>
<path d="M21.8652 0C9.78932 2.99258e-05 0.000121742 14.009 0 31.29C0 48.5712 9.78924 62.581 21.8652 62.5811C33.9412 62.5811 43.7305 48.5712 43.7305 31.29C43.7305 28.7076 43.5109 26.1984 43.0986 23.7979L26.1416 18.7363L39.0605 11.958C35.057 4.67597 28.8423 0 21.8652 0Z" fill="#181651"/>
<path d="M21.8652 0L21.8652 -11.5404H21.8652V0ZM0 31.29L-11.5404 31.29L-11.5404 31.29L0 31.29ZM21.8652 62.5811L21.8652 74.1215L21.8652 74.1215L21.8652 62.5811ZM43.7305 31.29L55.2709 31.29V31.29H43.7305ZM43.0986 23.7979L46.3994 12.7396L53.2607 14.7876L54.4726 21.8447L43.0986 23.7979ZM26.1416 18.7363L22.8408 29.7946L-4.32103 21.687L20.7798 8.51714L26.1416 18.7363ZM39.0605 11.958L49.1734 6.39819L54.8426 16.7099L44.4224 22.1772L39.0605 11.958ZM21.8652 0L21.8653 11.5404C20.6357 11.5404 18.3348 12.239 15.8638 15.7749C13.4193 19.2732 11.5405 24.7227 11.5404 31.2901L0 31.29L-11.5404 31.29C-11.5403 20.5764 -8.52453 10.3809 -3.05546 2.55435C2.38724 -5.23441 11.0188 -11.5404 21.8652 -11.5404L21.8652 0ZM0 31.29H11.5404C11.5404 37.8575 13.4193 43.3073 15.8639 46.8059C18.3349 50.3422 20.6359 51.0406 21.8653 51.0407L21.8652 62.5811L21.8652 74.1215C11.0186 74.1214 2.38693 67.815 -3.05565 60.0261C-8.52464 52.1994 -11.5404 42.0037 -11.5404 31.29H0ZM21.8652 62.5811V51.0407C23.0946 51.0407 25.3956 50.3422 27.8666 46.8059C30.3112 43.3074 32.1901 37.8576 32.1901 31.29H43.7305H55.2709C55.2709 42.0037 52.2551 52.1994 46.7861 60.0261C41.3435 67.815 32.7119 74.1215 21.8652 74.1215V62.5811ZM43.7305 31.29L32.1901 31.2901C32.1901 29.3605 32.0259 27.5047 31.7247 25.751L43.0986 23.7979L54.4726 21.8447C54.9958 24.892 55.2709 28.0546 55.2709 31.29L43.7305 31.29ZM43.0986 23.7979L39.7978 34.8561L22.8408 29.7946L26.1416 18.7363L29.4424 7.67804L46.3994 12.7396L43.0986 23.7979ZM26.1416 18.7363L20.7798 8.51714L33.6987 1.73882L39.0605 11.958L44.4224 22.1772L31.5034 28.9555L26.1416 18.7363ZM39.0605 11.958L28.9477 17.5178C26.2011 12.5219 23.2441 11.5404 21.8652 11.5404V0V-11.5404C34.4406 -11.5404 43.913 -3.16997 49.1734 6.39819L39.0605 11.958Z" fill="#181651" mask="url(#path-1-inside-1_899_656)"/>
</svg>
