<svg width="320" height="256" viewBox="0 0 320 256" fill="none" xmlns="http://www.w3.org/2000/svg">
<mask id="mask0_458_548" style="mask-type:luminance" maskUnits="userSpaceOnUse" x="0" y="0" width="320" height="256">
<path d="M320 0H0V256H320V0Z" fill="white"/>
</mask>
<g mask="url(#mask0_458_548)">
<path fill-rule="evenodd" clip-rule="evenodd" d="M84.0309 28L35.5762 228.401H160.076H284.576L236.121 28H160.076H84.0309Z" fill="white"/>
<path d="M320.154 256.401H0L61.9951 0H258.159L320.154 256.401ZM35.5771 228.401H284.577L236.122 28H84.0322L35.5771 228.401Z" fill="#F1E8CA"/>
<path fill-rule="evenodd" clip-rule="evenodd" d="M84.0309 28L35.5762 228.401H160.076H284.576L236.121 28H160.076H84.0309Z" fill="#F07508"/>
<path d="M236.121 28L284.576 228.401H35.5762L84.0313 28H236.121ZM54.6358 213.401H265.517L224.316 43H95.836L54.6358 213.401Z" fill="#181651"/>
</g>
</svg>
