<svg width="137" height="93" viewBox="0 0 137 93" fill="none" xmlns="http://www.w3.org/2000/svg">
<mask id="path-1-inside-1_899_629" fill="white">
<path d="M32.2041 0C14.4185 0 0 20.6331 0 46.085C0.000144958 71.5367 14.4185 92.1689 32.2041 92.1689C49.9894 92.1686 64.4071 71.5364 64.4072 46.085C64.4072 42.2814 64.0837 38.5854 63.4766 35.0498L38.501 27.5947L57.5283 17.6123C51.632 6.88733 42.4799 0.000201679 32.2041 0Z"/>
</mask>
<path d="M32.2041 0C14.4185 0 0 20.6331 0 46.085C0.000144958 71.5367 14.4185 92.1689 32.2041 92.1689C49.9894 92.1686 64.4071 71.5364 64.4072 46.085C64.4072 42.2814 64.0837 38.5854 63.4766 35.0498L38.501 27.5947L57.5283 17.6123C51.632 6.88733 42.4799 0.000201679 32.2041 0Z" fill="#181651"/>
<path d="M32.2041 0V-11.5404H32.2043L32.2041 0ZM0 46.085L-11.5404 46.085V46.085H0ZM32.2041 92.1689L32.2043 103.709H32.2041V92.1689ZM64.4072 46.085H75.9476V46.085L64.4072 46.085ZM63.4766 35.0498L66.7774 23.9915L73.6387 26.0396L74.8505 33.0967L63.4766 35.0498ZM38.501 27.5947L35.2001 38.653L8.03709 30.545L33.1395 17.3753L38.501 27.5947ZM57.5283 17.6123L67.6412 12.0525L73.3105 22.3646L62.8898 27.8317L57.5283 17.6123ZM32.2041 0V11.5404C28.1197 11.5404 23.234 13.8949 18.892 20.1084C14.5765 26.284 11.5404 35.4323 11.5404 46.085H0H-11.5404C-11.5404 31.2858 -7.36726 17.3915 -0.0271606 6.88766C7.28652 -3.5784 18.5028 -11.5404 32.2041 -11.5404V0ZM0 46.085L11.5404 46.0849C11.5405 56.7375 14.5766 65.8855 18.892 72.0609C23.2339 78.274 28.1196 80.6285 32.2041 80.6285V92.1689V103.709C18.5031 103.709 7.28676 95.7477 -0.0270004 85.2818C-7.36714 74.7782 -11.5403 60.8841 -11.5404 46.085L0 46.085ZM32.2041 92.1689L32.2039 80.6285C36.2883 80.6285 41.1738 78.2739 45.5155 72.0608C49.8308 65.8854 52.8668 56.7375 52.8668 46.0849L64.4072 46.085L75.9476 46.085C75.9475 60.8839 71.7746 74.7778 64.4347 85.2814C57.1212 95.7474 45.9053 103.709 32.2043 103.709L32.2041 92.1689ZM64.4072 46.085H52.8668C52.8668 42.9345 52.5987 39.8919 52.1026 37.0029L63.4766 35.0498L74.8505 33.0967C75.5686 37.2788 75.9476 41.6283 75.9476 46.085H64.4072ZM63.4766 35.0498L60.1757 46.1081L35.2001 38.653L38.501 27.5947L41.8018 16.5365L66.7774 23.9915L63.4766 35.0498ZM38.501 27.5947L33.1395 17.3753L52.1669 7.39292L57.5283 17.6123L62.8898 27.8317L43.8624 37.8141L38.501 27.5947ZM57.5283 17.6123L47.4155 23.1721C42.7757 14.7326 36.881 11.5405 32.2039 11.5404L32.2041 0L32.2043 -11.5404C48.0788 -11.5401 60.4883 -0.957948 67.6412 12.0525L57.5283 17.6123Z" fill="#181651" mask="url(#path-1-inside-1_899_629)"/>
<mask id="path-3-inside-2_899_629" fill="white">
<path d="M104.611 0C86.8257 0 72.4072 20.6331 72.4072 46.085C72.4074 71.5367 86.8258 92.1689 104.611 92.1689C122.397 92.1686 136.814 71.5364 136.814 46.085C136.814 42.2814 136.491 38.5854 135.884 35.0498L110.908 27.5947L129.936 17.6123C124.039 6.88733 114.887 0.000201679 104.611 0Z"/>
</mask>
<path d="M104.611 0C86.8257 0 72.4072 20.6331 72.4072 46.085C72.4074 71.5367 86.8258 92.1689 104.611 92.1689C122.397 92.1686 136.814 71.5364 136.814 46.085C136.814 42.2814 136.491 38.5854 135.884 35.0498L110.908 27.5947L129.936 17.6123C124.039 6.88733 114.887 0.000201679 104.611 0Z" fill="#181651"/>
<path d="M104.611 0V-11.5404H104.612L104.611 0ZM72.4072 46.085L60.8668 46.085V46.085H72.4072ZM104.611 92.1689L104.612 103.709H104.611V92.1689ZM136.814 46.085H148.355V46.085L136.814 46.085ZM135.884 35.0498L139.185 23.9915L146.046 26.0396L147.258 33.0967L135.884 35.0498ZM110.908 27.5947L107.607 38.653L80.4443 30.545L105.547 17.3753L110.908 27.5947ZM129.936 17.6123L140.048 12.0525L145.718 22.3646L135.297 27.8317L129.936 17.6123ZM104.611 0V11.5404C100.527 11.5404 95.6412 13.8949 91.2993 20.1084C86.9837 26.284 83.9476 35.4323 83.9476 46.085H72.4072H60.8668C60.8668 31.2858 65.04 17.3915 72.3801 6.88766C79.6937 -3.5784 90.9101 -11.5404 104.611 -11.5404V0ZM72.4072 46.085L83.9476 46.0849C83.9477 56.7375 86.9838 65.8855 91.2993 72.0609C95.6411 78.274 100.527 80.6285 104.611 80.6285V92.1689V103.709C90.9103 103.709 79.694 95.7477 72.3802 85.2818C65.0401 74.7782 60.8669 60.8841 60.8668 46.085L72.4072 46.085ZM104.611 92.1689L104.611 80.6285C108.696 80.6285 113.581 78.2739 117.923 72.0608C122.238 65.8854 125.274 56.7375 125.274 46.0849L136.814 46.085L148.355 46.085C148.355 60.8839 144.182 74.7778 136.842 85.2814C129.528 95.7474 118.312 103.709 104.612 103.709L104.611 92.1689ZM136.814 46.085H125.274C125.274 42.9345 125.006 39.8919 124.51 37.0029L135.884 35.0498L147.258 33.0967C147.976 37.2788 148.355 41.6283 148.355 46.085H136.814ZM135.884 35.0498L132.583 46.1081L107.607 38.653L110.908 27.5947L114.209 16.5365L139.185 23.9915L135.884 35.0498ZM110.908 27.5947L105.547 17.3753L124.574 7.39292L129.936 17.6123L135.297 27.8317L116.27 37.8141L110.908 27.5947ZM129.936 17.6123L119.823 23.1721C115.183 14.7326 109.288 11.5405 104.611 11.5404L104.611 0L104.612 -11.5404C120.486 -11.5401 132.896 -0.957948 140.048 12.0525L129.936 17.6123Z" fill="#181651" mask="url(#path-3-inside-2_899_629)"/>
</svg>
