<svg width="147" height="105" viewBox="0 0 147 105" fill="none" xmlns="http://www.w3.org/2000/svg">
<path d="M36.6455 5.77051C44.3732 5.77051 51.9527 10.2234 57.8359 18.6025C63.7071 26.9646 67.5215 38.8224 67.5215 52.1924C67.5215 65.5624 63.7071 77.4202 57.8359 85.7822C51.9527 94.1613 44.3732 98.6143 36.6455 98.6143C28.918 98.6142 21.3392 94.1611 15.4561 85.7822C9.58486 77.4202 5.77052 65.5624 5.77051 52.1924C5.77051 38.8223 9.58484 26.9646 15.4561 18.6025C21.3392 10.2236 28.9179 5.77056 36.6455 5.77051Z" fill="#FDFCFA" stroke="#181651" stroke-width="11.5404"/>
<path d="M109.937 5.77051C117.665 5.77051 125.244 10.2234 131.127 18.6025C136.999 26.9646 140.813 38.8224 140.813 52.1924C140.813 65.5624 136.999 77.4202 131.127 85.7822C125.244 94.1613 117.665 98.6143 109.937 98.6143C102.209 98.6142 94.6307 94.1611 88.7476 85.7822C82.8764 77.4202 79.062 65.5624 79.062 52.1924C79.062 38.8223 82.8763 26.9646 88.7476 18.6025C94.6307 10.2236 102.209 5.77056 109.937 5.77051Z" fill="#FDFCFA" stroke="#181651" stroke-width="11.5404"/>
</svg>
