<svg width="365" height="378" viewBox="0 0 365 378" fill="none" xmlns="http://www.w3.org/2000/svg">
<path d="M182.078 17.0028C241.556 16.6853 295.149 39.6452 344.156 78.744L229.457 359.893L182.156 360.49V360.493L182.078 360.491L182 360.493V360.49L134.699 359.893L20 78.744C69.0072 39.6452 122.6 16.6853 182.078 17.0028Z" fill="#F07508"/>
<path d="M182.078 17.0028L181.99 33.5025L182.078 33.503L182.166 33.5025L182.078 17.0028ZM344.156 78.744L359.434 84.9767L364.097 73.5455L354.447 65.8459L344.156 78.744ZM229.457 359.893L229.665 376.392L240.603 376.254L244.735 366.126L229.457 359.893ZM182.156 360.49L181.948 343.991L165.656 344.197V360.49H182.156ZM182.156 360.493L181.744 376.988L198.656 377.411V360.493H182.156ZM182.078 360.491L182.49 343.996L182.078 343.986L181.666 343.996L182.078 360.491ZM182 360.493H165.5V377.411L182.412 376.988L182 360.493ZM182 360.49H198.5V344.197L182.208 343.991L182 360.49ZM134.699 359.893L119.422 366.126L123.554 376.254L134.491 376.392L134.699 359.893ZM20 78.744L9.70971 65.8459L0.0589218 73.5455L4.72246 84.9767L20 78.744ZM182.078 17.0028L182.166 33.5025C236.991 33.2099 287.031 54.2761 333.866 91.642L344.156 78.744L354.447 65.8459C303.267 25.0142 246.122 0.160751 181.99 0.502995L182.078 17.0028ZM344.156 78.744L328.879 72.5113L214.179 353.661L229.457 359.893L244.735 366.126L359.434 84.9767L344.156 78.744ZM229.457 359.893L229.249 343.395L181.948 343.991L182.156 360.49L182.364 376.989L229.665 376.392L229.457 359.893ZM182.156 360.49H165.656V360.493H182.156H198.656V360.49H182.156ZM182.156 360.493L182.569 343.998L182.49 343.996L182.078 360.491L181.666 376.986L181.744 376.988L182.156 360.493ZM182.078 360.491L181.666 343.996L181.588 343.998L182 360.493L182.412 376.988L182.49 376.986L182.078 360.491ZM182 360.493H198.5V360.49H182H165.5V360.493H182ZM182 360.49L182.208 343.991L134.907 343.395L134.699 359.893L134.491 376.392L181.792 376.989L182 360.49ZM134.699 359.893L149.977 353.661L35.2775 72.5113L20 78.744L4.72246 84.9767L119.422 366.126L134.699 359.893ZM20 78.744L30.2903 91.642C77.1255 54.2761 127.165 33.2099 181.99 33.5025L182.078 17.0028L182.166 0.502995C118.035 0.160751 60.889 25.0142 9.70971 65.8459L20 78.744Z" fill="#DF271C"/>
</svg>
