<svg width="464" height="678" viewBox="0 0 464 678" fill="none" xmlns="http://www.w3.org/2000/svg">
<path d="M231.776 6.39746C242.635 6.39754 251.438 15.2008 251.438 26.0596C251.437 36.9183 242.635 45.7206 231.776 45.7207C220.918 45.7207 212.114 36.9184 212.114 26.0596C212.114 15.2007 220.918 6.39746 231.776 6.39746ZM231.776 20.3301C228.612 20.3301 226.047 22.8955 226.047 26.0596C226.047 29.2236 228.612 31.7881 231.776 31.7881C234.94 31.788 237.505 29.2235 237.505 26.0596C237.505 22.8955 234.94 20.3302 231.776 20.3301Z" fill="#F1E8CA" stroke="#181651" stroke-width="5.20457"/>
<mask id="path-2-outside-1_458_438" maskUnits="userSpaceOnUse" x="-0.150391" y="36.5391" width="463" height="641" fill="black">
<rect fill="white" x="-0.150391" y="36.5391" width="463" height="641"/>
<path d="M213.056 672.294H139.613V647.428C139.613 644.234 142.203 641.645 145.396 641.645H213.056V672.294ZM318.883 641.645C322.077 641.645 324.666 644.234 324.666 647.428V672.294H251.224V641.645H318.883ZM314.256 641.644H251.078L238.495 388.933H225.599L213.016 641.643H149.838L163.902 365.801H163.901L152.4 204.205H5.84961V163.146H160.094L183.395 42.5391H280.884L304.185 163.146H457.55V204.205H311.878L300.377 365.801H300.191L314.256 641.644Z"/>
</mask>
<path d="M213.056 672.294H139.613V647.428C139.613 644.234 142.203 641.645 145.396 641.645H213.056V672.294ZM318.883 641.645C322.077 641.645 324.666 644.234 324.666 647.428V672.294H251.224V641.645H318.883ZM314.256 641.644H251.078L238.495 388.933H225.599L213.016 641.643H149.838L163.902 365.801H163.901L152.4 204.205H5.84961V163.146H160.094L183.395 42.5391H280.884L304.185 163.146H457.55V204.205H311.878L300.377 365.801H300.191L314.256 641.644Z" fill="#F1E8CA"/>
<path d="M213.056 672.294V677.499H218.26V672.294H213.056ZM139.613 672.294H134.409V677.499H139.613V672.294ZM213.056 641.645H218.26V636.44H213.056V641.645ZM324.666 672.294V677.499H329.871V672.294H324.666ZM251.224 672.294H246.019V677.499H251.224V672.294ZM251.224 641.645V636.44H246.019V641.645H251.224ZM314.256 641.644V646.848H319.733L319.454 641.379L314.256 641.644ZM251.078 641.644L245.88 641.902L246.126 646.848H251.078V641.644ZM238.495 388.933L243.693 388.674L243.447 383.728H238.495V388.933ZM225.599 388.933V383.728H220.647L220.401 388.674L225.599 388.933ZM213.016 641.643V646.847H217.967L218.214 641.901L213.016 641.643ZM149.838 641.643L144.64 641.378L144.361 646.847H149.838V641.643ZM163.902 365.801L169.1 366.066L169.379 360.596H163.902V365.801ZM163.901 365.801L158.71 366.17L159.054 371.005H163.901V365.801ZM152.4 204.205L157.592 203.836L157.248 199.001H152.4V204.205ZM5.84961 204.205H0.645038V209.41H5.84961V204.205ZM5.84961 163.146V157.942H0.645038V163.146H5.84961ZM160.094 163.146V168.351H164.389L165.204 164.134L160.094 163.146ZM183.395 42.5391V37.3345H179.099L178.284 41.5518L183.395 42.5391ZM280.884 42.5391L285.994 41.5518L285.179 37.3345H280.884V42.5391ZM304.185 163.146L299.074 164.134L299.889 168.351H304.185V163.146ZM457.55 163.146H462.754V157.942H457.55V163.146ZM457.55 204.205V209.41H462.754V204.205H457.55ZM311.878 204.205V199.001H307.031L306.686 203.836L311.878 204.205ZM300.377 365.801V371.005H305.224L305.568 366.17L300.377 365.801ZM300.191 365.801V360.596H294.715L294.994 366.066L300.191 365.801ZM213.056 672.294V667.089H139.613V672.294V677.499H213.056V672.294ZM139.613 672.294H144.818V647.428H139.613H134.409V672.294H139.613ZM139.613 647.428H144.818C144.818 647.108 145.077 646.849 145.396 646.849V641.645V636.44C139.328 636.44 134.409 641.36 134.409 647.428H139.613ZM145.396 641.645V646.849H213.056V641.645V636.44H145.396V641.645ZM213.056 641.645H207.851V672.294H213.056H218.26V641.645H213.056ZM318.883 641.645V646.849C319.202 646.849 319.461 647.108 319.461 647.428H324.666H329.871C329.871 641.36 324.951 636.44 318.883 636.44V641.645ZM324.666 647.428H319.461V672.294H324.666H329.871V647.428H324.666ZM324.666 672.294V667.089H251.224V672.294V677.499H324.666V672.294ZM251.224 672.294H256.428V641.645H251.224H246.019V672.294H251.224ZM251.224 641.645V646.849H318.883V641.645V636.44H251.224V641.645ZM314.256 641.644V636.439H251.078V641.644V646.848H314.256V641.644ZM251.078 641.644L256.276 641.385L243.693 388.674L238.495 388.933L233.297 389.191L245.88 641.902L251.078 641.644ZM238.495 388.933V383.728H225.599V388.933V394.137H238.495V388.933ZM225.599 388.933L220.401 388.674L207.817 641.384L213.016 641.643L218.214 641.901L230.797 389.191L225.599 388.933ZM213.016 641.643V636.438H149.838V641.643V646.847H213.016V641.643ZM149.838 641.643L155.036 641.908L169.1 366.066L163.902 365.801L158.705 365.536L144.64 641.378L149.838 641.643ZM163.902 365.801V360.596H163.901V365.801V371.005H163.902V365.801ZM163.901 365.801L169.093 365.431L157.592 203.836L152.4 204.205L147.209 204.575L158.71 366.17L163.901 365.801ZM152.4 204.205V199.001H5.84961V204.205V209.41H152.4V204.205ZM5.84961 204.205H11.0542V163.146H5.84961H0.645038V204.205H5.84961ZM5.84961 163.146V168.351H160.094V163.146V157.942H5.84961V163.146ZM160.094 163.146L165.204 164.134L188.505 43.5263L183.395 42.5391L178.284 41.5518L154.984 162.159L160.094 163.146ZM183.395 42.5391V47.7436H280.884V42.5391V37.3345H183.395V42.5391ZM280.884 42.5391L275.774 43.5263L299.074 164.134L304.185 163.146L309.295 162.159L285.994 41.5518L280.884 42.5391ZM304.185 163.146V168.351H457.55V163.146V157.942H304.185V163.146ZM457.55 163.146H452.345V204.205H457.55H462.754V163.146H457.55ZM457.55 204.205V199.001H311.878V204.205V209.41H457.55V204.205ZM311.878 204.205L306.686 203.836L295.186 365.431L300.377 365.801L305.568 366.17L317.069 204.575L311.878 204.205ZM300.377 365.801V360.596H300.191V365.801V371.005H300.377V365.801ZM300.191 365.801L294.994 366.066L309.058 641.909L314.256 641.644L319.454 641.379L305.389 365.536L300.191 365.801Z" fill="#181651" mask="url(#path-2-outside-1_458_438)"/>
<ellipse cx="211.525" cy="92.2719" rx="13.8789" ry="8.67429" fill="white" stroke="#181651" stroke-width="5.20457"/>
<ellipse cx="210.947" cy="92.2719" rx="5.20457" ry="8.67429" fill="#181651"/>
<ellipse cx="254.029" cy="92.2719" rx="14.168" ry="8.67429" fill="white" stroke="#181651" stroke-width="5.20457"/>
<ellipse cx="253.74" cy="92.2719" rx="5.20457" ry="8.67429" fill="#181651"/>
<path d="M231.765 106.152L227.139 118.296H231.765" stroke="#181651" stroke-width="5.20457"/>
<path d="M220.912 131.113L248.644 127.288" stroke="#181651" stroke-width="5.20457"/>
</svg>
