<svg width="463" height="675" viewBox="0 0 463 675" fill="none" xmlns="http://www.w3.org/2000/svg">
<mask id="path-1-outside-1_290_306" maskUnits="userSpaceOnUse" x="0" y="33.3926" width="463" height="641" fill="black">
<rect fill="white" y="33.3926" width="463" height="641"/>
<path d="M213.206 669.147H139.764V644.281C139.764 641.087 142.353 638.498 145.547 638.498H213.206V669.147ZM319.032 638.498C322.226 638.498 324.815 641.087 324.815 644.281V669.147H251.373V638.498H319.032ZM314.406 638.497H251.229L238.646 385.786H225.749L213.166 638.496H149.988L164.053 362.654H164.052L152.551 201.059H6V160H160.244L183.545 39.3926H281.034L304.335 160H457.7V201.059H312.028L300.527 362.654H300.342L314.406 638.497Z"/>
</mask>
<path d="M213.206 669.147H139.764V644.281C139.764 641.087 142.353 638.498 145.547 638.498H213.206V669.147ZM319.032 638.498C322.226 638.498 324.815 641.087 324.815 644.281V669.147H251.373V638.498H319.032ZM314.406 638.497H251.229L238.646 385.786H225.749L213.166 638.496H149.988L164.053 362.654H164.052L152.551 201.059H6V160H160.244L183.545 39.3926H281.034L304.335 160H457.7V201.059H312.028L300.527 362.654H300.342L314.406 638.497Z" fill="#2D9FFF"/>
<path d="M213.206 669.147V674.352H218.411V669.147H213.206ZM139.764 669.147H134.559V674.352H139.764V669.147ZM213.206 638.498H218.411V633.293H213.206V638.498ZM324.815 669.147V674.352H330.02V669.147H324.815ZM251.373 669.147H246.168V674.352H251.373V669.147ZM251.373 638.498V633.293H246.168V638.498H251.373ZM314.406 638.497V643.702H319.883L319.604 638.232L314.406 638.497ZM251.229 638.497L246.03 638.756L246.277 643.702H251.229V638.497ZM238.646 385.786L243.844 385.527L243.597 380.582H238.646V385.786ZM225.749 385.786V380.582H220.797L220.551 385.527L225.749 385.786ZM213.166 638.496V643.701H218.118L218.364 638.755L213.166 638.496ZM149.988 638.496L144.79 638.231L144.512 643.701H149.988V638.496ZM164.053 362.654L169.251 362.919L169.529 357.45H164.053V362.654ZM164.052 362.654L158.86 363.024L159.204 367.859H164.052V362.654ZM152.551 201.059L157.742 200.689L157.398 195.854H152.551V201.059ZM6 201.059H0.795429V206.263H6V201.059ZM6 160V154.795H0.795429V160H6ZM160.244 160V165.205H164.539L165.354 160.987L160.244 160ZM183.545 39.3926V34.188H179.25L178.435 38.4053L183.545 39.3926ZM281.034 39.3926L286.144 38.4053L285.329 34.188H281.034V39.3926ZM304.335 160L299.225 160.987L300.04 165.205H304.335V160ZM457.7 160H462.905V154.795H457.7V160ZM457.7 201.059V206.263H462.905V201.059H457.7ZM312.028 201.059V195.854H307.181L306.837 200.689L312.028 201.059ZM300.527 362.654V367.859H305.375L305.719 363.024L300.527 362.654ZM300.342 362.654V357.45H294.865L295.144 362.919L300.342 362.654ZM213.206 669.147V663.943H139.764V669.147V674.352H213.206V669.147ZM139.764 669.147H144.968V644.281H139.764H134.559V669.147H139.764ZM139.764 644.281H144.968C144.968 643.962 145.227 643.703 145.547 643.703V638.498V633.293C139.479 633.293 134.559 638.213 134.559 644.281H139.764ZM145.547 638.498V643.703H213.206V638.498V633.293H145.547V638.498ZM213.206 638.498H208.001V669.147H213.206H218.411V638.498H213.206ZM319.032 638.498V643.703C319.352 643.703 319.611 643.962 319.611 644.281H324.815H330.02C330.02 638.213 325.1 633.293 319.032 633.293V638.498ZM324.815 644.281H319.611V669.147H324.815H330.02V644.281H324.815ZM324.815 669.147V663.943H251.373V669.147V674.352H324.815V669.147ZM251.373 669.147H256.578V638.498H251.373H246.168V669.147H251.373ZM251.373 638.498V643.703H319.032V638.498V633.293H251.373V638.498ZM314.406 638.497V633.292H251.229V638.497V643.702H314.406V638.497ZM251.229 638.497L256.427 638.238L243.844 385.527L238.646 385.786L233.447 386.045L246.03 638.756L251.229 638.497ZM238.646 385.786V380.582H225.749V385.786V390.991H238.646V385.786ZM225.749 385.786L220.551 385.527L207.968 638.237L213.166 638.496L218.364 638.755L230.947 386.045L225.749 385.786ZM213.166 638.496V633.292H149.988V638.496V643.701H213.166V638.496ZM149.988 638.496L155.186 638.761L169.251 362.919L164.053 362.654L158.855 362.389L144.79 638.231L149.988 638.496ZM164.053 362.654V357.45H164.052V362.654V367.859H164.053V362.654ZM164.052 362.654L169.243 362.285L157.742 200.689L152.551 201.059L147.359 201.428L158.86 363.024L164.052 362.654ZM152.551 201.059V195.854H6V201.059V206.263H152.551V201.059ZM6 201.059H11.2046V160H6H0.795429V201.059H6ZM6 160V165.205H160.244V160V154.795H6V160ZM160.244 160L165.354 160.987L188.655 40.3798L183.545 39.3926L178.435 38.4053L155.134 159.013L160.244 160ZM183.545 39.3926V44.5971H281.034V39.3926V34.188H183.545V39.3926ZM281.034 39.3926L275.924 40.3798L299.225 160.987L304.335 160L309.445 159.013L286.144 38.4053L281.034 39.3926ZM304.335 160V165.205H457.7V160V154.795H304.335V160ZM457.7 160H452.496V201.059H457.7H462.905V160H457.7ZM457.7 201.059V195.854H312.028V201.059V206.263H457.7V201.059ZM312.028 201.059L306.837 200.689L295.336 362.285L300.527 362.654L305.719 363.024L317.22 201.428L312.028 201.059ZM300.527 362.654V357.45H300.342V362.654V367.859H300.527V362.654ZM300.342 362.654L295.144 362.919L309.208 638.762L314.406 638.497L319.604 638.232L305.54 362.389L300.342 362.654Z" fill="#181651" mask="url(#path-1-outside-1_290_306)"/>
<path fill-rule="evenodd" clip-rule="evenodd" d="M183.545 39.3926L152.486 200.156L164.052 362.654H300.527L312.093 200.156L281.034 39.3926H232.29H183.545Z" fill="#2D9FFF"/>
<path d="M231.626 3.25098C242.485 3.25105 251.287 12.0543 251.287 22.9131C251.287 33.7718 242.485 42.5741 231.626 42.5742C220.767 42.5742 211.964 33.7719 211.964 22.9131C211.964 12.0542 220.767 3.25098 231.626 3.25098ZM231.626 17.1836C228.462 17.1836 225.896 19.749 225.896 22.9131C225.897 26.0771 228.462 28.6416 231.626 28.6416C234.79 28.6415 237.354 26.077 237.354 22.9131C237.354 19.7491 234.79 17.1837 231.626 17.1836Z" fill="#2D9FFF" stroke="#181651" stroke-width="5.20457"/>
<ellipse cx="211.676" cy="89.1255" rx="13.8789" ry="8.67429" fill="white" stroke="#181651" stroke-width="5.20457"/>
<ellipse cx="211.097" cy="89.1255" rx="5.20457" ry="8.67429" fill="#181651"/>
<ellipse cx="254.18" cy="89.1255" rx="14.168" ry="8.67429" fill="white" stroke="#181651" stroke-width="5.20457"/>
<ellipse cx="253.89" cy="89.1255" rx="5.20457" ry="8.67429" fill="#181651"/>
<path d="M231.915 103.006L227.289 115.15H231.915" stroke="#181651" stroke-width="5.20457"/>
<path d="M221.062 127.967L248.793 124.142" stroke="#181651" stroke-width="5.20457"/>
</svg>
