<svg width="755" height="651" viewBox="0 0 755 651" fill="none" xmlns="http://www.w3.org/2000/svg">
<rect x="7.91091" y="351.223" width="313.24" height="82.4315" transform="rotate(-13.0228 7.91091 351.223)" fill="#EBE4CE" stroke="#181651" stroke-width="13.189"/>
<rect x="447.261" y="260.01" width="313.24" height="82.4315" transform="rotate(17.639 447.261 260.01)" fill="#EBE4CE" stroke="#181651" stroke-width="13.189"/>
<path d="M389.93 7.40527C406.81 7.40538 420.494 21.0897 420.494 37.9697C420.494 54.8496 406.81 68.5331 389.93 68.5332C373.05 68.5332 359.366 54.8497 359.366 37.9697C359.366 21.0897 373.05 7.40527 389.93 7.40527ZM389.93 32.8584C387.107 32.8584 384.819 35.1467 384.819 37.9697C384.819 40.7927 387.107 43.0811 389.93 43.0811C392.753 43.081 395.041 40.7926 395.042 37.9697C395.042 35.1468 392.753 32.8585 389.93 32.8584Z" fill="#EBE4CE" stroke="#181651" stroke-width="13.189"/>
<path d="M475.218 56.9358L538.329 328.888H242.358L303.897 56.9358H475.218Z" fill="#EBE4CE" stroke="#181651" stroke-width="13.189"/>
<path d="M365.96 221.221V221.221C376.78 238.171 401.534 238.171 412.353 221.221V221.221" stroke="#181651" stroke-width="11.5404"/>
<mask id="mask0_710_1665" style="mask-type:alpha" maskUnits="userSpaceOnUse" x="316" y="105" width="74" height="105">
<path d="M352.858 111.187C360.586 111.187 368.165 115.64 374.048 124.019C379.919 132.381 383.734 144.239 383.734 157.609C383.734 170.979 379.92 182.837 374.048 191.199C368.165 199.578 360.586 204.031 352.858 204.031C345.13 204.031 337.552 199.578 331.668 191.199C325.797 182.837 321.983 170.979 321.983 157.609C321.983 144.239 325.797 132.381 331.668 124.019C337.552 115.64 345.13 111.187 352.858 111.187Z" fill="#D9D9D9" stroke="black" stroke-width="11.5404"/>
</mask>
<g mask="url(#mask0_710_1665)">
<path d="M352.858 111.187C360.586 111.187 368.165 115.64 374.048 124.019C379.919 132.381 383.734 144.239 383.734 157.609C383.734 170.979 379.92 182.837 374.048 191.199C368.165 199.578 360.586 204.031 352.858 204.031C345.13 204.031 337.552 199.578 331.668 191.199C325.797 182.837 321.983 170.979 321.983 157.609C321.983 144.239 325.797 132.381 331.668 124.019C337.552 115.64 345.13 111.187 352.858 111.187Z" fill="#FDFCFA" stroke="#181651" stroke-width="11.5404"/>
<mask id="path-8-inside-1_710_1665" fill="white">
<path d="M353.539 155.411C335.753 155.411 321.335 176.044 321.335 201.496C321.335 226.948 335.754 247.58 353.539 247.58C371.324 247.58 385.742 226.948 385.742 201.496C385.742 197.693 385.419 193.997 384.812 190.461L359.836 183.006L378.863 173.024C372.967 162.299 363.815 155.412 353.539 155.411Z"/>
</mask>
<path d="M353.539 155.411C335.753 155.411 321.335 176.044 321.335 201.496C321.335 226.948 335.754 247.58 353.539 247.58C371.324 247.58 385.742 226.948 385.742 201.496C385.742 197.693 385.419 193.997 384.812 190.461L359.836 183.006L378.863 173.024C372.967 162.299 363.815 155.412 353.539 155.411Z" fill="#181651"/>
<path d="M353.539 155.411L353.539 143.871L353.539 143.871L353.539 155.411ZM321.335 201.496L309.795 201.496V201.496H321.335ZM353.539 247.58L353.539 259.121H353.539V247.58ZM385.742 201.496L397.283 201.496L397.283 201.496L385.742 201.496ZM384.812 190.461L388.112 179.403L394.974 181.451L396.185 188.508L384.812 190.461ZM359.836 183.006L356.535 194.064L329.372 185.956L354.474 172.787L359.836 183.006ZM378.863 173.024L388.976 167.464L394.645 177.776L384.225 183.243L378.863 173.024ZM353.539 155.411V166.952C349.455 166.952 344.569 169.306 340.227 175.52C335.911 181.695 332.875 190.844 332.875 201.496H321.335H309.795C309.795 186.697 313.968 172.803 321.308 162.299C328.621 151.833 339.838 143.871 353.539 143.871V155.411ZM321.335 201.496L332.875 201.496C332.875 212.149 335.912 221.297 340.227 227.472C344.569 233.685 349.455 236.04 353.539 236.04V247.58V259.121C339.838 259.121 328.622 251.159 321.308 240.693C313.968 230.19 309.795 216.295 309.795 201.496L321.335 201.496ZM353.539 247.58L353.539 236.04C357.623 236.04 362.509 233.685 366.85 227.472C371.166 221.297 374.202 212.149 374.202 201.496L385.742 201.496L397.283 201.496C397.283 216.295 393.11 230.189 385.77 240.693C378.456 251.159 367.24 259.12 353.539 259.121L353.539 247.58ZM385.742 201.496H374.202C374.202 198.346 373.934 195.303 373.438 192.414L384.812 190.461L396.185 188.508C396.904 192.69 397.283 197.04 397.283 201.496H385.742ZM384.812 190.461L381.511 201.519L356.535 194.064L359.836 183.006L363.137 171.948L388.112 179.403L384.812 190.461ZM359.836 183.006L354.474 172.787L373.502 162.804L378.863 173.024L384.225 183.243L365.197 193.225L359.836 183.006ZM378.863 173.024L368.75 178.583C364.111 170.144 358.216 166.952 353.539 166.952L353.539 155.411L353.539 143.871C369.414 143.871 381.823 154.453 388.976 167.464L378.863 173.024Z" fill="#181651" mask="url(#path-8-inside-1_710_1665)"/>
</g>
<mask id="mask1_710_1665" style="mask-type:alpha" maskUnits="userSpaceOnUse" x="389" y="105" width="74" height="105">
<path d="M425.646 111.187C433.373 111.187 440.953 115.64 446.836 124.019C452.707 132.381 456.521 144.239 456.521 157.609C456.521 170.979 452.707 182.837 446.836 191.199C440.953 199.578 433.373 204.031 425.646 204.031C417.918 204.031 410.339 199.578 404.456 191.199C398.585 182.837 394.771 170.979 394.771 157.609C394.771 144.239 398.585 132.381 404.456 124.019C410.339 115.64 417.918 111.187 425.646 111.187Z" fill="#D9D9D9" stroke="black" stroke-width="11.5404"/>
</mask>
<g mask="url(#mask1_710_1665)">
<path d="M425.646 111.187C433.373 111.187 440.953 115.64 446.836 124.019C452.707 132.381 456.521 144.239 456.521 157.609C456.521 170.979 452.707 182.837 446.836 191.199C440.953 199.578 433.373 204.031 425.646 204.031C417.918 204.031 410.339 199.578 404.456 191.199C398.585 182.837 394.771 170.979 394.771 157.609C394.771 144.239 398.585 132.381 404.456 124.019C410.339 115.64 417.918 111.187 425.646 111.187Z" fill="#FDFCFA" stroke="#181651" stroke-width="11.5404"/>
<mask id="path-12-inside-2_710_1665" fill="white">
<path d="M426.327 155.411C408.541 155.411 394.123 176.044 394.123 201.496C394.123 226.948 408.541 247.58 426.327 247.58C444.112 247.58 458.53 226.948 458.53 201.496C458.53 197.693 458.206 193.997 457.599 190.461L432.624 183.006L451.651 173.024C445.755 162.299 436.602 155.412 426.327 155.411Z"/>
</mask>
<path d="M426.327 155.411C408.541 155.411 394.123 176.044 394.123 201.496C394.123 226.948 408.541 247.58 426.327 247.58C444.112 247.58 458.53 226.948 458.53 201.496C458.53 197.693 458.206 193.997 457.599 190.461L432.624 183.006L451.651 173.024C445.755 162.299 436.602 155.412 426.327 155.411Z" fill="#181651"/>
<path d="M426.327 155.411L426.327 143.871L426.327 143.871L426.327 155.411ZM394.123 201.496L382.582 201.496V201.496H394.123ZM426.327 247.58L426.327 259.121H426.327V247.58ZM458.53 201.496L470.07 201.496L470.07 201.496L458.53 201.496ZM457.599 190.461L460.9 179.403L467.761 181.451L468.973 188.508L457.599 190.461ZM432.624 183.006L429.323 194.064L402.16 185.956L427.262 172.787L432.624 183.006ZM451.651 173.024L461.764 167.464L467.433 177.776L457.012 183.243L451.651 173.024ZM426.327 155.411V166.952C422.242 166.952 417.357 169.306 413.015 175.52C408.699 181.695 405.663 190.844 405.663 201.496H394.123H382.582C382.582 186.697 386.755 172.803 394.095 162.299C401.409 151.833 412.625 143.871 426.327 143.871V155.411ZM394.123 201.496L405.663 201.496C405.663 212.149 408.699 221.297 413.015 227.472C417.356 233.685 422.242 236.04 426.327 236.04V247.58V259.121C412.626 259.121 401.409 251.159 394.096 240.693C386.755 230.19 382.582 216.295 382.582 201.496L394.123 201.496ZM426.327 247.58L426.326 236.04C430.411 236.04 435.296 233.685 439.638 227.472C443.953 221.297 446.989 212.149 446.989 201.496L458.53 201.496L470.07 201.496C470.07 216.295 465.897 230.189 458.557 240.693C451.244 251.159 440.028 259.12 426.327 259.121L426.327 247.58ZM458.53 201.496H446.989C446.989 198.346 446.721 195.303 446.225 192.414L457.599 190.461L468.973 188.508C469.691 192.69 470.07 197.04 470.07 201.496H458.53ZM457.599 190.461L454.298 201.519L429.323 194.064L432.624 183.006L435.924 171.948L460.9 179.403L457.599 190.461ZM432.624 183.006L427.262 172.787L446.289 162.804L451.651 173.024L457.012 183.243L437.985 193.225L432.624 183.006ZM451.651 173.024L441.538 178.583C436.898 170.144 431.004 166.952 426.326 166.952L426.327 155.411L426.327 143.871C442.201 143.871 454.611 154.453 461.764 167.464L451.651 173.024Z" fill="#181651" mask="url(#path-12-inside-2_710_1665)"/>
</g>
<mask id="path-14-outside-3_710_1665" maskUnits="userSpaceOnUse" x="99.4038" y="272.024" width="581" height="379" fill="black">
<rect fill="white" x="99.4038" y="272.024" width="581" height="379"/>
<path d="M662.748 318.568L632.748 414.018L526.128 385.415L553.892 637.182H224.258L252.023 385.415L135.404 414.019L115.404 309.265L256.583 286.024C294.734 306.837 380.274 309.075 389.075 309.251C397.866 309.075 483.415 306.838 521.568 286.024L662.748 318.568Z"/>
</mask>
<path d="M662.748 318.568L632.748 414.018L526.128 385.415L553.892 637.182H224.258L252.023 385.415L135.404 414.019L115.404 309.265L256.583 286.024C294.734 306.837 380.274 309.075 389.075 309.251C397.866 309.075 483.415 306.838 521.568 286.024L662.748 318.568Z" fill="#05CC75"/>
<path d="M662.748 318.568L675.33 322.522L679.605 308.919L665.71 305.716L662.748 318.568ZM632.748 414.018L629.33 426.757L641.539 430.032L645.33 417.973L632.748 414.018ZM526.128 385.415L529.546 372.676L510.903 367.675L513.019 386.86L526.128 385.415ZM553.892 637.182V650.371H568.615L567.002 635.736L553.892 637.182ZM224.258 637.182L211.149 635.736L209.535 650.371H224.258V637.182ZM252.023 385.415L265.133 386.86L267.2 368.112L248.881 372.605L252.023 385.415ZM135.404 414.019L122.449 416.492L125.054 430.138L138.546 426.828L135.404 414.019ZM115.404 309.265L113.261 296.251L99.9115 298.449L102.449 311.739L115.404 309.265ZM256.583 286.024L262.9 274.446L258.917 272.273L254.441 273.01L256.583 286.024ZM389.075 309.251L388.81 322.438L389.075 322.443L389.339 322.438L389.075 309.251ZM521.568 286.024L524.53 273.172L519.649 272.047L515.251 274.446L521.568 286.024ZM662.748 318.568L650.165 314.613L620.165 410.063L632.748 414.018L645.33 417.973L675.33 322.522L662.748 318.568ZM632.748 414.018L636.165 401.279L529.546 372.676L526.128 385.415L522.711 398.153L629.33 426.757L632.748 414.018ZM526.128 385.415L513.019 386.86L540.783 638.628L553.892 637.182L567.002 635.736L539.238 383.969L526.128 385.415ZM553.892 637.182V623.993H224.258V637.182V650.371H553.892V637.182ZM224.258 637.182L237.368 638.628L265.133 386.86L252.023 385.415L238.913 383.969L211.149 635.736L224.258 637.182ZM252.023 385.415L248.881 372.605L132.262 401.21L135.404 414.019L138.546 426.828L255.165 398.224L252.023 385.415ZM135.404 414.019L148.359 411.546L128.359 306.792L115.404 309.265L102.449 311.739L122.449 416.492L135.404 414.019ZM115.404 309.265L117.546 322.279L258.726 299.038L256.583 286.024L254.441 273.01L113.261 296.251L115.404 309.265ZM256.583 286.024L250.267 297.602C271.82 309.36 305.081 315.297 332.305 318.476C360.155 321.729 384.211 322.346 388.81 322.438L389.075 309.251L389.339 296.065C385.137 295.981 362.023 295.39 335.365 292.276C308.082 289.09 279.497 283.5 262.9 274.446L256.583 286.024ZM389.075 309.251L389.339 322.438C393.933 322.346 417.989 321.73 445.841 318.477C473.066 315.297 506.33 309.361 527.884 297.602L521.568 286.024L515.251 274.446C498.653 283.501 470.066 289.09 442.781 292.277C416.122 295.39 393.008 295.981 388.81 296.065L389.075 309.251ZM521.568 286.024L518.605 298.876L659.785 331.42L662.748 318.568L665.71 305.716L524.53 273.172L521.568 286.024Z" fill="#181651" mask="url(#path-14-outside-3_710_1665)"/>
</svg>
