<svg width="464" height="678" viewBox="0 0 464 678" fill="none" xmlns="http://www.w3.org/2000/svg">
<g clip-path="url(#clip0_926_630)">
<path d="M231.775 6.39746C242.634 6.39754 251.437 15.2008 251.437 26.0596C251.436 36.9183 242.634 45.7206 231.775 45.7207C220.917 45.7207 212.113 36.9184 212.113 26.0596C212.113 15.2007 220.917 6.39746 231.775 6.39746ZM231.775 20.3301C228.611 20.3301 226.046 22.8955 226.046 26.0596C226.046 29.2236 228.611 31.7881 231.775 31.7881C234.939 31.788 237.504 29.2235 237.504 26.0596C237.504 22.8955 234.939 20.3302 231.775 20.3301Z" fill="#F1E8CA" stroke="#181651" stroke-width="5.20457"/>
<path d="M213.056 672.294H139.613V647.428C139.613 644.234 142.203 641.645 145.396 641.645H213.056V672.294ZM318.883 641.645C322.077 641.645 324.666 644.234 324.666 647.428V672.294H251.224V641.645H318.883ZM314.256 641.644H251.078L238.495 388.933H225.599L213.016 641.643H149.838L163.902 365.801L152.4 204.205H5.84961V163.146H160.094L183.395 42.5391H280.884L304.185 163.146H457.55V204.205H311.878L300.377 365.801H300.191L314.256 641.644Z" fill="#F1E8CA"/>
<mask id="mask0_926_630" style="mask-type:luminance" maskUnits="userSpaceOnUse" x="-1" y="36" width="464" height="642">
<path d="M462.85 36.5391H-0.150391V677.539H462.85V36.5391Z" fill="white"/>
<path d="M213.056 672.294H139.613V647.428C139.613 644.234 142.203 641.645 145.396 641.645H213.056V672.294ZM318.883 641.645C322.077 641.645 324.666 644.234 324.666 647.428V672.294H251.224V641.645H318.883ZM314.256 641.644H251.078L238.495 388.933H225.599L213.016 641.643H149.838L163.902 365.801L152.4 204.205H5.84961V163.146H160.094L183.395 42.5391H280.884L304.185 163.146H457.55V204.205H311.878L300.377 365.801H300.191L314.256 641.644Z" fill="black"/>
</mask>
<g mask="url(#mask0_926_630)">
<path d="M213.055 672.294V677.499H218.259V672.294H213.055ZM139.613 672.294H134.408V677.499H139.613V672.294ZM213.055 641.645H218.259V636.44H213.055V641.645ZM324.665 672.294V677.499H329.87V672.294H324.665ZM251.223 672.294H246.018V677.499H251.223V672.294ZM251.223 641.645V636.44H246.018V641.645H251.223ZM314.255 641.643V646.848H319.732L319.453 641.379L314.255 641.643ZM251.077 641.643L245.88 641.901L246.126 646.848H251.077V641.643ZM238.494 388.932L243.692 388.673L243.447 383.727H238.494V388.932ZM225.598 388.932V383.727H220.646L220.4 388.673L225.598 388.932ZM213.016 641.643V646.846H217.966L218.214 641.901L213.016 641.643ZM149.837 641.643L144.639 641.378L144.36 646.846H149.837V641.643ZM163.901 365.8L169.1 366.065L169.378 360.595H163.901V365.8ZM163.901 365.8L158.71 366.169L159.053 371.004H163.9L163.901 365.8ZM152.399 204.204L157.591 203.835L157.247 199H152.399V204.204ZM5.8491 204.204H0.644531V209.409H5.8491V204.204ZM5.8491 163.145V157.941H0.644531V163.145H5.8491ZM160.093 163.145V168.35H164.389L165.203 164.133L160.093 163.145ZM183.395 42.5386V37.334H179.098L178.283 41.5513L183.395 42.5386ZM280.883 42.5386L285.993 41.5513L285.178 37.334H280.883V42.5386ZM304.184 163.145L299.073 164.133L299.888 168.35H304.184V163.145ZM457.549 163.145H462.753V157.941H457.549V163.145ZM457.549 204.204V209.409H462.753V204.204H457.549ZM311.877 204.204V199H307.03L306.685 203.835L311.877 204.204ZM300.376 365.8V371.004H305.223L305.567 366.169L300.376 365.8ZM300.19 365.8V360.595H294.714L294.993 366.065L300.19 365.8ZM213.055 672.294V667.089H139.613V672.294V677.499H213.055V672.294ZM139.613 672.294H144.817V647.427H139.613H134.408V672.294H139.613ZM139.613 647.427H144.817C144.817 647.107 145.076 646.849 145.395 646.849V641.645V636.44C139.327 636.44 134.408 641.359 134.408 647.427H139.613ZM145.395 641.645V646.849H213.055V641.645V636.44H145.395V641.645ZM213.055 641.645H207.85V672.294H213.055H218.259V641.645H213.055ZM318.882 641.645V646.849C319.201 646.849 319.46 647.107 319.46 647.427H324.665H329.87C329.87 641.359 324.95 636.44 318.882 636.44V641.645ZM324.665 647.427H319.46V672.294H324.665H329.87V647.427H324.665ZM324.665 672.294V667.089H251.223V672.294V677.499H324.665V672.294ZM251.223 672.294H256.428V641.645H251.223H246.018V672.294H251.223ZM251.223 641.645V646.849H318.882V641.645V636.44H251.223V641.645ZM314.255 641.643V636.439H251.077V641.643V646.848H314.255V641.643ZM251.077 641.643L256.275 641.385L243.692 388.673L238.494 388.932L233.296 389.19L245.88 641.901L251.077 641.643ZM238.494 388.932V383.727H225.598V388.932V394.136H238.494V388.932ZM225.598 388.932L220.4 388.673L207.816 641.383L213.016 641.643L218.214 641.901L230.796 389.19L225.598 388.932ZM213.016 641.643V636.438H149.837V641.643V646.846H213.016V641.643ZM149.837 641.643L155.035 641.908L169.1 366.065L163.901 365.8L158.704 365.535L144.639 641.378L149.837 641.643ZM163.901 365.8L169.092 365.43L157.591 203.835L152.399 204.204L147.208 204.574L158.71 366.169L163.901 365.8ZM152.399 204.204V199H5.8491V204.204V209.409H152.399V204.204ZM5.8491 204.204H11.0537V163.145H5.8491H0.644531V204.204H5.8491ZM5.8491 163.145V168.35H160.093V163.145V157.941H5.8491V163.145ZM160.093 163.145L165.203 164.133L188.505 43.5258L183.395 42.5386L178.283 41.5513L154.983 162.158L160.093 163.145ZM183.395 42.5386V47.7431H280.883V42.5386V37.334H183.395V42.5386ZM280.883 42.5386L275.773 43.5258L299.073 164.133L304.184 163.145L309.294 162.158L285.993 41.5513L280.883 42.5386ZM304.184 163.145V168.35H457.549V163.145V157.941H304.184V163.145ZM457.549 163.145H452.344V204.204H457.549H462.753V163.145H457.549ZM457.549 204.204V199H311.877V204.204V209.409H457.549V204.204ZM311.877 204.204L306.685 203.835L295.185 365.43L300.376 365.8L305.567 366.169L317.068 204.574L311.877 204.204ZM300.376 365.8V360.595H300.19V365.8V371.004H300.376V365.8ZM300.19 365.8L294.993 366.065L309.057 641.909L314.255 641.643L319.453 641.379L305.388 365.535L300.19 365.8Z" fill="#181651"/>
</g>
<path d="M219.645 139.242V139.242C226.207 149.524 241.222 149.524 247.785 139.242V139.242" stroke="#181651" stroke-width="5"/>
<mask id="mask1_926_630" style="mask-type:alpha" maskUnits="userSpaceOnUse" x="231" y="69" width="45" height="64">
<path d="M253.458 72.5C258.145 72.5 262.743 75.2009 266.312 80.2832C269.873 85.3553 272.187 92.5484 272.187 100.658C272.186 108.768 269.873 115.96 266.312 121.032C262.743 126.115 258.145 128.816 253.458 128.816C248.771 128.816 244.174 126.115 240.605 121.032C237.044 115.96 234.731 108.768 234.73 100.658C234.73 92.5484 237.044 85.3553 240.605 80.2832C244.174 75.2011 248.771 72.5002 253.458 72.5Z" fill="#D9D9D9" stroke="black" stroke-width="7"/>
</mask>
<g mask="url(#mask1_926_630)">
<path d="M253.458 71.5C258.56 71.5 263.432 74.4418 267.13 79.709C270.823 84.9688 273.187 92.3677 273.187 100.658C273.186 108.949 270.823 116.348 267.13 121.607C263.432 126.874 258.56 129.816 253.458 129.816C248.356 129.816 243.485 126.874 239.787 121.607C236.094 116.348 233.731 108.949 233.73 100.658C233.73 92.3677 236.094 84.9688 239.787 79.709C243.485 74.442 248.356 71.5002 253.458 71.5Z" fill="#FDFCFA" stroke="#181651" stroke-width="5"/>
<mask id="path-9-inside-1_926_630" fill="white">
<path d="M266.676 75.0625C258.032 75.0625 250.7 83.0973 248.127 94.2324L256.235 102.343L247.396 107.518C248.901 120.815 256.959 130.969 266.676 130.969C277.464 130.969 286.209 118.454 286.209 103.016C286.209 87.5775 277.464 75.0626 266.676 75.0625Z"/>
</mask>
<path d="M266.676 75.0625C258.032 75.0625 250.7 83.0973 248.127 94.2324L256.235 102.343L247.396 107.518C248.901 120.815 256.959 130.969 266.676 130.969C277.464 130.969 286.209 118.454 286.209 103.016C286.209 87.5775 277.464 75.0626 266.676 75.0625Z" fill="#181651"/>
<path d="M266.676 75.0625V68.0625H266.676L266.676 75.0625ZM248.127 94.2324L243.177 99.1816L240.433 96.4372L241.307 92.6563L248.127 94.2324ZM256.235 102.343L261.186 97.3936L267.594 103.804L259.772 108.384L256.235 102.343ZM247.396 107.518L240.441 108.305L239.929 103.778L243.86 101.477L247.396 107.518ZM266.676 130.969L266.676 137.969H266.676V130.969ZM286.209 103.016L293.209 103.016V103.016H286.209ZM266.676 75.0625V82.0625C262.793 82.0625 257.19 86.1046 254.947 95.8086L248.127 94.2324L241.307 92.6563C244.211 80.0899 253.27 68.0625 266.676 68.0625V75.0625ZM248.127 94.2324L253.077 89.2833L261.186 97.3936L256.235 102.343L251.285 107.292L243.177 99.1816L248.127 94.2324ZM256.235 102.343L259.772 108.384L250.933 113.558L247.396 107.518L243.86 101.477L252.699 96.3019L256.235 102.343ZM247.396 107.518L254.352 106.731C254.977 112.251 256.935 116.799 259.387 119.812C261.829 122.815 264.428 123.969 266.676 123.969V130.969V137.969C259.207 137.969 252.918 134.046 248.526 128.647C244.143 123.259 241.321 116.081 240.441 108.305L247.396 107.518ZM266.676 130.969L266.676 123.969C269.153 123.969 272.117 122.541 274.75 118.772C277.368 115.026 279.209 109.477 279.209 103.016H286.209H293.209C293.209 111.992 290.678 120.42 286.226 126.791C281.79 133.139 274.986 137.969 266.676 137.969L266.676 130.969ZM286.209 103.016L279.209 103.016C279.209 96.554 277.367 91.0051 274.75 87.2593C272.116 83.4906 269.153 82.0625 266.676 82.0625L266.676 75.0625L266.676 68.0625C274.986 68.0626 281.79 72.8919 286.226 79.2403C290.678 85.6115 293.209 94.0391 293.209 103.016L286.209 103.016Z" fill="#181651" mask="url(#path-9-inside-1_926_630)"/>
</g>
<mask id="mask2_926_630" style="mask-type:alpha" maskUnits="userSpaceOnUse" x="189" y="69" width="45" height="64">
<path d="M211.696 72.5C216.384 72.5 220.981 75.2009 224.55 80.2832C228.111 85.3553 230.425 92.5484 230.425 100.658C230.425 108.768 228.111 115.96 224.55 121.032C220.981 126.115 216.384 128.816 211.696 128.816C207.009 128.816 202.412 126.115 198.844 121.032C195.283 115.96 192.969 108.768 192.969 100.658C192.969 92.5484 195.282 85.3553 198.844 80.2832C202.412 75.2011 207.009 72.5002 211.696 72.5Z" fill="#D9D9D9" stroke="black" stroke-width="7"/>
</mask>
<g mask="url(#mask2_926_630)">
<path d="M211.696 71.5C216.798 71.5 221.67 74.4418 225.368 79.709C229.061 84.9688 231.425 92.3677 231.425 100.658C231.425 108.949 229.061 116.348 225.368 121.607C221.67 126.874 216.798 129.816 211.696 129.816C206.595 129.816 201.723 126.874 198.025 121.607C194.332 116.348 191.969 108.949 191.969 100.658C191.969 92.3677 194.332 84.9688 198.025 79.709C201.724 74.442 206.595 71.5002 211.696 71.5Z" fill="#FDFCFA" stroke="#181651" stroke-width="5"/>
<mask id="path-13-inside-2_926_630" fill="white">
<path d="M224.24 75.0625C215.596 75.0625 208.265 83.0978 205.691 94.2334L213.8 102.343L204.961 107.517C206.465 120.815 214.523 130.969 224.24 130.969C235.028 130.969 243.773 118.454 243.773 103.016C243.773 87.5776 235.028 75.0627 224.24 75.0625Z"/>
</mask>
<path d="M224.24 75.0625C215.596 75.0625 208.265 83.0978 205.691 94.2334L213.8 102.343L204.961 107.517C206.465 120.815 214.523 130.969 224.24 130.969C235.028 130.969 243.773 118.454 243.773 103.016C243.773 87.5776 235.028 75.0627 224.24 75.0625Z" fill="#181651"/>
<path d="M224.24 75.0625V68.0625H224.24L224.24 75.0625ZM205.691 94.2334L200.741 99.1828L197.997 96.4386L198.871 92.6574L205.691 94.2334ZM213.8 102.343L218.75 97.3933L225.16 103.804L217.336 108.384L213.8 102.343ZM204.961 107.517L198.005 108.303L197.493 103.777L201.425 101.475L204.961 107.517ZM224.24 130.969L224.24 137.969H224.24V130.969ZM243.773 103.016L250.773 103.016V103.016H243.773ZM224.24 75.0625V82.0625C220.358 82.0625 214.754 86.1048 212.512 95.8094L205.691 94.2334L198.871 92.6574C201.775 80.0908 210.834 68.0625 224.24 68.0625V75.0625ZM205.691 94.2334L210.641 89.2839L218.75 97.3933L213.8 102.343L208.85 107.292L200.741 99.1828L205.691 94.2334ZM213.8 102.343L217.336 108.384L208.497 113.558L204.961 107.517L201.425 101.475L210.264 96.3016L213.8 102.343ZM204.961 107.517L211.917 106.73C212.541 112.251 214.5 116.799 216.951 119.812C219.394 122.815 221.992 123.969 224.24 123.969V130.969V137.969C216.771 137.969 210.482 134.046 206.09 128.647C201.708 123.259 198.885 116.08 198.005 108.303L204.961 107.517ZM224.24 130.969L224.24 123.969C226.718 123.969 229.681 122.541 232.314 118.772C234.932 115.026 236.773 109.477 236.773 103.016H243.773H250.773C250.773 111.992 248.242 120.42 243.79 126.791C239.354 133.139 232.551 137.969 224.24 137.969L224.24 130.969ZM243.773 103.016L236.773 103.016C236.773 96.5541 234.932 91.0052 232.314 87.2594C229.681 83.4907 226.718 82.0625 224.24 82.0625L224.24 75.0625L224.24 68.0625C232.551 68.0627 239.354 72.892 243.79 79.2403C248.242 85.6115 250.773 94.0391 250.773 103.016L243.773 103.016Z" fill="#181651" mask="url(#path-13-inside-2_926_630)"/>
</g>
<path d="M217.465 119.614C196.643 116.588 186.479 127.064 184 132.68L223.55 134.553C225.447 127.186 238.255 131.462 228.959 124.198C226.107 121.97 222.353 120.324 217.465 119.614Z" fill="#EBE4CE"/>
<path d="M253.43 120.013C270.52 114.293 284.246 127.501 286.711 133.146H243.627C241.161 123.469 238.425 125.035 253.43 120.013Z" fill="#EBE4CE"/>
<path d="M188.689 127.986C196.071 119.662 220.566 111.888 229.962 127.986" stroke="#181651" stroke-width="5"/>
<path d="M282.49 127.986C275.024 119.662 250.251 111.888 240.749 127.986" stroke="#181651" stroke-width="5"/>
</g>
<defs>
<clipPath id="clip0_926_630">
<rect width="464" height="678" fill="white"/>
</clipPath>
</defs>
</svg>
