<svg width="317" height="253" viewBox="0 0 317 253" fill="none" xmlns="http://www.w3.org/2000/svg">
<mask id="path-1-outside-1_458_488" maskUnits="userSpaceOnUse" x="0" y="0" width="317" height="253" fill="black">
<rect fill="white" width="317" height="253"/>
<path fill-rule="evenodd" clip-rule="evenodd" d="M82.4547 26L34 226.401H158.5H283L234.545 26H158.5H82.4547Z"/>
</mask>
<path fill-rule="evenodd" clip-rule="evenodd" d="M82.4547 26L34 226.401H158.5H283L234.545 26H158.5H82.4547Z" fill="white"/>
<path d="M34 226.401L8.72822 220.291L0.964302 252.401H34V226.401ZM82.4547 26V0H61.992L57.1829 19.8896L82.4547 26ZM283 226.401V252.401H316.036L308.272 220.291L283 226.401ZM234.545 26L259.817 19.8896L255.008 0H234.545V26ZM34 226.401L59.2718 232.512L107.726 32.1104L82.4547 26L57.1829 19.8896L8.72822 220.291L34 226.401ZM158.5 226.401V200.401H34V226.401V252.401H158.5V226.401ZM158.5 226.401V252.401H283V226.401V200.401H158.5V226.401ZM283 226.401L308.272 220.291L259.817 19.8896L234.545 26L209.274 32.1104L257.728 232.512L283 226.401ZM234.545 26V0H158.5V26V52H234.545V26ZM82.4547 26V52H158.5V26V0H82.4547V26Z" fill="white" mask="url(#path-1-outside-1_458_488)"/>
<mask id="path-3-inside-2_458_488" fill="white">
<path fill-rule="evenodd" clip-rule="evenodd" d="M82.4547 26L34 226.401H158.5H283L234.545 26H158.5H82.4547Z"/>
</mask>
<path fill-rule="evenodd" clip-rule="evenodd" d="M82.4547 26L34 226.401H158.5H283L234.545 26H158.5H82.4547Z" fill="#DF271C"/>
<path d="M34 226.401L19.4201 222.876L14.9409 241.401H34V226.401ZM82.4547 26V11H70.6493L67.8748 22.4748L82.4547 26ZM283 226.401V241.401H302.059L297.58 222.876L283 226.401ZM234.545 26L249.125 22.4748L246.351 11H234.545V26ZM34 226.401L48.5799 229.927L97.0345 29.5252L82.4547 26L67.8748 22.4748L19.4201 222.876L34 226.401ZM158.5 226.401V211.401H34V226.401V241.401H158.5V226.401ZM158.5 226.401V241.401H283V226.401V211.401H158.5V226.401ZM283 226.401L297.58 222.876L249.125 22.4748L234.545 26L219.965 29.5252L268.42 229.927L283 226.401ZM234.545 26V11H158.5V26V41H234.545V26ZM82.4547 26V41H158.5V26V11H82.4547V26Z" fill="#181651" mask="url(#path-3-inside-2_458_488)"/>
</svg>
