<svg width="233" height="198" viewBox="0 0 233 198" fill="none" xmlns="http://www.w3.org/2000/svg">
<path fill-rule="evenodd" clip-rule="evenodd" d="M86 12L116.25 29.3566L146.5 12L189 29.5L228 170.5L232.5 187.5L207.5 198L198.5 182L185 158.5V193H116.5H116H47.5V158.5L34 182L25 198L0 187.5L4.5 170.5L43.5 29.5L86 12Z" fill="#FF0000"/>
<path fill-rule="evenodd" clip-rule="evenodd" d="M4.5 170.477L37.5297 51.0623C44.1766 55.2065 47.5 63.4199 47.5 67.9774V158.477L34 181.977L25 197.977L0 187.477L4.5 170.477ZM228 170.477L194.97 51.0623C188.323 55.2065 185 63.4199 185 67.9774V158.477L198.5 181.977L207.5 197.977L232.5 187.477L228 170.477Z" fill="#500000"/>
<path fill-rule="evenodd" clip-rule="evenodd" d="M116 8H99.9999V33L116.25 29.553L132.5 33V8H116.5H116ZM84.5241 118.811L89.3065 120.092L77.7824 163.101L73 161.819L84.5241 118.811ZM143.193 120.092L147.976 118.811L159.5 161.819L154.717 163.101L143.193 120.092Z" fill="#030303" fill-opacity="0.22"/>
<path d="M115.636 29L116.878 29V193H115.636V29Z" fill="#F5F5F5"/>
<path fill-rule="evenodd" clip-rule="evenodd" d="M93 0H116H116.5H139.5L147.5 10L132 43L116.25 29.7109L100.5 43L85 10L93 0ZM116.25 29.1759L129.5 12H116.5H116H103L116.25 29.1759Z" fill="#AD0000"/>
</svg>
